<?xml version="1.0" encoding="UTF-8"?>
<svg id="Base" xmlns="http://www.w3.org/2000/svg" xmlns:xlink="http://www.w3.org/1999/xlink" viewBox="0 0 36 27.48">
  <defs>
    <style>
      .cls-1 {
        fill: url(#Nouvelle_nuance_de_dégradé_1);
      }
    </style>
    <linearGradient id="Nouvelle_nuance_de_dégradé_1" data-name="Nouvelle nuance de dégradé 1" x1="5.22" y1="28.01" x2="30.71" y2="2.51" gradientUnits="userSpaceOnUse">
      <stop offset="0" stop-color="#70623e"/>
      <stop offset="1" stop-color="#c9a84c"/>
    </linearGradient>
  </defs>
  <path class="cls-1" d="M23.99,18.75c-1.81-.12-3.24-1.62-3.24-3.45,0-.06,0-.12,0-.18h0s0-.12,0-.18c0-1.83,1.43-3.32,3.23-3.43h0c1.81.1,3.24,1.59,3.24,3.42,0,.07,0,.15,0,.22h0c0,.05,0,.12,0,.19,0,1.83-1.43,3.32-3.23,3.42h0,0ZM12.03,18.75c-1.81-.12-3.24-1.62-3.24-3.45,0-.06,0-.12,0-.18h0s0-.12,0-.18c0-1.83,1.43-3.32,3.23-3.43h0c1.81.1,3.24,1.59,3.24,3.42,0,.07,0,.15,0,.22h0s0,.12,0,.18c0,1.83-1.43,3.32-3.23,3.43h0ZM30.47,2.31c-2.12-1-4.57-1.79-7.14-2.24l-.18-.03s-.01,0-.02,0c-.04,0-.08.02-.1.06h0c-.28.49-.59,1.11-.86,1.74l-.05.13c-1.24-.2-2.66-.31-4.11-.31s-2.88.11-4.27.33l.15-.02c-.32-.76-.63-1.37-.98-1.97l.05.09s-.06-.06-.1-.06c0,0-.01,0-.02,0h0c-2.75.48-5.21,1.27-7.51,2.35l.18-.08s-.04.02-.05.04h0C2.05,7.2,0,13.23,0,19.74c0,1.09.06,2.16.17,3.22v-.13s.01.06.04.08H.21c2.57,1.92,5.55,3.47,8.77,4.48l.21.06s.02,0,.03,0c.04,0,.07-.02.09-.05h0c.64-.86,1.25-1.84,1.78-2.87l.06-.12s.01-.03.01-.05c0-.05-.03-.09-.07-.11h0c-1.09-.42-2.02-.87-2.9-1.39l.09.05s-.06-.06-.06-.1c0-.04.02-.07.05-.09h0c.19-.14.38-.29.56-.44.02-.02.04-.03.07-.03.02,0,.03,0,.05,0h0c2.65,1.27,5.76,2.02,9.04,2.02s6.39-.74,9.17-2.07l-.13.06s.03-.01.05-.01c.03,0,.05,0,.07.03h0c.18.15.37.3.56.44.03.02.05.06.05.09,0,.04-.02.08-.06.1h0c-.79.47-1.72.92-2.68,1.29l-.13.04s-.07.06-.07.11c0,.02,0,.04.01.05h0c.6,1.15,1.21,2.13,1.88,3.06l-.05-.07s.06.05.09.05c.01,0,.02,0,.03,0h0c3.44-1.07,6.43-2.62,9.08-4.6l-.08.06s.04-.05.05-.08h0c.1-.94.16-2.03.16-3.14,0-6.5-2.05-12.51-5.55-17.44l.06.09s-.03-.03-.05-.04h0Z"/>
</svg>