<?xml version="1.0" encoding="UTF-8"?>
<svg id="Base" xmlns="http://www.w3.org/2000/svg" xmlns:xlink="http://www.w3.org/1999/xlink" viewBox="0 0 36 36">
  <defs>
    <style>
      .cls-1 {
        fill: url(#Nouvelle_nuance_de_dégradé_1);
      }
    </style>
    <linearGradient id="Nouvelle_nuance_de_dégradé_1" data-name="Nouvelle nuance de dégradé 1" x1=".77" y1="35.23" x2="35.23" y2=".77" gradientUnits="userSpaceOnUse">
      <stop offset="0" stop-color="#70623e"/>
      <stop offset="1" stop-color="#c9a84c"/>
    </linearGradient>
  </defs>
  <path class="cls-1" d="M33.34,0H2.62C1.18,0,.02,1.16,0,2.59v30.81c.02,1.44,1.18,2.59,2.62,2.59h30.74c1.44,0,2.61-1.16,2.63-2.59h0V2.59c-.02-1.44-1.19-2.59-2.63-2.59h-.03,0ZM10.68,30.68h-5.35V13.5h5.35v17.18ZM8,11.15c-1.71,0-3.1-1.39-3.1-3.1s1.39-3.1,3.1-3.1,3.1,1.39,3.1,3.09h0c0,1.71-1.39,3.1-3.09,3.1h0,0ZM30.67,30.68h-5.33v-8.35c0-1.99-.04-4.56-2.78-4.56s-3.2,2.17-3.2,4.41v8.5h-5.33V13.5h5.12v2.34h.07c.99-1.67,2.79-2.78,4.85-2.78.07,0,.15,0,.22,0h-.01c5.4,0,6.4,3.56,6.4,8.18v9.43h0Z"/>
</svg>