<?xml version="1.0" encoding="UTF-8"?>
<svg id="Base" xmlns="http://www.w3.org/2000/svg" xmlns:xlink="http://www.w3.org/1999/xlink" viewBox="0 0 35.94 36">
  <defs>
    <style>
      .cls-1 {
        fill: url(#Nouvelle_nuance_de_dégradé_1);
      }
    </style>
    <linearGradient id="Nouvelle_nuance_de_dégradé_1" data-name="Nouvelle nuance de dégradé 1" x1="5.22" y1="30.72" x2="30.66" y2="5.27" gradientUnits="userSpaceOnUse">
      <stop offset="0" stop-color="#70623e"/>
      <stop offset="1" stop-color="#c9a84c"/>
    </linearGradient>
  </defs>
  <path class="cls-1" d="M20.49,13.35h0c0-1.88,1.52-3.4,3.4-3.4s3.4,1.52,3.4,3.4-1.52,3.4-3.4,3.4h0c-1.88,0-3.4-1.52-3.4-3.4h0s0,0,0,0ZM28.4,13.36c0-2.5-2.03-4.52-4.52-4.52s-4.52,2.03-4.52,4.52,2.03,4.52,4.52,4.52h0c2.5,0,4.52-2.03,4.52-4.52h0ZM11.28,27.32l-2.21-.91c.63,1.29,1.93,2.17,3.44,2.17s2.94-.96,3.52-2.33v-.03c.2-.43.3-.94.3-1.47,0-2.11-1.71-3.82-3.82-3.82-.49,0-.95.09-1.38.26h.03s2.28.94,2.28.94c1.02.44,1.73,1.44,1.73,2.6,0,1.56-1.26,2.82-2.82,2.82-.39,0-.76-.08-1.1-.22h.02s0,0,0,0ZM17.94,0C8.51,0,.77,7.26,0,16.49v.06s9.64,3.99,9.64,3.99c.8-.55,1.79-.88,2.87-.88h0c.09,0,.19,0,.28,0l4.29-6.21v-.09c0-3.75,3.04-6.78,6.79-6.78s6.79,3.04,6.79,6.79-3.04,6.79-6.79,6.79h-.16l-6.12,4.37c0,.08,0,.16,0,.24h0c0,2.82-2.28,5.09-5.09,5.09-2.46,0-4.51-1.74-4.99-4.06v-.03s-6.91-2.86-6.91-2.86c2.21,7.62,9.12,13.09,17.32,13.09,9.94,0,18-8.06,18-18S27.88,0,17.94,0h0,0Z"/>
</svg>