<?xml version="1.0" encoding="UTF-8"?>
<svg id="Base" xmlns="http://www.w3.org/2000/svg" xmlns:xlink="http://www.w3.org/1999/xlink" viewBox="0 0 36 33.38">
  <defs>
    <style>
      .cls-1 {
        fill: url(#Nouvelle_nuance_de_dégradé_1);
      }
    </style>
    <linearGradient id="Nouvelle_nuance_de_dégradé_1" data-name="Nouvelle nuance de dégradé 1" x1="4.88" y1="29.51" x2="31.97" y2="2.42" gradientUnits="userSpaceOnUse">
      <stop offset="0" stop-color="#70623e"/>
      <stop offset="1" stop-color="#c9a84c"/>
    </linearGradient>
  </defs>
  <path class="cls-1" d="M33.75,22.06v-7.8h-5.62v10.28c.29.29.63.52,1.02.67h.02c.36.15.77.23,1.2.23h.04c.47,0,.91-.1,1.32-.27h-.02c.81-.34,1.45-.97,1.78-1.76v-.02c.18-.38.27-.83.27-1.3v-.03h0s0,0,0,0ZM25.88,24.38v-10.12h-7.88v9.76c0,.82-.67,1.49-1.49,1.49h-4.04c.31,1.62,1.14,3.01,2.3,4.03h0c1.15,1,2.65,1.6,4.3,1.6h.05,0,.04c.93,0,1.82-.19,2.62-.54l-.04.02c1.63-.7,2.9-1.97,3.59-3.55l.02-.04c.33-.76.53-1.65.53-2.58v-.05h0s0,0,0,0ZM10.41,13.41h3.38v-2.81H4.22v2.81h3.38v9h2.81v-9ZM19.12,2.25h0c-.83,0-1.58.34-2.12.89h0c-.26.27-.48.59-.63.94v.02c-.16.34-.24.73-.24,1.14v.02h0c0,.43.09.83.24,1.19v-.02c.15.37.37.69.63.96h0c.27.27.59.48.94.63h.02c.34.16.74.24,1.16.24h.01,0,.02c.41,0,.81-.09,1.16-.24h-.02c.37-.16.69-.37.96-.63h0c.27-.27.49-.58.64-.94v-.02c.16-.34.24-.74.24-1.16h0s0-.01,0-.01v-.02c0-.41-.09-.81-.24-1.16v.02c-.16-.37-.38-.69-.64-.96h0c-.27-.27-.59-.49-.94-.64h-.02c-.34-.16-.73-.24-1.14-.24h-.02,0ZM36,13.69v8.4c0,.78-.16,1.52-.45,2.19v-.04c-.57,1.36-1.63,2.42-2.95,2.98h-.04c-.64.29-1.38.45-2.16.45h-.03,0c-.48,0-.95-.06-1.4-.17h.04c-.48-.1-.91-.27-1.3-.5h.02c-.31,1-.74,1.86-1.3,2.63l.02-.03c-1.1,1.52-2.63,2.67-4.42,3.28l-.06.02c-.84.29-1.81.46-2.82.46h-.03,0-.06c-1.15,0-2.24-.22-3.25-.62l.06.02c-1.04-.41-1.94-.97-2.72-1.66h0c-.78-.69-1.44-1.52-1.94-2.44l-.02-.05c-.5-.91-.86-1.96-1.01-3.08v-.05H1.48c-.41,0-.77-.17-1.04-.44H.44c-.27-.26-.44-.63-.44-1.03v-.02h0s0-15.01,0-15.01v-.02c0-.41.17-.77.44-1.03H.44c.26-.27.63-.44,1.03-.44h12.9c-.32-.66-.51-1.43-.51-2.24h0v-.04c0-.73.15-1.42.42-2.05v.03c.53-1.27,1.52-2.25,2.75-2.78h.03c.6-.27,1.31-.43,2.05-.43s1.44.15,2.08.43h-.03c1.27.53,2.25,1.52,2.78,2.75v.03c.27.6.43,1.31.43,2.05s-.15,1.44-.43,2.08v-.03c-.53,1.26-1.52,2.25-2.75,2.78h-.03c-.59.27-1.29.43-2.01.43h-.04,0c-.2,0-.39-.01-.58-.04h.02c-.19-.02-.38-.05-.56-.08v1.62h16.32c.93,0,1.68.75,1.68,1.68h0s0,0,0,0ZM30.94,5.26c-.93,0-1.69.76-1.69,1.69,0,.47.19.89.49,1.19h0c.31.31.73.5,1.2.5.93,0,1.69-.76,1.69-1.69,0-.47-.19-.89-.5-1.2h0c-.3-.3-.71-.49-1.17-.49h-.03,0ZM30.94,10.88h-.03c-.54,0-1.06-.11-1.53-.32h.03c-.94-.4-1.68-1.14-2.08-2.06v-.03c-.2-.45-.32-.98-.32-1.53s.11-1.08.32-1.56v.03c.4-.95,1.14-1.69,2.06-2.09h.03c.45-.2.98-.32,1.53-.32s1.08.11,1.56.32h-.03c.95.4,1.69,1.14,2.09,2.06v.03c.2.45.32.98.32,1.53s-.11,1.08-.32,1.56v-.03c-.4.95-1.14,1.69-2.06,2.08h-.03c-.45.2-.96.32-1.51.32h-.02,0Z"/>
</svg>