<?xml version="1.0" encoding="UTF-8"?>
<svg id="Mode_Isolation" data-name="Mode Isolation" xmlns="http://www.w3.org/2000/svg" viewBox="0 0 75.93 20.62">
  <defs>
    <style>
      .cls-1 {
        fill: #a89d8a;
      }
    </style>
  </defs>
  <g id="Left">
    <path class="cls-1" d="M0,0c12.97,2.54,25.1,7.1,37.13,12.27.19.08.76.34.9.39-.04-.02-.09-.03-.13,0,0,0-.03.01,0,0C50.23,7.31,62.64,2.59,75.93,0c-8.44,6.46-17.48,11.46-26.86,16.18-2.24,1.11-4.74,2.3-7.03,3.35-.2.09-.69.32-.88.41-2.09.98-4.64.91-6.7-.14C22.39,14.19,10.71,8.11,0,0h0Z"/>
  </g>
</svg>