<?xml version="1.0" encoding="UTF-8"?>
<svg id="Mode_Isolation" data-name="Mode Isolation" xmlns="http://www.w3.org/2000/svg" viewBox="0 0 120 172.03">
  <defs>
    <style>
      .cls-1 {
        fill: #a89d8a;
      }

      .cls-2 {
        fill: #fff;
      }

      .cls-3 {
        fill: #c9a84c;
      }
    </style>
  </defs>
  <g id="Art">
    <g id="Logo_Art">
      <g id="Circle">
        <path class="cls-3" d="M60,4c30.88,0,56,25.12,56,56s-25.12,56-56,56S4,90.88,4,60,29.12,4,60,4M60,0C26.86,0,0,26.86,0,60s26.86,60,60,60,60-26.86,60-60S93.14,0,60,0h0Z"/>
      </g>
      <g id="Picto">
        <path class="cls-1" d="M78.96,89.29c0,1.05-.85,1.89-1.89,1.9h-34.39c-1.05,0-1.89-.85-1.89-1.9v-4.95c0-1.05.84-1.89,1.89-1.89h34.39c1.04,0,1.89.85,1.89,1.89v4.95Z"/>
        <path class="cls-1" d="M82.04,61.31l-.05.06-8.79,15.23c-.67,1.02-1.79,1.66-3.01,1.73h-20.54c-1.22-.06-2.34-.71-3.01-1.73l-8.88-15.38c-.58-.76-.54-1.81.09-2.52l.54-.43.09-.06c9.07-8.39,14.4-20.06,14.8-32.41v-.02c0-1.31,1.06-2.37,2.37-2.37s2.37,1.06,2.37,2.37v29.68c-1.88.61-3.36,2.08-3.97,3.97-1.05,3.23.73,6.7,3.97,7.74,3.23,1.05,6.7-.73,7.75-3.97,1.04-3.23-.73-6.7-3.97-7.74v-29.69c0-1.31,1.06-2.37,2.37-2.37s2.37,1.06,2.37,2.37v.02c.35,12.39,5.7,24.11,14.82,32.51l.6.47c.62.71.66,1.76.09,2.52Z"/>
      </g>
    </g>
    <g>
      <path class="cls-2" d="M36.04,144.03h3.88l7.76,28h-3.4l-1.68-6.4h-9.28l-1.72,6.4h-3.32l7.76-28ZM41.92,162.79l-2.32-8.72-1.64-6.12-1.64,6.12-2.36,8.72h7.96Z"/>
      <path class="cls-2" d="M53.12,144.03h8.64c3.68,0,5.84,1.48,5.84,5.12v4.68c0,2.96-1.44,4.48-3.96,4.92l5.16,13.28h-3.48l-4.92-13.08h-4.08v13.08h-3.2v-28ZM61.44,156.07c2.32,0,2.92-.76,2.92-2.96v-3.28c0-2.2-.6-2.96-2.92-2.96h-5.12v9.2h5.12Z"/>
      <path class="cls-2" d="M80.4,146.87h-6.8v-2.84h16.8v2.84h-6.8v25.16h-3.2v-25.16Z"/>
    </g>
  </g>
</svg>