<?xml version="1.0" encoding="UTF-8"?>
<svg id="Mode_Isolation" data-name="Mode Isolation" xmlns="http://www.w3.org/2000/svg" viewBox="0 0 120 172.19">
  <defs>
    <style>
      .cls-1 {
        fill: #a89d8a;
      }

      .cls-2 {
        fill: #fff;
      }

      .cls-3 {
        fill: #c9a84c;
      }
    </style>
  </defs>
  <g id="Crea">
    <g id="Logo_Crea">
      <g id="Circle">
        <path class="cls-3" d="M60,4c30.88,0,56,25.12,56,56s-25.12,56-56,56S4,90.88,4,60,29.12,4,60,4M60,0C26.86,0,0,26.86,0,60s26.86,60,60,60,60-26.86,60-60S93.14,0,60,0h0Z"/>
      </g>
      <g id="Picto">
        <path class="cls-1" d="M77.6,29.1c-4.7-4.7-10.95-7.29-17.6-7.29h-.02c-12.03.01-22.31,8.53-24.45,20.25-1.61,8.79,1.42,17.52,8.12,23.33,1.89,1.65,3.19,4.91,3.69,7.89h10.18v-15.4c-2.89-1.03-4.98-3.77-4.98-7.01,0-4.12,3.35-7.47,7.47-7.47s7.47,3.35,7.47,7.47c0,3.24-2.09,5.98-4.98,7.01v15.4h10.18c.49-2.98,1.79-6.24,3.67-7.88,5.44-4.72,8.56-11.53,8.56-18.69,0-6.65-2.59-12.91-7.3-17.62ZM57.77,34.46c-5.07.9-9.09,4.85-10,9.84-.25,1.34-1.54,2.25-2.9,2-1.35-.25-2.25-1.55-2-2.9,1.28-7.02,6.92-12.59,14.03-13.85,1.36-.24,2.65.66,2.89,2.02.24,1.35-.66,2.65-2.02,2.89Z"/>
        <path class="cls-1" d="M47.55,78.26v2.49c0,3.25,2.09,5.98,4.98,7.01v2.95c0,4.12,3.35,7.47,7.47,7.47s7.47-3.35,7.47-7.47v-2.95c2.9-1.03,4.98-3.77,4.98-7.01v-2.49h-24.9Z"/>
      </g>
    </g>
    <g>
      <path class="cls-2" d="M19.2,167.07v-18.16c0-3.64,2.16-5.12,5.84-5.12h3.92c3.68,0,5.84,1.48,5.84,5.12v3.72h-3.24v-3c0-2.24-.6-2.96-2.92-2.96h-3.28c-2.32,0-2.92.72-2.92,2.96v16.72c0,2.24.6,2.96,2.92,2.96h3.28c2.32,0,2.92-.72,2.92-2.96v-3h3.24v3.72c0,3.64-2.16,5.12-5.84,5.12h-3.92c-3.68,0-5.84-1.48-5.84-5.12Z"/>
      <path class="cls-2" d="M42.12,144.03h8.64c3.68,0,5.84,1.48,5.84,5.12v4.68c0,2.96-1.44,4.48-3.96,4.92l5.16,13.28h-3.48l-4.92-13.08h-4.08v13.08h-3.2v-28ZM50.44,156.07c2.32,0,2.92-.76,2.92-2.96v-3.28c0-2.2-.6-2.96-2.92-2.96h-5.12v9.2h5.12Z"/>
      <path class="cls-2" d="M64.44,144.03h13.84v2.84h-10.6v9.2h9.52v2.88h-9.52v10.24h10.6v2.84h-13.84v-28Z"/>
      <path class="cls-2" d="M91.04,144.03h3.88l7.76,28h-3.4l-1.68-6.4h-9.28l-1.72,6.4h-3.32l7.76-28ZM96.92,162.79l-2.32-8.72-1.64-6.12-1.64,6.12-2.36,8.72h7.96Z"/>
    </g>
  </g>
</svg>