<?xml version="1.0" encoding="UTF-8"?>
<svg id="Base" xmlns="http://www.w3.org/2000/svg" xmlns:xlink="http://www.w3.org/1999/xlink" viewBox="0 0 230.48 709.16">
  <defs>
    <style>
      .cls-1 {
        fill: url(#Nouvelle_nuance_de_dégradé_1);
      }
    </style>
    <linearGradient id="Nouvelle_nuance_de_dégradé_1" data-name="Nouvelle nuance de dégradé 1" x1="0" y1="354.58" x2="230.48" y2="354.58" gradientUnits="userSpaceOnUse">
      <stop offset="0" stop-color="#70623e"/>
      <stop offset="1" stop-color="#c9a84c"/>
    </linearGradient>
  </defs>
  <g id="Ground_Left">
    <path class="cls-1" d="M0,701.16c10.12-.02,20.3-.57,29.79-2.94,4.72-1.2,9.22-2.96,12.97-5.49,1.82-1.31,3.55-2.72,4.84-4.46,1.32-1.7,2.35-3.6,3.07-5.66,1.37-4.17,1.53-8.92.94-13.72-.56-4.81-1.77-9.68-3.17-14.54-1.42-4.87-3.05-9.73-4.65-14.68-1.6-4.94-3.18-9.96-4.38-15.21-.58-2.63-1.08-5.31-1.35-8.09-.24-2.78-.27-5.66.2-8.61.46-2.93,1.5-5.94,3.27-8.55,1.75-2.61,4.14-4.75,6.71-6.24,2.58-1.48,5.27-2.57,7.98-3.29,1.35-.41,2.7-.63,4.06-.95,1.35-.2,2.7-.43,4.05-.6,5.39-.63,10.72-.68,16-.46,1.32.03,2.64.11,3.95.2l3.92.26c2.55.18,5.09.37,7.64.47,5.09.23,10.18.33,15.26.15,10.13-.34,20.24-1.54,29.84-4.37,4.79-1.42,9.43-3.24,13.78-5.58,4.32-2.37,8.39-5.19,11.93-8.58,7.16-6.72,12.1-15.58,14.96-25.11,2.86-9.56,3.88-19.72,3.85-29.86-.03-10.16-1.06-20.36-2.63-30.49-3.18-20.26-8.41-40.23-14.31-59.98-5.93-19.75-12.63-39.29-19.57-58.75-13.9-38.92-28.81-77.52-42.29-116.66-6.73-19.57-13.12-39.28-18.67-59.24-5.53-19.96-10.25-40.19-13.1-60.75-1.39-10.28-2.33-20.63-2.42-31.02-.09-5.19.1-10.39.51-15.57.37-5.19,1.16-10.34,2.19-15.44,1.02-5.1,2.53-10.12,4.42-14.97,1.89-4.85,4.22-9.56,7.12-13.89,2.87-4.35,6.21-8.39,9.95-12.02,3.79-3.58,7.96-6.73,12.36-9.51,2.25-1.3,4.47-2.66,6.83-3.76,2.3-1.22,4.72-2.17,7.1-3.2,4.84-1.87,9.77-3.52,14.81-4.74,10.06-2.53,20.36-3.95,30.68-4.67C178.77-.14,189.12,0,199.46.03l31.02.12-31.02.12c-10.34.04-20.68,0-30.98.82-10.29.8-20.55,2.29-30.53,4.9-5,1.25-9.89,2.93-14.67,4.82-2.35,1.04-4.74,2-7.01,3.23-2.33,1.11-4.51,2.46-6.72,3.77-4.32,2.78-8.4,5.92-12.11,9.47-3.65,3.6-6.9,7.6-9.69,11.9-2.82,4.28-5.06,8.92-6.89,13.71-1.82,4.79-3.26,9.73-4.23,14.78-.98,5.04-1.71,10.13-2.04,15.26-.37,5.13-.51,10.27-.38,15.42.18,10.29,1.18,20.57,2.65,30.77,2.99,20.4,7.86,40.5,13.52,60.35,5.69,19.85,12.22,39.45,19.1,58.93,13.77,38.96,28.99,77.42,43.22,116.29,7.11,19.44,13.99,38.98,20.11,58.8,6.09,19.82,11.54,39.91,14.94,60.5,1.67,10.29,2.82,20.72,2.94,31.24.11,10.5-.84,21.17-3.83,31.47-2.98,10.26-8.34,20.14-16.25,27.69-3.91,3.79-8.38,6.96-13.1,9.59-4.74,2.6-9.76,4.6-14.87,6.16-10.24,3.11-20.83,4.43-31.34,4.87-5.26.23-10.52.17-15.75-.02-2.62-.08-5.23-.26-7.85-.42l-3.82-.22c-1.27-.08-2.53-.15-3.79-.16-5.05-.17-10.09-.07-14.97.54-4.87.59-9.61,1.82-13.41,4.05-1.89,1.12-3.41,2.56-4.53,4.25-1.12,1.69-1.81,3.67-2.14,5.84-.33,2.17-.31,4.49-.08,6.86.25,2.37.71,4.78,1.27,7.19,1.14,4.83,2.71,9.68,4.33,14.55,1.62,4.88,3.32,9.8,4.84,14.85,1.49,5.06,2.85,10.24,3.53,15.71.69,5.42.68,11.27-1.15,16.98-.95,2.83-2.39,5.54-4.22,7.93-1.8,2.44-4.1,4.37-6.46,6.08-4.81,3.3-10.1,5.32-15.36,6.72-10.59,2.72-21.23,3.33-31.75,3.45v-8Z"/>
  </g>
</svg>