<?xml version="1.0" encoding="UTF-8"?>
<svg id="Base" xmlns="http://www.w3.org/2000/svg" xmlns:xlink="http://www.w3.org/1999/xlink" viewBox="0 0 1841.25 1957.01">
  <defs>
    <style>
      .cls-1 {
        fill: url(#Nouvelle_nuance_de_dégradé_1);
      }
    </style>
    <linearGradient id="Nouvelle_nuance_de_dégradé_1" data-name="Nouvelle nuance de dégradé 1" x1="0" y1="978.51" x2="1841.25" y2="978.51" gradientUnits="userSpaceOnUse">
      <stop offset="0" stop-color="#70623e"/>
      <stop offset="1" stop-color="#c9a84c"/>
    </linearGradient>
  </defs>
  <path class="cls-1" d="M32.25.05c-2.47-.25-4.91.63-7,1.86-2.1,1.27-3.9,3-5.45,4.89-1.55,1.9-2.88,3.98-4,6.16-.61,1.07-1.07,2.21-1.61,3.31-.47,1.13-.95,2.27-1.38,3.41-3.41,9.22-5.13,18.97-6.33,28.71-1.17,9.76-1.65,19.59-1.8,29.41l-.14,29.51.15,118.07.64,236.15,1.23,472.29.98,472.29.67,472.29.02,14.74v7.37c0,.99.11,2.15.23,3.28.13,1.14.29,2.28.49,3.42,1.56,9.12,5.1,17.96,10.72,25.03,2.83,3.52,6.16,6.59,9.92,9.04,3.76,2.46,7.93,4.3,12.33,5.54,4.4,1.24,9,1.89,13.65,2.15l3.5.11h3.68s7.38,0,7.38,0l118.07.05,236.15.12,472.3.67c314.86.59,629.73,1.46,944.59,3.12-314.86,1.67-629.73,2.54-944.59,3.12l-472.3.67-236.15.12-118.07.05h-7.38s-3.7,0-3.7,0l-3.87-.12c-5.16-.27-10.36-1-15.44-2.43-5.07-1.42-10.01-3.58-14.49-6.51-4.48-2.92-8.48-6.59-11.81-10.74-6.65-8.37-10.59-18.41-12.37-28.64-.22-1.29-.41-2.58-.56-3.89-.14-1.31-.27-2.61-.27-4.08v-7.39s-.03-14.78-.03-14.78l-.23-472.3.35-472.3.41-236.15.67-236.15,1.06-236.15c.21-39.36.5-78.72.85-118.08l.44-29.52c.25-9.84.82-19.69,2.1-29.47,1.3-9.75,3.13-19.51,6.65-28.74.45-1.15.94-2.28,1.42-3.41.55-1.1,1.03-2.24,1.65-3.31,1.15-2.18,2.51-4.25,4.09-6.15,1.58-1.89,3.4-3.61,5.52-4.86C27.33.63,29.79-.23,32.25.05Z"/>
</svg>