<?xml version="1.0" encoding="UTF-8"?>
<svg id="Calque_2" data-name="Calque 2" xmlns="http://www.w3.org/2000/svg" xmlns:xlink="http://www.w3.org/1999/xlink" viewBox="0 0 1074.12 433.69">
  <defs>
    <style>
      .cls-1 {
        fill: url(#Dégradé_sans_nom_96-51);
      }

      .cls-2 {
        fill: url(#Dégradé_sans_nom_96-65);
      }

      .cls-3 {
        fill: url(#Dégradé_sans_nom_96-22);
      }

      .cls-4 {
        fill: url(#Dégradé_sans_nom_96-59);
      }

      .cls-5 {
        fill: url(#Dégradé_sans_nom_96-47);
      }

      .cls-6 {
        fill: url(#Dégradé_sans_nom_96-75);
      }

      .cls-7 {
        fill: url(#Dégradé_sans_nom_96-96);
      }

      .cls-8 {
        fill: url(#Dégradé_sans_nom_96-134);
      }

      .cls-9 {
        fill: url(#Dégradé_sans_nom_96-67);
      }

      .cls-10 {
        fill: url(#Dégradé_sans_nom_96-135);
      }

      .cls-11 {
        fill: url(#Dégradé_sans_nom_96-120);
      }

      .cls-12 {
        fill: url(#Dégradé_sans_nom_96-97);
      }

      .cls-13 {
        fill: url(#Dégradé_sans_nom_96-127);
      }

      .cls-14 {
        fill: url(#Dégradé_sans_nom_96-20);
      }

      .cls-15 {
        fill: url(#Dégradé_sans_nom_96-89);
      }

      .cls-16 {
        fill: url(#Dégradé_sans_nom_73-2);
      }

      .cls-17 {
        fill: url(#Dégradé_sans_nom_96-56);
      }

      .cls-18 {
        fill: url(#Dégradé_sans_nom_96-29);
      }

      .cls-19 {
        fill: url(#Dégradé_sans_nom_96-48);
      }

      .cls-20 {
        fill: url(#Dégradé_sans_nom_96-63);
      }

      .cls-21 {
        fill: url(#Dégradé_sans_nom_96-81);
      }

      .cls-22 {
        fill: url(#Dégradé_sans_nom_96-145);
      }

      .cls-23 {
        fill: url(#Dégradé_sans_nom_96-119);
      }

      .cls-24 {
        fill: url(#Dégradé_sans_nom_96-172);
      }

      .cls-25 {
        fill: url(#Dégradé_sans_nom_96-109);
      }

      .cls-26 {
        fill: url(#Dégradé_sans_nom_96-164);
      }

      .cls-27 {
        fill: url(#Dégradé_sans_nom_96-103);
      }

      .cls-28 {
        fill: url(#Dégradé_sans_nom_96-124);
      }

      .cls-29 {
        fill: url(#Dégradé_sans_nom_96-39);
      }

      .cls-30 {
        fill: url(#Dégradé_sans_nom_96-105);
      }

      .cls-31 {
        fill: url(#Dégradé_sans_nom_96-8);
      }

      .cls-32 {
        fill: url(#Dégradé_sans_nom_96-155);
      }

      .cls-33 {
        fill: url(#Dégradé_sans_nom_96-122);
      }

      .cls-34 {
        fill: url(#Dégradé_sans_nom_96-11);
      }

      .cls-35 {
        fill: url(#Dégradé_sans_nom_96-132);
      }

      .cls-36 {
        fill: url(#Dégradé_sans_nom_96-10);
      }

      .cls-37 {
        fill: url(#Dégradé_sans_nom_96-3);
      }

      .cls-38 {
        fill: url(#Dégradé_sans_nom_96-9);
      }

      .cls-39 {
        fill: url(#Dégradé_sans_nom_96-74);
      }

      .cls-40 {
        fill: url(#Dégradé_sans_nom_73);
      }

      .cls-41 {
        fill: url(#Dégradé_sans_nom_96-175);
      }

      .cls-42 {
        fill: url(#Dégradé_sans_nom_96-182);
      }

      .cls-43 {
        fill: url(#Dégradé_sans_nom_96-108);
      }

      .cls-44 {
        fill: url(#Dégradé_sans_nom_73-7);
      }

      .cls-45 {
        fill: url(#Dégradé_sans_nom_96-85);
      }

      .cls-46 {
        fill: url(#Dégradé_sans_nom_96-178);
      }

      .cls-47 {
        fill: url(#Dégradé_sans_nom_96-140);
      }

      .cls-48 {
        fill: url(#Dégradé_sans_nom_96-160);
      }

      .cls-49 {
        fill: url(#Dégradé_sans_nom_96-23);
      }

      .cls-50 {
        fill: url(#Dégradé_sans_nom_73-5);
      }

      .cls-51 {
        fill: url(#Dégradé_sans_nom_96-79);
      }

      .cls-52 {
        fill: url(#Dégradé_sans_nom_96-50);
      }

      .cls-53 {
        fill: url(#Dégradé_sans_nom_96-88);
      }

      .cls-54 {
        fill: url(#Dégradé_sans_nom_96-73);
      }

      .cls-55 {
        fill: url(#Dégradé_sans_nom_96-71);
      }

      .cls-56 {
        fill: url(#Dégradé_sans_nom_96-141);
      }

      .cls-57 {
        fill: url(#Dégradé_sans_nom_96-76);
      }

      .cls-58 {
        fill: url(#Dégradé_sans_nom_96-40);
      }

      .cls-59 {
        fill: url(#Dégradé_sans_nom_96-72);
      }

      .cls-60 {
        fill: url(#Dégradé_sans_nom_96-186);
      }

      .cls-61 {
        fill: url(#Dégradé_sans_nom_96-115);
      }

      .cls-62 {
        fill: url(#Dégradé_sans_nom_73-8);
      }

      .cls-63 {
        fill: url(#Dégradé_sans_nom_96-151);
      }

      .cls-64 {
        fill: url(#Dégradé_sans_nom_96-123);
      }

      .cls-65 {
        fill: url(#Dégradé_sans_nom_96-116);
      }

      .cls-66 {
        fill: url(#Dégradé_sans_nom_96-144);
      }

      .cls-67 {
        fill: url(#Dégradé_sans_nom_73-3);
      }

      .cls-68 {
        fill: url(#Dégradé_sans_nom_96-30);
      }

      .cls-69 {
        fill: url(#Dégradé_sans_nom_96-90);
      }

      .cls-70 {
        fill: url(#Dégradé_sans_nom_96-159);
      }

      .cls-71 {
        fill: url(#Dégradé_sans_nom_96-84);
      }

      .cls-72 {
        fill: url(#Dégradé_sans_nom_96-149);
      }

      .cls-73 {
        fill: url(#Dégradé_sans_nom_96-49);
      }

      .cls-74 {
        fill: url(#Dégradé_sans_nom_96-55);
      }

      .cls-75 {
        fill: url(#Dégradé_sans_nom_96-171);
      }

      .cls-76 {
        fill: url(#Dégradé_sans_nom_96-138);
      }

      .cls-77 {
        fill: url(#Dégradé_sans_nom_96-64);
      }

      .cls-78 {
        fill: url(#Dégradé_sans_nom_96-34);
      }

      .cls-79 {
        fill: url(#Dégradé_sans_nom_96-5);
      }

      .cls-80 {
        fill: url(#Dégradé_sans_nom_96-83);
      }

      .cls-81 {
        fill: url(#Dégradé_sans_nom_96-176);
      }

      .cls-82 {
        fill: url(#Dégradé_sans_nom_96-19);
      }

      .cls-83 {
        fill: url(#Dégradé_sans_nom_96-146);
      }

      .cls-84 {
        fill: url(#Dégradé_sans_nom_96-142);
      }

      .cls-85 {
        fill: url(#Dégradé_sans_nom_96-158);
      }

      .cls-86 {
        fill: url(#Dégradé_sans_nom_96-152);
      }

      .cls-87 {
        fill: url(#Dégradé_sans_nom_96-92);
      }

      .cls-88 {
        fill: url(#Dégradé_sans_nom_96-27);
      }

      .cls-89 {
        fill: url(#Dégradé_sans_nom_96-17);
      }

      .cls-90 {
        fill: url(#Dégradé_sans_nom_96-180);
      }

      .cls-91 {
        fill: url(#Dégradé_sans_nom_96-66);
      }

      .cls-92 {
        fill: url(#Dégradé_sans_nom_96-61);
      }

      .cls-93 {
        fill: url(#Dégradé_sans_nom_96-104);
      }

      .cls-94 {
        fill: url(#Dégradé_sans_nom_96-93);
      }

      .cls-95 {
        fill: url(#Dégradé_sans_nom_96-54);
      }

      .cls-96 {
        fill: url(#Dégradé_sans_nom_96-4);
      }

      .cls-97 {
        fill: url(#Dégradé_sans_nom_96-102);
      }

      .cls-98 {
        fill: url(#Dégradé_sans_nom_96-33);
      }

      .cls-99 {
        fill: url(#Dégradé_sans_nom_96-24);
      }

      .cls-100 {
        fill: url(#Dégradé_sans_nom_96-179);
      }

      .cls-101 {
        fill: url(#Dégradé_sans_nom_96-37);
      }

      .cls-102 {
        fill: url(#Dégradé_sans_nom_96-91);
      }

      .cls-103 {
        fill: url(#Dégradé_sans_nom_96-112);
      }

      .cls-104 {
        fill: url(#Dégradé_sans_nom_96-14);
      }

      .cls-105 {
        fill: url(#Dégradé_sans_nom_96-161);
      }

      .cls-106 {
        fill: url(#Dégradé_sans_nom_96-53);
      }

      .cls-107 {
        fill: url(#Dégradé_sans_nom_96-126);
      }

      .cls-108 {
        fill: url(#Dégradé_sans_nom_96-41);
      }

      .cls-109 {
        fill: url(#Dégradé_sans_nom_96-113);
      }

      .cls-110 {
        fill: url(#Dégradé_sans_nom_96-25);
      }

      .cls-111 {
        fill: url(#Dégradé_sans_nom_96-16);
      }

      .cls-112 {
        fill: url(#Dégradé_sans_nom_96-111);
      }

      .cls-113 {
        fill: url(#Dégradé_sans_nom_96-99);
      }

      .cls-114 {
        fill: url(#Dégradé_sans_nom_96-77);
      }

      .cls-115 {
        fill: url(#Dégradé_sans_nom_96-187);
      }

      .cls-116 {
        fill: url(#Dégradé_sans_nom_96-58);
      }

      .cls-117 {
        fill: url(#Dégradé_sans_nom_96-137);
      }

      .cls-118 {
        fill: url(#Dégradé_sans_nom_96-131);
      }

      .cls-119 {
        fill: url(#Dégradé_sans_nom_96-45);
      }

      .cls-120 {
        fill: url(#Dégradé_sans_nom_96-166);
      }

      .cls-121 {
        fill: url(#Dégradé_sans_nom_96-94);
      }

      .cls-122 {
        fill: url(#Dégradé_sans_nom_96-62);
      }

      .cls-123 {
        fill: url(#Dégradé_sans_nom_96-7);
      }

      .cls-124 {
        fill: url(#Dégradé_sans_nom_96-121);
      }

      .cls-125 {
        fill: url(#Dégradé_sans_nom_96-69);
      }

      .cls-126 {
        fill: url(#Dégradé_sans_nom_96-165);
      }

      .cls-127 {
        fill: url(#Dégradé_sans_nom_96-26);
      }

      .cls-128 {
        fill: url(#Dégradé_sans_nom_96-82);
      }

      .cls-129 {
        fill: url(#Dégradé_sans_nom_96-130);
      }

      .cls-130 {
        fill: url(#Dégradé_sans_nom_96-181);
      }

      .cls-131 {
        fill: url(#Dégradé_sans_nom_96-185);
      }

      .cls-132 {
        fill: url(#Dégradé_sans_nom_96-32);
      }

      .cls-133 {
        fill: url(#Dégradé_sans_nom_96-170);
      }

      .cls-134 {
        fill: url(#Dégradé_sans_nom_96-86);
      }

      .cls-135 {
        fill: url(#Dégradé_sans_nom_96-52);
      }

      .cls-136 {
        fill: url(#Dégradé_sans_nom_96-184);
      }

      .cls-137 {
        fill: url(#Dégradé_sans_nom_96-70);
      }

      .cls-138 {
        fill: url(#Dégradé_sans_nom_96-31);
      }

      .cls-139 {
        fill: url(#Dégradé_sans_nom_96-68);
      }

      .cls-140 {
        fill: url(#Dégradé_sans_nom_96-44);
      }

      .cls-141 {
        fill: url(#Dégradé_sans_nom_96-114);
      }

      .cls-142 {
        fill: url(#Dégradé_sans_nom_96-169);
      }

      .cls-143 {
        fill: url(#Dégradé_sans_nom_96-162);
      }

      .cls-144 {
        fill: url(#Dégradé_sans_nom_96-156);
      }

      .cls-145 {
        fill: url(#Dégradé_sans_nom_96-125);
      }

      .cls-146 {
        fill: url(#Dégradé_sans_nom_96-42);
      }

      .cls-147 {
        fill: url(#Dégradé_sans_nom_96-57);
      }

      .cls-148 {
        fill: url(#Dégradé_sans_nom_96-136);
      }

      .cls-149 {
        fill: url(#Dégradé_sans_nom_73-6);
      }

      .cls-150 {
        fill: url(#Dégradé_sans_nom_96-13);
      }

      .cls-151 {
        fill: url(#Dégradé_sans_nom_96-36);
      }

      .cls-152 {
        fill: url(#Dégradé_sans_nom_96-101);
      }

      .cls-153 {
        fill: url(#Dégradé_sans_nom_96-118);
      }

      .cls-154 {
        fill: url(#Dégradé_sans_nom_96-129);
      }

      .cls-155 {
        fill: url(#Dégradé_sans_nom_96-117);
      }

      .cls-156 {
        fill: url(#Dégradé_sans_nom_96-21);
      }

      .cls-157 {
        fill: url(#Dégradé_sans_nom_96-148);
      }

      .cls-158 {
        fill: url(#Dégradé_sans_nom_73-4);
      }

      .cls-159 {
        fill: url(#Dégradé_sans_nom_96-173);
      }

      .cls-160 {
        fill: url(#Dégradé_sans_nom_96-163);
      }

      .cls-161 {
        fill: url(#Dégradé_sans_nom_96-2);
      }

      .cls-162 {
        fill: url(#Dégradé_sans_nom_96-12);
      }

      .cls-163 {
        fill: url(#Dégradé_sans_nom_96-46);
      }

      .cls-164 {
        fill: url(#Dégradé_sans_nom_96-60);
      }

      .cls-165 {
        fill: url(#Dégradé_sans_nom_96-6);
      }

      .cls-166 {
        fill: url(#Dégradé_sans_nom_96-38);
      }

      .cls-167 {
        fill: url(#Dégradé_sans_nom_96-167);
      }

      .cls-168 {
        fill: url(#Dégradé_sans_nom_96-174);
      }

      .cls-169 {
        fill: url(#Dégradé_sans_nom_96-183);
      }

      .cls-170 {
        fill: url(#Dégradé_sans_nom_96-106);
      }

      .cls-171 {
        fill: url(#Dégradé_sans_nom_96-154);
      }

      .cls-172 {
        fill: url(#Dégradé_sans_nom_96-110);
      }

      .cls-173 {
        fill: url(#Dégradé_sans_nom_96-78);
      }

      .cls-174 {
        fill: url(#Dégradé_sans_nom_96-133);
      }

      .cls-175 {
        fill: url(#Dégradé_sans_nom_96-177);
      }

      .cls-176 {
        fill: url(#Dégradé_sans_nom_96-15);
      }

      .cls-177 {
        fill: url(#Dégradé_sans_nom_96-18);
      }

      .cls-178 {
        fill: url(#Dégradé_sans_nom_96-35);
      }

      .cls-179 {
        fill: url(#Dégradé_sans_nom_96-100);
      }

      .cls-180 {
        fill: url(#Dégradé_sans_nom_96);
      }

      .cls-181 {
        fill: url(#Dégradé_sans_nom_96-139);
      }

      .cls-182 {
        fill: url(#Dégradé_sans_nom_96-150);
      }

      .cls-183 {
        fill: url(#Dégradé_sans_nom_96-87);
      }

      .cls-184 {
        fill: url(#Dégradé_sans_nom_96-107);
      }

      .cls-185 {
        fill: url(#Dégradé_sans_nom_96-157);
      }

      .cls-186 {
        fill: url(#Dégradé_sans_nom_96-147);
      }

      .cls-187 {
        fill: url(#Dégradé_sans_nom_96-143);
      }

      .cls-188 {
        fill: url(#Dégradé_sans_nom_96-168);
      }

      .cls-189 {
        fill: url(#Dégradé_sans_nom_73-9);
      }

      .cls-190 {
        fill: url(#Dégradé_sans_nom_96-80);
      }

      .cls-191 {
        fill: url(#Dégradé_sans_nom_96-128);
      }

      .cls-192 {
        fill: url(#Dégradé_sans_nom_96-95);
      }

      .cls-193 {
        fill: url(#Dégradé_sans_nom_96-153);
      }

      .cls-194 {
        fill: url(#Dégradé_sans_nom_96-28);
      }

      .cls-195 {
        fill: url(#Dégradé_sans_nom_96-98);
      }

      .cls-196 {
        fill: url(#Dégradé_sans_nom_96-43);
      }
    </style>
    <linearGradient id="Dégradé_sans_nom_73" data-name="Dégradé sans nom 73" x1="601.75" y1="87.61" x2="601.75" y2="364.47" gradientUnits="userSpaceOnUse">
      <stop offset="0" stop-color="#70623e" stop-opacity="0"/>
      <stop offset="1" stop-color="#c9a84c"/>
    </linearGradient>
    <linearGradient id="Dégradé_sans_nom_73-2" data-name="Dégradé sans nom 73" x1="737.05" y1="87.61" x2="737.05" y2="364.47" xlink:href="#Dégradé_sans_nom_73"/>
    <linearGradient id="Dégradé_sans_nom_73-3" data-name="Dégradé sans nom 73" x1="849.21" y1="87.61" x2="849.21" y2="364.47" xlink:href="#Dégradé_sans_nom_73"/>
    <linearGradient id="Dégradé_sans_nom_73-4" data-name="Dégradé sans nom 73" x1="424.15" y1="87.61" x2="424.15" y2="364.47" xlink:href="#Dégradé_sans_nom_73"/>
    <linearGradient id="Dégradé_sans_nom_73-5" data-name="Dégradé sans nom 73" x1="316.44" y1="87.61" x2="316.44" y2="364.47" xlink:href="#Dégradé_sans_nom_73"/>
    <linearGradient id="Dégradé_sans_nom_73-6" data-name="Dégradé sans nom 73" x1="198.85" y1="87.61" x2="198.85" y2="364.47" xlink:href="#Dégradé_sans_nom_73"/>
    <linearGradient id="Dégradé_sans_nom_73-7" data-name="Dégradé sans nom 73" x1="710.41" y1="87.61" x2="710.41" y2="364.47" xlink:href="#Dégradé_sans_nom_73"/>
    <linearGradient id="Dégradé_sans_nom_73-8" data-name="Dégradé sans nom 73" x1="533.18" y1="87.61" x2="533.18" y2="364.47" xlink:href="#Dégradé_sans_nom_73"/>
    <linearGradient id="Dégradé_sans_nom_73-9" data-name="Dégradé sans nom 73" x1="187.84" y1="87.61" x2="187.84" y2="364.47" xlink:href="#Dégradé_sans_nom_73"/>
    <linearGradient id="Dégradé_sans_nom_96" data-name="Dégradé sans nom 96" x1="193.29" y1="-16.39" x2="193.29" y2="409.09" gradientUnits="userSpaceOnUse">
      <stop offset="0" stop-color="#70623e" stop-opacity=".1"/>
      <stop offset="1" stop-color="#a89d8a"/>
    </linearGradient>
    <linearGradient id="Dégradé_sans_nom_96-2" data-name="Dégradé sans nom 96" x1="185.88" y1="-16.39" x2="185.88" y2="409.09" xlink:href="#Dégradé_sans_nom_96"/>
    <linearGradient id="Dégradé_sans_nom_96-3" data-name="Dégradé sans nom 96" x1="150.27" y1="-16.39" x2="150.27" y2="409.09" xlink:href="#Dégradé_sans_nom_96"/>
    <linearGradient id="Dégradé_sans_nom_96-4" data-name="Dégradé sans nom 96" x1="149.49" y1="-16.39" x2="149.49" y2="409.09" xlink:href="#Dégradé_sans_nom_96"/>
    <linearGradient id="Dégradé_sans_nom_96-5" data-name="Dégradé sans nom 96" x1="196.47" y1="-16.39" x2="196.47" y2="409.09" xlink:href="#Dégradé_sans_nom_96"/>
    <linearGradient id="Dégradé_sans_nom_96-6" data-name="Dégradé sans nom 96" x1="188.82" y1="-16.39" x2="188.82" y2="409.09" xlink:href="#Dégradé_sans_nom_96"/>
    <linearGradient id="Dégradé_sans_nom_96-7" data-name="Dégradé sans nom 96" x1="171.66" y1="-16.39" x2="171.66" y2="409.09" xlink:href="#Dégradé_sans_nom_96"/>
    <linearGradient id="Dégradé_sans_nom_96-8" data-name="Dégradé sans nom 96" x1="204.47" y1="-16.39" x2="204.47" y2="409.09" xlink:href="#Dégradé_sans_nom_96"/>
    <linearGradient id="Dégradé_sans_nom_96-9" data-name="Dégradé sans nom 96" x1="217.88" y1="-16.39" x2="217.88" y2="409.09" xlink:href="#Dégradé_sans_nom_96"/>
    <linearGradient id="Dégradé_sans_nom_96-10" data-name="Dégradé sans nom 96" x1="222.76" y1="-16.39" x2="222.76" y2="409.09" xlink:href="#Dégradé_sans_nom_96"/>
    <linearGradient id="Dégradé_sans_nom_96-11" data-name="Dégradé sans nom 96" x1="233.62" y1="-16.39" x2="233.62" y2="409.09" xlink:href="#Dégradé_sans_nom_96"/>
    <linearGradient id="Dégradé_sans_nom_96-12" data-name="Dégradé sans nom 96" x1="17.87" y1="-16.39" x2="17.87" y2="409.09" xlink:href="#Dégradé_sans_nom_96"/>
    <linearGradient id="Dégradé_sans_nom_96-13" data-name="Dégradé sans nom 96" x1="53.19" y1="-16.39" x2="53.19" y2="409.09" xlink:href="#Dégradé_sans_nom_96"/>
    <linearGradient id="Dégradé_sans_nom_96-14" data-name="Dégradé sans nom 96" x1="12.01" y1="-16.39" x2="12.01" y2="409.09" xlink:href="#Dégradé_sans_nom_96"/>
    <linearGradient id="Dégradé_sans_nom_96-15" data-name="Dégradé sans nom 96" x1="27.06" y1="-16.39" x2="27.06" y2="409.09" xlink:href="#Dégradé_sans_nom_96"/>
    <linearGradient id="Dégradé_sans_nom_96-16" data-name="Dégradé sans nom 96" x1="40.3" y1="-16.39" x2="40.3" y2="409.09" xlink:href="#Dégradé_sans_nom_96"/>
    <linearGradient id="Dégradé_sans_nom_96-17" data-name="Dégradé sans nom 96" x1="70.78" y1="-16.39" x2="70.78" y2="409.09" xlink:href="#Dégradé_sans_nom_96"/>
    <linearGradient id="Dégradé_sans_nom_96-18" data-name="Dégradé sans nom 96" x1="108.08" y1="-16.39" x2="108.08" y2="409.09" xlink:href="#Dégradé_sans_nom_96"/>
    <linearGradient id="Dégradé_sans_nom_96-19" data-name="Dégradé sans nom 96" x1="50.33" y1="-16.39" x2="50.33" y2="409.09" xlink:href="#Dégradé_sans_nom_96"/>
    <linearGradient id="Dégradé_sans_nom_96-20" data-name="Dégradé sans nom 96" x1="89.04" y1="-16.39" x2="89.04" y2="409.09" xlink:href="#Dégradé_sans_nom_96"/>
    <linearGradient id="Dégradé_sans_nom_96-21" data-name="Dégradé sans nom 96" x1="123.72" y1="-16.39" x2="123.72" y2="409.09" xlink:href="#Dégradé_sans_nom_96"/>
    <linearGradient id="Dégradé_sans_nom_96-22" data-name="Dégradé sans nom 96" x1="109.3" y1="-16.39" x2="109.3" y2="409.09" xlink:href="#Dégradé_sans_nom_96"/>
    <linearGradient id="Dégradé_sans_nom_96-23" data-name="Dégradé sans nom 96" x1="150.11" y1="-16.39" x2="150.11" y2="409.09" xlink:href="#Dégradé_sans_nom_96"/>
    <linearGradient id="Dégradé_sans_nom_96-24" data-name="Dégradé sans nom 96" x1="149.26" y1="-16.39" x2="149.26" y2="409.09" xlink:href="#Dégradé_sans_nom_96"/>
    <linearGradient id="Dégradé_sans_nom_96-25" data-name="Dégradé sans nom 96" x1="167.59" y1="-16.39" x2="167.59" y2="409.09" xlink:href="#Dégradé_sans_nom_96"/>
    <linearGradient id="Dégradé_sans_nom_96-26" data-name="Dégradé sans nom 96" x1="77.12" y1="-16.39" x2="77.12" y2="409.09" xlink:href="#Dégradé_sans_nom_96"/>
    <linearGradient id="Dégradé_sans_nom_96-27" data-name="Dégradé sans nom 96" x1="223.18" y1="-16.39" x2="223.18" y2="409.09" xlink:href="#Dégradé_sans_nom_96"/>
    <linearGradient id="Dégradé_sans_nom_96-28" data-name="Dégradé sans nom 96" x1="224.69" y1="-16.39" x2="224.69" y2="409.09" xlink:href="#Dégradé_sans_nom_96"/>
    <linearGradient id="Dégradé_sans_nom_96-29" data-name="Dégradé sans nom 96" x1="252.95" y1="-16.39" x2="252.95" y2="409.09" xlink:href="#Dégradé_sans_nom_96"/>
    <linearGradient id="Dégradé_sans_nom_96-30" data-name="Dégradé sans nom 96" x1="264.64" y1="-16.39" x2="264.64" y2="409.09" xlink:href="#Dégradé_sans_nom_96"/>
    <linearGradient id="Dégradé_sans_nom_96-31" data-name="Dégradé sans nom 96" x1="255.28" y1="-16.39" x2="255.28" y2="409.09" xlink:href="#Dégradé_sans_nom_96"/>
    <linearGradient id="Dégradé_sans_nom_96-32" data-name="Dégradé sans nom 96" x1="257.49" y1="-16.39" x2="257.49" y2="409.09" xlink:href="#Dégradé_sans_nom_96"/>
    <linearGradient id="Dégradé_sans_nom_96-33" data-name="Dégradé sans nom 96" x1="288.6" y1="-16.39" x2="288.6" y2="409.09" xlink:href="#Dégradé_sans_nom_96"/>
    <linearGradient id="Dégradé_sans_nom_96-34" data-name="Dégradé sans nom 96" x1="285.28" y1="-16.39" x2="285.28" y2="409.09" xlink:href="#Dégradé_sans_nom_96"/>
    <linearGradient id="Dégradé_sans_nom_96-35" data-name="Dégradé sans nom 96" x1="233.03" y1="-16.39" x2="233.03" y2="409.09" xlink:href="#Dégradé_sans_nom_96"/>
    <linearGradient id="Dégradé_sans_nom_96-36" data-name="Dégradé sans nom 96" x1="253.01" y1="-16.39" x2="253.01" y2="409.09" xlink:href="#Dégradé_sans_nom_96"/>
    <linearGradient id="Dégradé_sans_nom_96-37" data-name="Dégradé sans nom 96" x1="276.22" y1="-16.39" x2="276.22" y2="409.09" xlink:href="#Dégradé_sans_nom_96"/>
    <linearGradient id="Dégradé_sans_nom_96-38" data-name="Dégradé sans nom 96" x1="302.82" y1="-16.39" x2="302.82" y2="409.09" xlink:href="#Dégradé_sans_nom_96"/>
    <linearGradient id="Dégradé_sans_nom_96-39" data-name="Dégradé sans nom 96" x1="325.28" y1="-16.39" x2="325.28" y2="409.09" xlink:href="#Dégradé_sans_nom_96"/>
    <linearGradient id="Dégradé_sans_nom_96-40" data-name="Dégradé sans nom 96" x1="368.77" y1="-16.39" x2="368.77" y2="409.09" xlink:href="#Dégradé_sans_nom_96"/>
    <linearGradient id="Dégradé_sans_nom_96-41" data-name="Dégradé sans nom 96" x1="313.3" y1="-16.39" x2="313.3" y2="409.09" xlink:href="#Dégradé_sans_nom_96"/>
    <linearGradient id="Dégradé_sans_nom_96-42" data-name="Dégradé sans nom 96" x1="286.18" y1="-16.39" x2="286.18" y2="409.09" xlink:href="#Dégradé_sans_nom_96"/>
    <linearGradient id="Dégradé_sans_nom_96-43" data-name="Dégradé sans nom 96" x1="237.4" y1="-16.39" x2="237.4" y2="409.09" xlink:href="#Dégradé_sans_nom_96"/>
    <linearGradient id="Dégradé_sans_nom_96-44" data-name="Dégradé sans nom 96" x1="263.99" y1="-16.39" x2="263.99" y2="409.09" xlink:href="#Dégradé_sans_nom_96"/>
    <linearGradient id="Dégradé_sans_nom_96-45" data-name="Dégradé sans nom 96" x1="290.13" y1="-16.39" x2="290.13" y2="409.09" xlink:href="#Dégradé_sans_nom_96"/>
    <linearGradient id="Dégradé_sans_nom_96-46" data-name="Dégradé sans nom 96" x1="312.37" y1="-16.39" x2="312.37" y2="409.09" xlink:href="#Dégradé_sans_nom_96"/>
    <linearGradient id="Dégradé_sans_nom_96-47" data-name="Dégradé sans nom 96" x1="325.1" y1="-16.39" x2="325.1" y2="409.09" xlink:href="#Dégradé_sans_nom_96"/>
    <linearGradient id="Dégradé_sans_nom_96-48" data-name="Dégradé sans nom 96" x1="330.39" y1="-16.39" x2="330.39" y2="409.09" xlink:href="#Dégradé_sans_nom_96"/>
    <linearGradient id="Dégradé_sans_nom_96-49" data-name="Dégradé sans nom 96" x1="372.39" y1="-16.39" x2="372.39" y2="409.09" xlink:href="#Dégradé_sans_nom_96"/>
    <linearGradient id="Dégradé_sans_nom_96-50" data-name="Dégradé sans nom 96" x1="354.42" y1="-16.39" x2="354.42" y2="409.09" xlink:href="#Dégradé_sans_nom_96"/>
    <linearGradient id="Dégradé_sans_nom_96-51" data-name="Dégradé sans nom 96" x1="365.96" y1="-16.39" x2="365.96" y2="409.09" xlink:href="#Dégradé_sans_nom_96"/>
    <linearGradient id="Dégradé_sans_nom_96-52" data-name="Dégradé sans nom 96" x1="347.82" y1="-16.39" x2="347.82" y2="409.09" xlink:href="#Dégradé_sans_nom_96"/>
    <linearGradient id="Dégradé_sans_nom_96-53" data-name="Dégradé sans nom 96" x1="321.45" y1="-16.39" x2="321.45" y2="409.09" xlink:href="#Dégradé_sans_nom_96"/>
    <linearGradient id="Dégradé_sans_nom_96-54" data-name="Dégradé sans nom 96" x1="276.18" y1="-16.39" x2="276.18" y2="409.09" xlink:href="#Dégradé_sans_nom_96"/>
    <linearGradient id="Dégradé_sans_nom_96-55" data-name="Dégradé sans nom 96" x1="302.42" y1="-16.39" x2="302.42" y2="409.09" xlink:href="#Dégradé_sans_nom_96"/>
    <linearGradient id="Dégradé_sans_nom_96-56" data-name="Dégradé sans nom 96" x1="340.42" y1="-16.39" x2="340.42" y2="409.09" xlink:href="#Dégradé_sans_nom_96"/>
    <linearGradient id="Dégradé_sans_nom_96-57" data-name="Dégradé sans nom 96" x1="366.29" y1="-16.39" x2="366.29" y2="409.09" xlink:href="#Dégradé_sans_nom_96"/>
    <linearGradient id="Dégradé_sans_nom_96-58" data-name="Dégradé sans nom 96" x1="370.65" y1="-16.39" x2="370.65" y2="409.09" xlink:href="#Dégradé_sans_nom_96"/>
    <linearGradient id="Dégradé_sans_nom_96-59" data-name="Dégradé sans nom 96" x1="398.73" y1="-16.39" x2="398.73" y2="409.09" xlink:href="#Dégradé_sans_nom_96"/>
    <linearGradient id="Dégradé_sans_nom_96-60" data-name="Dégradé sans nom 96" x1="417.15" y1="-16.39" x2="417.15" y2="409.09" xlink:href="#Dégradé_sans_nom_96"/>
    <linearGradient id="Dégradé_sans_nom_96-61" data-name="Dégradé sans nom 96" x1="407.56" y1="-16.39" x2="407.56" y2="409.09" xlink:href="#Dégradé_sans_nom_96"/>
    <linearGradient id="Dégradé_sans_nom_96-62" data-name="Dégradé sans nom 96" x1="407.11" y1="-16.39" x2="407.11" y2="409.09" xlink:href="#Dégradé_sans_nom_96"/>
    <linearGradient id="Dégradé_sans_nom_96-63" data-name="Dégradé sans nom 96" x1="388.29" y1="-16.39" x2="388.29" y2="409.09" xlink:href="#Dégradé_sans_nom_96"/>
    <linearGradient id="Dégradé_sans_nom_96-64" data-name="Dégradé sans nom 96" x1="412.03" y1="-16.39" x2="412.03" y2="409.09" xlink:href="#Dégradé_sans_nom_96"/>
    <linearGradient id="Dégradé_sans_nom_96-65" data-name="Dégradé sans nom 96" x1="384.47" y1="-16.39" x2="384.47" y2="409.09" xlink:href="#Dégradé_sans_nom_96"/>
    <linearGradient id="Dégradé_sans_nom_96-66" data-name="Dégradé sans nom 96" x1="348.12" y1="-16.39" x2="348.12" y2="409.09" xlink:href="#Dégradé_sans_nom_96"/>
    <linearGradient id="Dégradé_sans_nom_96-67" data-name="Dégradé sans nom 96" x1="432.79" y1="-16.39" x2="432.79" y2="409.09" xlink:href="#Dégradé_sans_nom_96"/>
    <linearGradient id="Dégradé_sans_nom_96-68" data-name="Dégradé sans nom 96" x1="432.82" y1="-16.39" x2="432.82" y2="409.09" xlink:href="#Dégradé_sans_nom_96"/>
    <linearGradient id="Dégradé_sans_nom_96-69" data-name="Dégradé sans nom 96" x1="440.17" y1="-16.39" x2="440.17" y2="409.09" xlink:href="#Dégradé_sans_nom_96"/>
    <linearGradient id="Dégradé_sans_nom_96-70" data-name="Dégradé sans nom 96" x1="426.64" y1="-16.39" x2="426.64" y2="409.09" xlink:href="#Dégradé_sans_nom_96"/>
    <linearGradient id="Dégradé_sans_nom_96-71" data-name="Dégradé sans nom 96" x1="410.98" y1="-16.39" x2="410.98" y2="409.09" xlink:href="#Dégradé_sans_nom_96"/>
    <linearGradient id="Dégradé_sans_nom_96-72" data-name="Dégradé sans nom 96" x1="449.44" y1="-16.39" x2="449.44" y2="409.09" xlink:href="#Dégradé_sans_nom_96"/>
    <linearGradient id="Dégradé_sans_nom_96-73" data-name="Dégradé sans nom 96" x1="468.79" y1="-16.39" x2="468.79" y2="409.09" xlink:href="#Dégradé_sans_nom_96"/>
    <linearGradient id="Dégradé_sans_nom_96-74" data-name="Dégradé sans nom 96" x1="460.74" y1="-16.39" x2="460.74" y2="409.09" xlink:href="#Dégradé_sans_nom_96"/>
    <linearGradient id="Dégradé_sans_nom_96-75" data-name="Dégradé sans nom 96" x1="466.84" y1="-16.39" x2="466.84" y2="409.09" xlink:href="#Dégradé_sans_nom_96"/>
    <linearGradient id="Dégradé_sans_nom_96-76" data-name="Dégradé sans nom 96" x1="460.63" y1="-16.39" x2="460.63" y2="409.09" xlink:href="#Dégradé_sans_nom_96"/>
    <linearGradient id="Dégradé_sans_nom_96-77" data-name="Dégradé sans nom 96" x1="459.09" y1="-16.39" x2="459.09" y2="409.09" xlink:href="#Dégradé_sans_nom_96"/>
    <linearGradient id="Dégradé_sans_nom_96-78" data-name="Dégradé sans nom 96" x1="509.73" y1="-16.39" x2="509.73" y2="409.09" xlink:href="#Dégradé_sans_nom_96"/>
    <linearGradient id="Dégradé_sans_nom_96-79" data-name="Dégradé sans nom 96" x1="484.73" y1="-16.39" x2="484.73" y2="409.09" xlink:href="#Dégradé_sans_nom_96"/>
    <linearGradient id="Dégradé_sans_nom_96-80" data-name="Dégradé sans nom 96" x1="503.3" y1="-16.39" x2="503.3" y2="409.09" xlink:href="#Dégradé_sans_nom_96"/>
    <linearGradient id="Dégradé_sans_nom_96-81" data-name="Dégradé sans nom 96" x1="499.76" y1="-16.39" x2="499.76" y2="409.09" xlink:href="#Dégradé_sans_nom_96"/>
    <linearGradient id="Dégradé_sans_nom_96-82" data-name="Dégradé sans nom 96" x1="476.07" y1="-16.39" x2="476.07" y2="409.09" xlink:href="#Dégradé_sans_nom_96"/>
    <linearGradient id="Dégradé_sans_nom_96-83" data-name="Dégradé sans nom 96" x1="488.74" y1="-16.39" x2="488.74" y2="409.09" xlink:href="#Dégradé_sans_nom_96"/>
    <linearGradient id="Dégradé_sans_nom_96-84" data-name="Dégradé sans nom 96" x1="497.34" y1="-16.39" x2="497.34" y2="409.09" xlink:href="#Dégradé_sans_nom_96"/>
    <linearGradient id="Dégradé_sans_nom_96-85" data-name="Dégradé sans nom 96" x1="466.39" y1="-16.39" x2="466.39" y2="409.09" xlink:href="#Dégradé_sans_nom_96"/>
    <linearGradient id="Dégradé_sans_nom_96-86" data-name="Dégradé sans nom 96" x1="509.52" y1="-16.39" x2="509.52" y2="409.09" xlink:href="#Dégradé_sans_nom_96"/>
    <linearGradient id="Dégradé_sans_nom_96-87" data-name="Dégradé sans nom 96" x1="538.43" y1="-16.39" x2="538.43" y2="409.09" xlink:href="#Dégradé_sans_nom_96"/>
    <linearGradient id="Dégradé_sans_nom_96-88" data-name="Dégradé sans nom 96" x1="522.58" y1="-16.39" x2="522.58" y2="409.09" xlink:href="#Dégradé_sans_nom_96"/>
    <linearGradient id="Dégradé_sans_nom_96-89" data-name="Dégradé sans nom 96" x1="541.93" y1="-16.39" x2="541.93" y2="409.09" xlink:href="#Dégradé_sans_nom_96"/>
    <linearGradient id="Dégradé_sans_nom_96-90" data-name="Dégradé sans nom 96" x1="535.95" y1="-16.39" x2="535.95" y2="409.09" xlink:href="#Dégradé_sans_nom_96"/>
    <linearGradient id="Dégradé_sans_nom_96-91" data-name="Dégradé sans nom 96" x1="507.26" y1="-16.39" x2="507.26" y2="409.09" xlink:href="#Dégradé_sans_nom_96"/>
    <linearGradient id="Dégradé_sans_nom_96-92" data-name="Dégradé sans nom 96" x1="553.65" y1="-16.39" x2="553.65" y2="409.09" xlink:href="#Dégradé_sans_nom_96"/>
    <linearGradient id="Dégradé_sans_nom_96-93" data-name="Dégradé sans nom 96" x1="880.82" y1="-16.39" x2="880.82" y2="409.09" xlink:href="#Dégradé_sans_nom_96"/>
    <linearGradient id="Dégradé_sans_nom_96-94" data-name="Dégradé sans nom 96" x1="888.23" y1="-16.39" x2="888.23" y2="409.09" xlink:href="#Dégradé_sans_nom_96"/>
    <linearGradient id="Dégradé_sans_nom_96-95" data-name="Dégradé sans nom 96" x1="923.84" y1="-16.39" x2="923.84" y2="409.09" xlink:href="#Dégradé_sans_nom_96"/>
    <linearGradient id="Dégradé_sans_nom_96-96" data-name="Dégradé sans nom 96" x1="924.63" y1="-16.39" x2="924.63" y2="409.09" xlink:href="#Dégradé_sans_nom_96"/>
    <linearGradient id="Dégradé_sans_nom_96-97" data-name="Dégradé sans nom 96" x1="877.65" y1="-16.39" x2="877.65" y2="409.09" xlink:href="#Dégradé_sans_nom_96"/>
    <linearGradient id="Dégradé_sans_nom_96-98" data-name="Dégradé sans nom 96" x1="885.3" y1="-16.39" x2="885.3" y2="409.09" xlink:href="#Dégradé_sans_nom_96"/>
    <linearGradient id="Dégradé_sans_nom_96-99" data-name="Dégradé sans nom 96" x1="902.47" y1="-16.39" x2="902.47" y2="409.09" xlink:href="#Dégradé_sans_nom_96"/>
    <linearGradient id="Dégradé_sans_nom_96-100" data-name="Dégradé sans nom 96" x1="869.64" y1="-16.39" x2="869.64" y2="409.09" xlink:href="#Dégradé_sans_nom_96"/>
    <linearGradient id="Dégradé_sans_nom_96-101" data-name="Dégradé sans nom 96" x1="856.24" y1="-16.39" x2="856.24" y2="409.09" xlink:href="#Dégradé_sans_nom_96"/>
    <linearGradient id="Dégradé_sans_nom_96-102" data-name="Dégradé sans nom 96" x1="851.35" y1="-16.39" x2="851.35" y2="409.09" xlink:href="#Dégradé_sans_nom_96"/>
    <linearGradient id="Dégradé_sans_nom_96-103" data-name="Dégradé sans nom 96" x1="840.49" y1="-16.39" x2="840.49" y2="409.09" xlink:href="#Dégradé_sans_nom_96"/>
    <linearGradient id="Dégradé_sans_nom_96-104" data-name="Dégradé sans nom 96" x1="1056.25" y1="-16.39" x2="1056.25" y2="409.09" xlink:href="#Dégradé_sans_nom_96"/>
    <linearGradient id="Dégradé_sans_nom_96-105" data-name="Dégradé sans nom 96" x1="1020.93" y1="-16.39" x2="1020.93" y2="409.09" xlink:href="#Dégradé_sans_nom_96"/>
    <linearGradient id="Dégradé_sans_nom_96-106" data-name="Dégradé sans nom 96" x1="1062.1" y1="-16.39" x2="1062.1" y2="409.09" xlink:href="#Dégradé_sans_nom_96"/>
    <linearGradient id="Dégradé_sans_nom_96-107" data-name="Dégradé sans nom 96" x1="1047.05" y1="-16.39" x2="1047.05" y2="409.09" xlink:href="#Dégradé_sans_nom_96"/>
    <linearGradient id="Dégradé_sans_nom_96-108" data-name="Dégradé sans nom 96" x1="1033.82" y1="-16.39" x2="1033.82" y2="409.09" xlink:href="#Dégradé_sans_nom_96"/>
    <linearGradient id="Dégradé_sans_nom_96-109" data-name="Dégradé sans nom 96" x1="1003.32" y1="-16.39" x2="1003.32" y2="409.09" xlink:href="#Dégradé_sans_nom_96"/>
    <linearGradient id="Dégradé_sans_nom_96-110" data-name="Dégradé sans nom 96" x1="966.04" y1="-16.39" x2="966.04" y2="409.09" xlink:href="#Dégradé_sans_nom_96"/>
    <linearGradient id="Dégradé_sans_nom_96-111" data-name="Dégradé sans nom 96" x1="1023.79" y1="-16.39" x2="1023.79" y2="409.09" xlink:href="#Dégradé_sans_nom_96"/>
    <linearGradient id="Dégradé_sans_nom_96-112" data-name="Dégradé sans nom 96" x1="985.07" y1="-16.39" x2="985.07" y2="409.09" xlink:href="#Dégradé_sans_nom_96"/>
    <linearGradient id="Dégradé_sans_nom_96-113" data-name="Dégradé sans nom 96" x1="950.39" y1="-16.39" x2="950.39" y2="409.09" xlink:href="#Dégradé_sans_nom_96"/>
    <linearGradient id="Dégradé_sans_nom_96-114" data-name="Dégradé sans nom 96" x1="964.82" y1="-16.39" x2="964.82" y2="409.09" xlink:href="#Dégradé_sans_nom_96"/>
    <linearGradient id="Dégradé_sans_nom_96-115" data-name="Dégradé sans nom 96" x1="924" y1="-16.39" x2="924" y2="409.09" xlink:href="#Dégradé_sans_nom_96"/>
    <linearGradient id="Dégradé_sans_nom_96-116" data-name="Dégradé sans nom 96" x1="924.85" y1="-16.39" x2="924.85" y2="409.09" xlink:href="#Dégradé_sans_nom_96"/>
    <linearGradient id="Dégradé_sans_nom_96-117" data-name="Dégradé sans nom 96" x1="906.53" y1="-16.39" x2="906.53" y2="409.09" xlink:href="#Dégradé_sans_nom_96"/>
    <linearGradient id="Dégradé_sans_nom_96-118" data-name="Dégradé sans nom 96" x1="997" y1="-16.39" x2="997" y2="409.09" xlink:href="#Dégradé_sans_nom_96"/>
    <linearGradient id="Dégradé_sans_nom_96-119" data-name="Dégradé sans nom 96" x1="850.93" y1="-16.39" x2="850.93" y2="409.09" xlink:href="#Dégradé_sans_nom_96"/>
    <linearGradient id="Dégradé_sans_nom_96-120" data-name="Dégradé sans nom 96" x1="849.43" y1="-16.39" x2="849.43" y2="409.09" xlink:href="#Dégradé_sans_nom_96"/>
    <linearGradient id="Dégradé_sans_nom_96-121" data-name="Dégradé sans nom 96" x1="821.17" y1="-16.39" x2="821.17" y2="409.09" xlink:href="#Dégradé_sans_nom_96"/>
    <linearGradient id="Dégradé_sans_nom_96-122" data-name="Dégradé sans nom 96" x1="809.48" y1="-16.39" x2="809.48" y2="409.09" xlink:href="#Dégradé_sans_nom_96"/>
    <linearGradient id="Dégradé_sans_nom_96-123" data-name="Dégradé sans nom 96" x1="818.84" y1="-16.39" x2="818.84" y2="409.09" xlink:href="#Dégradé_sans_nom_96"/>
    <linearGradient id="Dégradé_sans_nom_96-124" data-name="Dégradé sans nom 96" x1="816.63" y1="-16.39" x2="816.63" y2="409.09" xlink:href="#Dégradé_sans_nom_96"/>
    <linearGradient id="Dégradé_sans_nom_96-125" data-name="Dégradé sans nom 96" x1="785.52" y1="-16.39" x2="785.52" y2="409.09" xlink:href="#Dégradé_sans_nom_96"/>
    <linearGradient id="Dégradé_sans_nom_96-126" data-name="Dégradé sans nom 96" x1="788.83" y1="-16.39" x2="788.83" y2="409.09" xlink:href="#Dégradé_sans_nom_96"/>
    <linearGradient id="Dégradé_sans_nom_96-127" data-name="Dégradé sans nom 96" x1="841.09" y1="-16.39" x2="841.09" y2="409.09" xlink:href="#Dégradé_sans_nom_96"/>
    <linearGradient id="Dégradé_sans_nom_96-128" data-name="Dégradé sans nom 96" x1="821.11" y1="-16.39" x2="821.11" y2="409.09" xlink:href="#Dégradé_sans_nom_96"/>
    <linearGradient id="Dégradé_sans_nom_96-129" data-name="Dégradé sans nom 96" x1="797.89" y1="-16.39" x2="797.89" y2="409.09" xlink:href="#Dégradé_sans_nom_96"/>
    <linearGradient id="Dégradé_sans_nom_96-130" data-name="Dégradé sans nom 96" x1="771.29" y1="-16.39" x2="771.29" y2="409.09" xlink:href="#Dégradé_sans_nom_96"/>
    <linearGradient id="Dégradé_sans_nom_96-131" data-name="Dégradé sans nom 96" x1="748.84" y1="-16.39" x2="748.84" y2="409.09" xlink:href="#Dégradé_sans_nom_96"/>
    <linearGradient id="Dégradé_sans_nom_96-132" data-name="Dégradé sans nom 96" x1="705.35" y1="-16.39" x2="705.35" y2="409.09" xlink:href="#Dégradé_sans_nom_96"/>
    <linearGradient id="Dégradé_sans_nom_96-133" data-name="Dégradé sans nom 96" x1="760.81" y1="-16.39" x2="760.81" y2="409.09" xlink:href="#Dégradé_sans_nom_96"/>
    <linearGradient id="Dégradé_sans_nom_96-134" data-name="Dégradé sans nom 96" x1="787.93" y1="-16.39" x2="787.93" y2="409.09" xlink:href="#Dégradé_sans_nom_96"/>
    <linearGradient id="Dégradé_sans_nom_96-135" data-name="Dégradé sans nom 96" x1="836.72" y1="-16.39" x2="836.72" y2="409.09" xlink:href="#Dégradé_sans_nom_96"/>
    <linearGradient id="Dégradé_sans_nom_96-136" data-name="Dégradé sans nom 96" x1="810.13" y1="-16.39" x2="810.13" y2="409.09" xlink:href="#Dégradé_sans_nom_96"/>
    <linearGradient id="Dégradé_sans_nom_96-137" data-name="Dégradé sans nom 96" x1="783.99" y1="-16.39" x2="783.99" y2="409.09" xlink:href="#Dégradé_sans_nom_96"/>
    <linearGradient id="Dégradé_sans_nom_96-138" data-name="Dégradé sans nom 96" x1="761.75" y1="-16.39" x2="761.75" y2="409.09" xlink:href="#Dégradé_sans_nom_96"/>
    <linearGradient id="Dégradé_sans_nom_96-139" data-name="Dégradé sans nom 96" x1="749.02" y1="-16.39" x2="749.02" y2="409.09" xlink:href="#Dégradé_sans_nom_96"/>
    <linearGradient id="Dégradé_sans_nom_96-140" data-name="Dégradé sans nom 96" x1="743.73" y1="-16.39" x2="743.73" y2="409.09" xlink:href="#Dégradé_sans_nom_96"/>
    <linearGradient id="Dégradé_sans_nom_96-141" data-name="Dégradé sans nom 96" x1="701.72" y1="-16.39" x2="701.72" y2="409.09" xlink:href="#Dégradé_sans_nom_96"/>
    <linearGradient id="Dégradé_sans_nom_96-142" data-name="Dégradé sans nom 96" x1="719.69" y1="-16.39" x2="719.69" y2="409.09" xlink:href="#Dégradé_sans_nom_96"/>
    <linearGradient id="Dégradé_sans_nom_96-143" data-name="Dégradé sans nom 96" x1="708.15" y1="-16.4" x2="708.15" y2="409.07" xlink:href="#Dégradé_sans_nom_96"/>
    <linearGradient id="Dégradé_sans_nom_96-144" data-name="Dégradé sans nom 96" x1="726.3" y1="-16.39" x2="726.3" y2="409.09" xlink:href="#Dégradé_sans_nom_96"/>
    <linearGradient id="Dégradé_sans_nom_96-145" data-name="Dégradé sans nom 96" x1="752.66" y1="-16.39" x2="752.66" y2="409.09" xlink:href="#Dégradé_sans_nom_96"/>
    <linearGradient id="Dégradé_sans_nom_96-146" data-name="Dégradé sans nom 96" x1="797.93" y1="-16.39" x2="797.93" y2="409.09" xlink:href="#Dégradé_sans_nom_96"/>
    <linearGradient id="Dégradé_sans_nom_96-147" data-name="Dégradé sans nom 96" x1="771.7" y1="-16.39" x2="771.7" y2="409.09" xlink:href="#Dégradé_sans_nom_96"/>
    <linearGradient id="Dégradé_sans_nom_96-148" data-name="Dégradé sans nom 96" x1="733.7" y1="-16.39" x2="733.7" y2="409.09" xlink:href="#Dégradé_sans_nom_96"/>
    <linearGradient id="Dégradé_sans_nom_96-149" data-name="Dégradé sans nom 96" x1="707.82" y1="-16.39" x2="707.82" y2="409.09" xlink:href="#Dégradé_sans_nom_96"/>
    <linearGradient id="Dégradé_sans_nom_96-150" data-name="Dégradé sans nom 96" x1="703.46" y1="-16.39" x2="703.46" y2="409.09" xlink:href="#Dégradé_sans_nom_96"/>
    <linearGradient id="Dégradé_sans_nom_96-151" data-name="Dégradé sans nom 96" x1="675.38" y1="-16.39" x2="675.38" y2="409.09" xlink:href="#Dégradé_sans_nom_96"/>
    <linearGradient id="Dégradé_sans_nom_96-152" data-name="Dégradé sans nom 96" x1="656.97" y1="-16.39" x2="656.97" y2="409.09" xlink:href="#Dégradé_sans_nom_96"/>
    <linearGradient id="Dégradé_sans_nom_96-153" data-name="Dégradé sans nom 96" x1="666.56" y1="-16.39" x2="666.56" y2="409.09" xlink:href="#Dégradé_sans_nom_96"/>
    <linearGradient id="Dégradé_sans_nom_96-154" data-name="Dégradé sans nom 96" x1="667" y1="-16.39" x2="667" y2="409.09" xlink:href="#Dégradé_sans_nom_96"/>
    <linearGradient id="Dégradé_sans_nom_96-155" data-name="Dégradé sans nom 96" x1="685.83" y1="-16.39" x2="685.83" y2="409.09" xlink:href="#Dégradé_sans_nom_96"/>
    <linearGradient id="Dégradé_sans_nom_96-156" data-name="Dégradé sans nom 96" x1="662.09" y1="-16.39" x2="662.09" y2="409.09" xlink:href="#Dégradé_sans_nom_96"/>
    <linearGradient id="Dégradé_sans_nom_96-157" data-name="Dégradé sans nom 96" x1="689.65" y1="-16.39" x2="689.65" y2="409.09" xlink:href="#Dégradé_sans_nom_96"/>
    <linearGradient id="Dégradé_sans_nom_96-158" data-name="Dégradé sans nom 96" x1="725.99" y1="-16.39" x2="725.99" y2="409.09" xlink:href="#Dégradé_sans_nom_96"/>
    <linearGradient id="Dégradé_sans_nom_96-159" data-name="Dégradé sans nom 96" x1="641.33" y1="-16.39" x2="641.33" y2="409.09" xlink:href="#Dégradé_sans_nom_96"/>
    <linearGradient id="Dégradé_sans_nom_96-160" data-name="Dégradé sans nom 96" x1="641.3" y1="-16.39" x2="641.3" y2="409.09" xlink:href="#Dégradé_sans_nom_96"/>
    <linearGradient id="Dégradé_sans_nom_96-161" data-name="Dégradé sans nom 96" x1="633.95" y1="-16.39" x2="633.95" y2="409.06" xlink:href="#Dégradé_sans_nom_96"/>
    <linearGradient id="Dégradé_sans_nom_96-162" data-name="Dégradé sans nom 96" x1="647.48" y1="-16.39" x2="647.48" y2="409.09" xlink:href="#Dégradé_sans_nom_96"/>
    <linearGradient id="Dégradé_sans_nom_96-163" data-name="Dégradé sans nom 96" x1="663.13" y1="-16.39" x2="663.13" y2="409.09" xlink:href="#Dégradé_sans_nom_96"/>
    <linearGradient id="Dégradé_sans_nom_96-164" data-name="Dégradé sans nom 96" x1="624.68" y1="-16.39" x2="624.68" y2="409.09" xlink:href="#Dégradé_sans_nom_96"/>
    <linearGradient id="Dégradé_sans_nom_96-165" data-name="Dégradé sans nom 96" x1="605.33" y1="-16.39" x2="605.33" y2="409.09" xlink:href="#Dégradé_sans_nom_96"/>
    <linearGradient id="Dégradé_sans_nom_96-166" data-name="Dégradé sans nom 96" x1="613.38" y1="-16.39" x2="613.38" y2="409.09" xlink:href="#Dégradé_sans_nom_96"/>
    <linearGradient id="Dégradé_sans_nom_96-167" data-name="Dégradé sans nom 96" x1="607.28" y1="-16.39" x2="607.28" y2="409.09" xlink:href="#Dégradé_sans_nom_96"/>
    <linearGradient id="Dégradé_sans_nom_96-168" data-name="Dégradé sans nom 96" x1="613.48" y1="-16.39" x2="613.48" y2="409.09" xlink:href="#Dégradé_sans_nom_96"/>
    <linearGradient id="Dégradé_sans_nom_96-169" data-name="Dégradé sans nom 96" x1="615.02" y1="-16.39" x2="615.02" y2="409.09" xlink:href="#Dégradé_sans_nom_96"/>
    <linearGradient id="Dégradé_sans_nom_96-170" data-name="Dégradé sans nom 96" x1="564.39" y1="-16.39" x2="564.39" y2="409.09" xlink:href="#Dégradé_sans_nom_96"/>
    <linearGradient id="Dégradé_sans_nom_96-171" data-name="Dégradé sans nom 96" x1="589.39" y1="-16.39" x2="589.39" y2="409.09" xlink:href="#Dégradé_sans_nom_96"/>
    <linearGradient id="Dégradé_sans_nom_96-172" data-name="Dégradé sans nom 96" x1="570.82" y1="-16.39" x2="570.82" y2="409.09" xlink:href="#Dégradé_sans_nom_96"/>
    <linearGradient id="Dégradé_sans_nom_96-173" data-name="Dégradé sans nom 96" x1="574.35" y1="-16.39" x2="574.35" y2="409.09" xlink:href="#Dégradé_sans_nom_96"/>
    <linearGradient id="Dégradé_sans_nom_96-174" data-name="Dégradé sans nom 96" x1="598.05" y1="-16.39" x2="598.05" y2="409.09" xlink:href="#Dégradé_sans_nom_96"/>
    <linearGradient id="Dégradé_sans_nom_96-175" data-name="Dégradé sans nom 96" x1="585.38" y1="-16.39" x2="585.38" y2="409.09" xlink:href="#Dégradé_sans_nom_96"/>
    <linearGradient id="Dégradé_sans_nom_96-176" data-name="Dégradé sans nom 96" x1="576.78" y1="-16.39" x2="576.78" y2="409.09" xlink:href="#Dégradé_sans_nom_96"/>
    <linearGradient id="Dégradé_sans_nom_96-177" data-name="Dégradé sans nom 96" x1="607.72" y1="-16.39" x2="607.72" y2="409.09" xlink:href="#Dégradé_sans_nom_96"/>
    <linearGradient id="Dégradé_sans_nom_96-178" data-name="Dégradé sans nom 96" x1="564.6" y1="-16.39" x2="564.6" y2="409.09" xlink:href="#Dégradé_sans_nom_96"/>
    <linearGradient id="Dégradé_sans_nom_96-179" data-name="Dégradé sans nom 96" x1="536.68" y1="-16.39" x2="536.68" y2="409.09" xlink:href="#Dégradé_sans_nom_96"/>
    <linearGradient id="Dégradé_sans_nom_96-180" data-name="Dégradé sans nom 96" x1="534.18" y1="-16.39" x2="534.18" y2="409.09" xlink:href="#Dégradé_sans_nom_96"/>
    <linearGradient id="Dégradé_sans_nom_96-181" data-name="Dégradé sans nom 96" x1="554.95" y1="-16.39" x2="554.95" y2="409.09" xlink:href="#Dégradé_sans_nom_96"/>
    <linearGradient id="Dégradé_sans_nom_96-182" data-name="Dégradé sans nom 96" x1="628.61" y1="-16.39" x2="628.61" y2="409.09" xlink:href="#Dégradé_sans_nom_96"/>
    <linearGradient id="Dégradé_sans_nom_96-183" data-name="Dégradé sans nom 96" x1="573.14" y1="-16.39" x2="573.14" y2="409.09" xlink:href="#Dégradé_sans_nom_96"/>
    <linearGradient id="Dégradé_sans_nom_96-184" data-name="Dégradé sans nom 96" x1="596.24" y1="-16.39" x2="596.24" y2="409.09" xlink:href="#Dégradé_sans_nom_96"/>
    <linearGradient id="Dégradé_sans_nom_96-185" data-name="Dégradé sans nom 96" x1="546.96" y1="-16.39" x2="546.96" y2="409.09" xlink:href="#Dégradé_sans_nom_96"/>
    <linearGradient id="Dégradé_sans_nom_96-186" data-name="Dégradé sans nom 96" x1="534.22" y1="-16.39" x2="534.22" y2="409.09" xlink:href="#Dégradé_sans_nom_96"/>
    <linearGradient id="Dégradé_sans_nom_96-187" data-name="Dégradé sans nom 96" x1="520.89" y1="-16.39" x2="520.89" y2="409.09" xlink:href="#Dégradé_sans_nom_96"/>
  </defs>
  <g id="Base">
    <g id="Tree_Top">
      <g id="Branches">
        <path class="cls-40" d="M575.61,366.71c8.19-8.99,15.72-18.55,22.51-28.6,6.83-10.01,12.96-20.51,17.75-31.59,4.73-11.07,8.32-22.73,9.02-34.68.15-2.98.18-5.96-.02-8.92-.22-2.96-.64-5.91-1.26-8.81-.65-2.89-1.53-5.73-2.6-8.49-1.09-2.75-2.43-5.4-3.92-7.96-1.53-2.53-3.22-4.98-5.09-7.29-.94-1.16-1.93-2.24-2.92-3.4l-3.03-3.48c-1.03-1.14-1.96-2.36-2.91-3.57-.93-1.22-1.92-2.4-2.81-3.65-1.77-2.52-3.58-5-5.15-7.65-1.69-2.57-3.11-5.3-4.62-7.98-1.36-2.76-2.78-5.48-3.96-8.32-2.47-5.62-4.54-11.42-6.1-17.36-6.34-23.68-6.5-48.98-.15-72.47-2.69,11.86-3.61,24.06-3.21,36.14.34,12.09,2.18,24.13,5.58,35.7,1.68,5.79,3.83,11.43,6.28,16.92,1.18,2.77,2.62,5.42,3.97,8.1,1.51,2.6,2.93,5.25,4.61,7.75,1.57,2.56,3.35,4.99,5.08,7.44.87,1.22,1.85,2.37,2.76,3.56.93,1.18,1.84,2.37,2.86,3.48l2.97,3.39c.99,1.15,2.06,2.31,3.04,3.51,1.97,2.41,3.75,4.97,5.37,7.63,1.55,2.7,2.96,5.5,4.1,8.4,1.12,2.91,2.03,5.9,2.71,8.94.64,3.05,1.07,6.14,1.29,9.24.2,3.1.17,6.21-.04,9.3-.91,12.38-4.64,24.32-9.75,35.43-5.12,11.14-11.54,21.6-18.66,31.5-3.6,4.92-7.38,9.71-11.32,14.35-3.94,4.64-8.03,9.16-12.39,13.4Z"/>
        <path class="cls-16" d="M626.47,366.71c9.34-25.09,21.56-49.21,37.07-71.2,7.78-10.96,16.62-21.28,26.92-30.09,2.57-2.2,5.26-4.28,8.05-6.21,2.79-1.93,5.67-3.75,8.69-5.34,3.01-1.6,6.12-3.03,9.33-4.22,3.22-1.16,6.53-2.09,9.9-2.74,3.37-.66,6.81-.95,10.25-.97h5.03s2.49.03,2.49.03l2.49-.07c6.63-.17,13.25-.75,19.79-1.82,13.08-2.07,25.88-6.04,37.68-12.08,11.75-6.05,22.52-14.33,30.49-24.95,2.04-2.61,3.81-5.42,5.47-8.3.74-1.48,1.59-2.91,2.22-4.45l1.01-2.28.87-2.34.43-1.17.36-1.19.71-2.39.56-2.43.28-1.22.2-1.23.4-2.47.23-2.49.11-1.25.03-1.25.05-2.51c.33,6.68-.46,13.48-2.61,19.87l-.8,2.4-.95,2.34c-.59,1.58-1.4,3.06-2.11,4.6-1.58,2.98-3.29,5.91-5.28,8.64-7.89,11.02-18.73,19.69-30.6,26.12-11.9,6.47-24.99,10.55-38.3,12.84-6.66,1.15-13.41,1.74-20.16,1.94l-2.53.08h-2.53s-5.01,0-5.01,0c-3.25.03-6.51.32-9.71.95-3.2.61-6.36,1.48-9.44,2.58-3.07,1.12-6.06,2.49-8.97,4.02-2.91,1.52-5.71,3.27-8.42,5.14-2.72,1.86-5.34,3.88-7.88,6-10.18,8.48-18.91,18.62-26.88,29.27-7.94,10.7-14.99,22.07-21.42,33.77-6.49,11.68-12.33,23.73-17.51,36.07Z"/>
        <path class="cls-67" d="M691.72,366.26c24.74-10.7,51.08-17.59,77.8-21.51,26.73-3.88,54.14-4.13,80.87.5,1.68.25,3.34.59,4.99.95l4.98,1.03c3.29.78,6.6,1.63,9.86,2.45,3.25.8,6.47,1.72,9.75,2.38l4.9,1.07,4.93.92c3.28.67,6.6,1.07,9.9,1.6l4.98.59,2.49.29,2.5.21c6.66.62,13.36.83,20.04.79,13.38-.09,26.76-1.73,39.78-4.94,6.52-1.56,12.93-3.59,19.18-6.03,3.12-1.24,6.2-2.58,9.21-4.07,3.01-1.48,5.99-3.06,8.8-4.92-5.48,3.93-11.53,7.02-17.71,9.72-6.2,2.67-12.59,4.93-19.11,6.72-13.06,3.52-26.56,5.45-40.1,5.82-6.77.2-13.56.1-20.31-.48l-2.53-.18-2.53-.27-5.05-.55c-3.35-.5-6.72-.88-10.05-1.52l-5-.89-4.97-1.07c-3.32-.66-6.58-1.58-9.88-2.38-3.27-.81-6.49-1.62-9.75-2.39l-4.91-1-2.46-.5c-.82-.16-1.65-.28-2.47-.42-13.17-2.29-26.55-3.5-39.94-3.56l-5.02-.02c-1.67,0-3.35.07-5.02.1-3.35.04-6.69.26-10.04.43-6.68.47-13.37,1.01-20.02,1.87-13.32,1.62-26.53,4.16-39.58,7.35-13.06,3.17-25.96,7.04-38.53,11.88Z"/>
        <path class="cls-158" d="M500.86,366.71c1.49-13.23,1.92-26.57,1.27-39.83-.6-13.25-2.25-26.49-5.67-39.26-3.44-12.72-8.51-25.12-16.34-35.63l-3.06-3.82c-1.08-1.22-2.21-2.4-3.31-3.61-2.32-2.29-4.72-4.48-7.31-6.54-5.12-4.16-10.51-8.01-16.02-11.67-11.01-7.38-22.57-13.98-33.96-20.91-11.37-6.94-22.71-14.14-33.04-22.71-10.35-8.49-19.66-18.49-26.46-30.08-3.35-5.81-6.16-11.94-8.16-18.32-2.02-6.38-3.34-12.94-4.12-19.56,1.1,6.57,2.68,13.04,4.87,19.3,2.19,6.26,5.17,12.22,8.66,17.82,6.95,11.26,16.27,20.89,26.65,29.05,10.4,8.18,21.62,15.3,33.05,22.07,11.4,6.84,23,13.43,34.15,20.85,5.56,3.72,11.01,7.65,16.21,11.9,2.61,2.09,5.13,4.39,7.54,6.79,1.14,1.26,2.31,2.49,3.43,3.77l3.15,4c7.98,11,13.12,23.74,16.29,36.75,3.2,13.05,4.6,26.43,4.9,39.78.11,6.68-.08,13.36-.51,20.01-.43,6.65-1.12,13.3-2.22,19.86Z"/>
        <path class="cls-50" d="M431.4,366.71c-7.13-10.2-14.76-20.03-22.89-29.42-8.06-9.44-16.61-18.47-25.8-26.76-9.19-8.28-19.01-15.91-29.73-21.93-5.36-3.01-10.97-5.53-16.79-7.35-5.75-1.73-12.04-2.9-18.03-4.73-12.02-3.61-23.65-8.49-34.66-14.45-11-5.99-21.51-12.85-31.35-20.57-9.85-7.7-19.12-16.12-27.67-25.21-8.47-9.16-16.33-18.91-22.99-29.44,7.22,10.14,15.27,19.65,24.05,28.42,8.71,8.83,18.09,16.99,28.01,24.4,9.94,7.38,20.34,14.14,31.28,19.9,10.91,5.81,22.37,10.58,34.18,14.08,5.9,1.83,11.89,2.94,18.05,4.81,6.05,1.92,11.85,4.53,17.3,7.67,5.47,3.13,10.66,6.69,15.64,10.5,1.23.97,2.49,1.91,3.69,2.91l3.61,3c2.35,2.07,4.69,4.14,6.96,6.3,18.15,17.21,33.8,36.87,47.14,57.87Z"/>
        <path class="cls-149" d="M353.86,362.5c-12.92-2.47-25.86-4.76-38.84-6.76-12.97-2.08-25.97-3.96-39.01-5.52-13.04-1.54-26.09-2.95-39.17-3.89-13.08-.98-26.18-1.6-39.28-1.51-3.27.03-6.55.02-9.81.17l-4.9.17-4.89.31c-3.27.15-6.51.54-9.76.84-1.63.14-3.23.42-4.85.62-1.61.25-3.24.38-4.84.7-6.44,1.02-12.75,2.56-18.93,4.54l-9.49,2.9c-1.57.52-3.19.87-4.81,1.24l-4.84,1.11c-12.93,2.77-26.26,4-39.46,2.86-6.58-.75-13.11-1.94-19.41-3.93-6.28-2.01-12.4-4.71-17.71-8.62,1.35.93,2.77,1.77,4.23,2.52.74.36,1.45.77,2.2,1.1l2.25.99c1.49.67,3.05,1.19,4.57,1.78,1.55.52,3.12.98,4.68,1.47,6.31,1.75,12.8,2.71,19.3,3.22,13.04.83,26.15-.64,38.84-3.64l4.75-1.2c1.58-.39,3.17-.77,4.71-1.32l9.33-2.97c6.31-2.11,12.78-3.76,19.32-4.86,1.63-.35,3.28-.5,4.91-.75,1.64-.21,3.28-.5,4.93-.64,3.29-.31,6.58-.71,9.88-.88l4.95-.33,4.95-.19c3.3-.16,6.6-.16,9.9-.2,26.41-.04,52.7,2.49,78.76,6.12,13.03,1.84,26.02,3.97,38.96,6.35,6.46,1.23,12.91,2.51,19.35,3.86,6.44,1.34,12.86,2.77,19.25,4.34Z"/>
        <path class="cls-44" d="M761.87,245.9c-3.74-1.89-7.3-4.15-10.73-6.57-3.43-2.42-6.75-5.02-9.95-7.76-3.18-2.76-6.23-5.67-9.14-8.73-2.9-3.06-5.64-6.28-8.26-9.6-2.57-3.35-5.06-6.78-7.27-10.38-1.16-1.77-2.17-3.63-3.26-5.45-.98-1.87-2.06-3.7-2.96-5.62-3.74-7.6-6.73-15.57-8.92-23.75-.48-2.06-1-4.12-1.44-6.19l-1.18-6.22c-.72-4.1-1.53-8.17-2.48-12.22-1.87-8.1-4.31-16.06-7.44-23.74-3.14-7.67-6.99-15.09-11.86-21.82-2.4-3.39-5.11-6.56-8.07-9.48-1.49-1.45-3.06-2.82-4.71-4.09-1.65-1.27-3.36-2.48-5.24-3.41,3.87,1.64,7.31,4.18,10.49,6.92,3.15,2.79,6.07,5.87,8.7,9.18,5.24,6.64,9.45,14.05,12.84,21.79,3.44,7.73,5.99,15.81,8.05,23.99,1.04,4.09,1.86,8.23,2.62,12.38l1.19,6.11c.44,2.02.96,4.03,1.44,6.04,4.21,16.02,11.53,31.18,21.37,44.55,4.95,6.66,10.45,12.94,16.52,18.65,6.02,5.75,12.57,11,19.69,15.42Z"/>
        <path class="cls-62" d="M581.68,177.58c-2.2.9-4.6,1.25-6.98,1.37l-1.79.08c-.6.02-1.19-.04-1.79-.06-1.19-.08-2.4-.05-3.58-.26l-3.56-.51c-1.18-.22-2.33-.52-3.5-.78-2.36-.46-4.6-1.28-6.89-2-9.06-3.1-17.53-7.62-25.62-12.61-2.01-1.27-3.93-2.67-5.9-4l-2.94-2.02-1.47-1.01-1.41-1.09-5.6-4.39-2.8-2.2c-.93-.73-1.79-1.55-2.69-2.33l-5.32-4.71c-1.75-1.6-3.56-3.13-5.21-4.83-3.35-3.35-6.7-6.69-9.95-10.12,3.71,2.95,7.32,5.99,10.93,9.02,1.76,1.56,3.66,2.97,5.51,4.43l5.53,4.39c1.81,1.5,3.73,2.87,5.62,4.26l5.67,4.18,1.41,1.05,1.46.98,2.92,1.96c1.95,1.29,3.87,2.66,5.85,3.89,4.01,2.4,7.95,4.96,12.14,7.03l3.09,1.66c1.02.57,2.11.98,3.17,1.48l3.19,1.45c1.05.53,2.14.92,3.23,1.33,2.18.82,4.35,1.7,6.6,2.31,1.12.33,2.23.7,3.35.99l3.42.74c1.13.3,2.3.38,3.45.56.58.07,1.16.18,1.74.21l1.75.09c2.33.11,4.7.05,6.99-.54Z"/>
        <path class="cls-189" d="M242.57,345.02c-3.72-4.23-7.81-8.1-12.11-11.67-4.3-3.58-8.84-6.84-13.6-9.74-2.37-1.46-4.83-2.76-7.29-4.04-2.5-1.21-5-2.4-7.6-3.37-5.14-2.05-10.48-3.61-15.92-4.56l-2.04-.37-2.05-.28c-1.37-.21-2.74-.31-4.12-.43l-4.24-.36c-1.43-.13-2.85-.34-4.27-.53-5.65-.97-11.28-2.46-16.43-5.1-5.16-2.57-9.84-6.22-13.35-10.78-1.75-2.28-3.22-4.77-4.33-7.39-1.09-2.63-1.9-5.39-2.14-8.2.55,2.76,1.62,5.38,2.89,7.85,1.31,2.46,2.87,4.76,4.71,6.81,3.63,4.16,8.24,7.34,13.23,9.61,5,2.26,10.38,3.63,15.84,4.41,1.38.14,2.74.35,4.12.46l4.18.32c1.43.11,2.86.2,4.28.41l2.13.27,2.12.37c11.3,2.05,22.05,6.64,31.52,12.96,4.76,3.14,9.19,6.73,13.32,10.61,4.08,3.93,7.93,8.12,11.14,12.76Z"/>
      </g>
      <g id="Leaves">
        <path class="cls-180" d="M197.61,369.14c-11.81-4.07-15.78-21.92-5.49-29.8,1.59-1.09,3.43-1.83,5.49-1.76.21,4.07.91,6.32,1.49,8.53,2,7.92,1.79,14.8-1.49,23.02h0Z"/>
        <path class="cls-161" d="M195.37,307.03c-10.89,2.01-20.34-9.44-18.8-19.84.43-3.44,1.93-6.8,4.99-9.4,1.52,1.52,2.4,2.85,3.39,4.07,6.09,7.71,8.86,14.97,10.42,25.17h0Z"/>
        <path class="cls-37" d="M163.45,235.42c-14.77,7.47-32.91-11.25-24-25.71,10.07,7.48,17.26,14.66,24,25.71h0Z"/>
        <path class="cls-96" d="M157.96,186.85c-8.55,1.92-16.14-6.16-16.84-14.16-.59-4.91,1.21-10.03,5.04-13.27,1.56,1.32,2.57,2.52,3.53,3.65,3.92,4.61,6.24,9.19,7.21,15.07.39,2.16.79,6.4,1.05,8.71h0Z"/>
        <path class="cls-79" d="M188.41,257.37c-.29-8.4.63-14.07,4.63-20.8,1.27-1.95,2.38-4.06,4.56-7.43,2.51,1.14,4.36,3.16,5.57,5.59,4.79,10.04-3.42,23.43-14.77,22.64h0Z"/>
        <path class="cls-165" d="M180.56,213c-.6-8.83.85-15.53,5.71-22.29,1.62-2.04,3.22-4.17,6.24-6.86,1.4,1.28,2.44,2.7,3.2,4.37,4.99,10.47-3.23,24.87-15.15,24.77h0Z"/>
        <path class="cls-123" d="M176.82,162.28c-13.83-3.92-16.42-24.54-5.69-33.14,8.4,9.34,9.3,21.54,5.69,33.14h0Z"/>
        <path class="cls-31" d="M197.61,139.42c-1.45-10.38-.3-20.31,3.77-29.81.69-1.54,1.25-3.13,2.39-5.05,3.59,2.15,5.79,5.31,7,8.73,3.8,10.22-1.92,23.98-13.17,26.13h0Z"/>
        <path class="cls-38" d="M208.82,162.28c12.23-1.67,22.89,13.36,15.89,24.06-1.11,1.51-2.55,2.75-4.46,3.37-1.43-2.99-2.7-4.86-4.45-7.03-4.72-6.09-6.72-12.02-6.98-20.4h0Z"/>
        <path class="cls-36" d="M213.57,275.48c2.54-3.83,2.87-7.55,4.35-11.35.66-1.29,1.39-2.86,2.74-4.62,1.59-2.32,3.17-4.3,5.6-6.49,2.19,1.61,3.6,3.34,4.58,5.66,3.04,6.59-.33,15.52-7.37,18.28-3.27,1.27-7.2,1.12-9.9-1.47h0Z"/>
        <path class="cls-34" d="M219.97,220c3.86-5.67,7.26-9.12,11.77-12.94,4.64-3.74,7.67-5.49,13.09-9.92,5.02,6.66,1.73,16.06-4.19,20.73-5.82,4.71-14.1,6.17-20.66,2.13h0Z"/>
        <path class="cls-162" d="M34.11,395.38c-6.59,8.56-19.8,9.58-28.02,2.6-2.87-2.5-5.14-6.45-4.27-10.45,2.93.51,4.64.54,7.11.52,9.26-.33,17.23,1.39,25.19,7.33h0Z"/>
        <path class="cls-150" d="M63.65,374.52c-5.8,2.73-12.66.12-16.64-4.29-4.06-4.41-5.48-11.02-3.17-16.66,11.83,2.37,17.26,9.62,19.81,20.94h0Z"/>
        <path class="cls-104" d="M24.03,364.05c-10.73,3.54-22.86-4.6-23.98-15.92-.33-3.99,1.03-8.3,4.55-10.56,1.21,1.76,2.16,3.06,3.12,4.13,7.09,6.81,12.86,12.3,16.31,22.34h0Z"/>
        <path class="cls-176" d="M36.98,329.2c-17.15,2.96-27.41-22.04-12.95-32,6.12,10.87,9.52,19.72,12.95,32h0Z"/>
        <path class="cls-111" d="M57.55,416.06c-.41,8.27-6.63,14.74-14.5,16.95-8,2.41-18.74-1.76-20-10.86,7.27-.23,10.52-1.07,16.41-2.67,5.88-1.52,11-2.9,18.09-3.42h0Z"/>
        <path class="cls-89" d="M78.88,346.73c-11.38,1.02-20.02-12.66-14.76-22.66.81-1.59,1.89-2.88,3.33-4.01,2.92,2.61,4.46,4.48,6.03,6.26,4.91,6.17,5.97,12.08,5.4,20.4h0Z"/>
        <path class="cls-177" d="M117.74,374.52c-9.31,1.34-17.06-7.2-18.83-15.6-1.15-5.25-.34-10.72,2.83-15.25,1.79,1.21,3.04,2.43,4.2,3.62,4.96,5.03,8.08,10.87,9.87,17.68.69,2.43,1.44,6.94,1.93,9.55h0Z"/>
        <path class="cls-82" d="M56.55,298.22c-12.86-6.06-17.83-24.49-10.02-36.32,1.2-1.83,2.76-3.34,4.63-4.53,1.77,4.28,2.73,7.42,3.71,10.56,2.93,10.21,4.13,19.4,1.68,30.29h0Z"/>
        <path class="cls-14" d="M95.26,317.63c-12.86-6.06-17.83-24.49-10.02-36.32,1.2-1.83,2.76-3.34,4.63-4.53,1.77,4.28,2.73,7.42,3.71,10.56,2.93,10.21,4.13,19.4,1.68,30.29h0Z"/>
        <path class="cls-156" d="M117.74,324.44c-2.12-8.6-1.99-15.32,1.48-22.92,1.19-2.32,2.36-4.73,4.81-7.94,3.34,2.08,5.22,5.03,6.21,8.1,3.12,9.21-2.47,21.07-12.5,22.76h0Z"/>
        <path class="cls-3" d="M109.74,267.3c-4.86-6.86-7.3-11.96-7.77-19.8-.02-2.36-.3-4.77-.23-8.78,1.85-.21,3.62-.06,5.34.58,11.53,4.04,13.44,22,2.66,28h0Z"/>
        <path class="cls-49" d="M163.45,374.52c-18.24,2.09-32.91-21.14-24-36.94,5.44,5.38,9.51,11.41,13.54,17.53,3.91,6.18,7.45,12.46,10.46,19.41h0Z"/>
        <path class="cls-99" d="M151.45,293.58c-2.48-5.94-5.27-12.66-6.75-18.73-.73-2.78-1.3-5.49-1.86-8.23-.72-3.37-1.13-5.99-3.4-9.25,4.19-2.16,9.46.2,12.59,3.18,8.89,8.26,10.03,25.9-.59,33.03h0Z"/>
        <path class="cls-110" d="M171.13,333.08c-8.24-.51-12.39-10.37-9.75-17.4,1.42-4.36,5.19-7.77,9.75-8.65.91,1.72,1.38,3.09,1.82,4.38,3.32,8.9,1.01,13.16-1.82,21.67h0Z"/>
        <path class="cls-127" d="M80.66,414.55c-8.24-.51-12.39-10.37-9.75-17.4,1.42-4.36,5.19-7.77,9.75-8.65.91,1.72,1.38,3.09,1.82,4.38,3.32,8.9,1.01,13.16-1.82,21.67h0Z"/>
        <path class="cls-88" d="M219.57,362.5c-3.63-8.11-4.33-14.82-2.31-22.89.57-2.33,1.28-4.74,2.31-8.67,7.46,1.45,11,9.33,10.62,16.04-.41,6.66-4.17,13.02-10.62,15.52h0Z"/>
        <path class="cls-194" d="M211.62,311.28c3.9-9.7,10.93-15.21,20.22-18.43,1.35-.52,2.77-1.11,4.64-2,1.97,3.36,1.43,7.43-.01,10.73-4.21,9.2-15.54,13.94-24.84,9.69h0Z"/>
        <path class="cls-18" d="M240.06,239.25c3.42-3.81,7.28-7.17,11.44-9.34,4.54-2.16,7.22-2.43,12.95-4.77,3.76,6.26-.53,14.42-6.58,17.24-5.93,3-13.43,2.17-17.8-3.13h0Z"/>
        <path class="cls-68" d="M255.57,277.8c-2.68-5.65-1.34-12.18,2.61-16.73,4.03-4.55,10.97-7.28,16.93-3.69-1.36,3.59-2.16,5.77-3.1,7.79-3.33,6.97-8.53,10.48-16.43,12.64h0Z"/>
        <path class="cls-138" d="M244.82,326.66c1.1-9.76,5.82-16.24,13.01-21.76.9-.86,1.8-1.97,2.63-3.84,3.96,1.16,5.53,5.96,5.24,9.65-.73,10.12-10.89,18.01-20.88,15.94h0Z"/>
        <path class="cls-132" d="M253.05,364.05c-8.79-9.7-.94-27.27,12.28-26.47,1.45,11.67-2.2,20.23-12.28,26.47h0Z"/>
        <path class="cls-98" d="M281.75,358.14c-.44-8.1-.69-13.18,1.01-20.31.75-2.83,1.05-5.34,2.03-8.61.96.15,1.86.41,2.69.75,5.88,2.28,8.99,9.04,8.13,15.1-.77,7.01-6.62,13.36-13.87,13.07h0Z"/>
        <path class="cls-78" d="M280.73,280.62c6.32,1.99,10.47,7.67,11.52,13.96,1.07,6.28-1.44,14.19-7.97,16.69-1.84-3.53-3-5.74-3.95-7.98-3.17-7.65-2.99-14.56.39-22.68h0Z"/>
        <path class="cls-178" d="M226.56,148.93c-6.61-6.98-1.83-18.96,7.5-20.16,3.15-.38,6.47.61,8.51,3.58-2.12,2.95-3.01,4.76-3.59,6.28-1.19,3.2-2.5,4.48-5.47,6.58-1.7,1.12-3.67,2.31-6.95,3.71h0Z"/>
        <path class="cls-151" d="M247.82,177.58c-1.85-5.68-2.3-9.67-1.71-14.58.38-2.9,1.56-5,2.42-7.93.34-1.22.57-2.62.82-4.58,3.76-.36,7,1.94,8.85,5,5.12,8.71-.39,20.71-10.38,22.09h0Z"/>
        <path class="cls-101" d="M270.36,209.71c-2.91-8.88-1.69-16.17,3.01-23.5.6-1.13,1.16-2.42,1.73-4.31,3.76.34,6.47,3.51,7.65,6.76,3.27,9.18-2.77,19.64-12.4,21.05h0Z"/>
        <path class="cls-166" d="M290.78,173.93c2.46-3.63,7.42-4.65,11.78-3.41,12.17,3.9,15.92,19.9,8.49,29.56-6.07-5.28-9.46-11.83-13.15-18.65-1.63-2.89-2.71-4.72-7.12-7.5h0Z"/>
        <path class="cls-29" d="M310.37,292.94c.15-10.8,12.21-18.5,22.22-15.09,3.46,1.21,6.6,3.75,7.6,7.65-1.94.72-3.4,1.21-4.7,1.79-8.29,4.21-15.19,6.52-25.12,5.64h0Z"/>
        <path class="cls-58" d="M353.86,329.24c.15-10.8,12.21-18.5,22.22-15.09,3.46,1.21,6.6,3.75,7.6,7.65-1.94.72-3.4,1.21-4.7,1.79-8.29,4.21-15.19,6.52-25.12,5.64h0Z"/>
        <path class="cls-108" d="M301.48,267.24c-2.27-12.57,13.61-22.38,23.87-14.23-4.77,10.39-12.49,14.89-23.87,14.23h0Z"/>
        <path class="cls-146" d="M277.03,156.28c.69-5.26,2-10.37,4.08-14.78,2.39-4.64,4.32-6.88,7.53-12.37,6.87,3.15,8.26,12.29,5.07,18.46-3.02,6.2-9.75,10.31-16.69,8.69h0Z"/>
        <path class="cls-196" d="M239.09,114.76c-11.41-6.09-11.61-24.3-1.32-31.55,1.57-1.15,3.3-1.9,5.23-2.34.98,4.11,1.1,6.93,1.4,9.69.51,8.82-1.07,15.81-5.32,24.2h0Z"/>
        <path class="cls-140" d="M265.59,136.57c-10.21-3.34-11.63-18.27-2.79-24.02,2.17-1.34,4.66-1.96,7.21-1.5.36,3.8.5,5.92.81,7.89.87,6.9-1.35,11.22-5.24,17.64h0Z"/>
        <path class="cls-119" d="M281.75,247.42c.61-5.05,1.2-9.92,2.63-14.42,1.66-4.45,3.94-8.63,6.72-13.01,14.24,7.17,6.15,30.53-9.35,27.43h0Z"/>
        <path class="cls-163" d="M301.39,369.14c2.43-5.68,4.17-9.07,7.46-13.06,2.12-2.43,4.66-4.38,7.28-6.4,1.2-.85,2.27-1.85,4.03-2.95,3.77,4.26,3.91,9.65,1.9,14.44-3.31,7.59-13.12,12.34-20.68,7.98h0Z"/>
        <path class="cls-5" d="M313.41,330.28c-3.08-12.96,11.44-25.69,23.79-20.44-3.59,11.79-11.48,18.82-23.79,20.44h0Z"/>
        <path class="cls-19" d="M316.53,217.14c6.13.56,10.36,1.76,15.09,3.33,1.6.52,2.69,1.13,4.45,1.79,1.8.75,4.33,1.08,8.34,1.45.04,6.2-5.74,10.75-11.66,10.85-9.37.4-17.7-8.11-16.22-17.42h0Z"/>
        <path class="cls-73" d="M354.82,277.97c13.66.8,21.55,5.38,35.14,6.57-1.86,8.81-12.45,12.6-20.36,10.26-7.86-2.16-14.24-8.56-14.78-16.83h0Z"/>
        <path class="cls-52" d="M340.57,341.3c6.13.56,10.36,1.76,15.09,3.33,1.6.52,2.69,1.13,4.45,1.79,1.8.75,4.33,1.08,8.34,1.45.04,6.2-5.74,10.75-11.66,10.85-9.37.4-17.7-8.11-16.22-17.42h0Z"/>
        <path class="cls-1" d="M348.25,264.24c.47-8.08,6.45-14.52,13.78-17.33,7.35-2.86,17.44-1.5,21.65,6.09-12.84,5.2-21.4,10.23-35.43,11.23h0Z"/>
        <path class="cls-135" d="M337.2,203.81c1.91-8.29,5-13.96,8.1-20.93,1.92-4.23,2.5-6.6,2.95-12.79,6.74,1.17,10.88,8.73,10.09,15.38-1.04,10.48-10.62,19.17-21.14,18.34h0Z"/>
        <path class="cls-106" d="M330.47,170.09c-17.26-1.56-25.02-27.76-10.21-37.74,5.28,12.69,8.82,23.68,10.21,37.74h0Z"/>
        <path class="cls-95" d="M265.34,95.23c-4.25-7.56-2.81-16.84,1.78-23.9,4.6-7.09,13.83-12.43,22.45-9.24-8.3,12.55-13.08,22.82-24.23,33.14h0Z"/>
        <path class="cls-74" d="M292.27,108.38c3.67-6.14,4.81-12.43,9.55-17.61,1.91-2.3,3.71-4.3,6.44-6.39,1.41,1.37,2.29,2.84,3.05,4.34,1.97,4.53,1.58,9.86-.93,14.1-3.27,5.99-12.02,10.19-18.12,5.56h0Z"/>
        <path class="cls-17" d="M324.56,114.76c5.05-5.57,10.25-9.52,15.46-14.06,5.25-4.55,7.94-7.76,12.14-14.61,7.13,7.15,4.25,19.23-2.92,25.15-6.92,5.84-16.6,7.77-24.68,3.52h0Z"/>
        <path class="cls-147" d="M350.57,145.71c-1.02-4.03.16-7.95,2.21-11.33,5.95-9.76,20.87-13.2,29.62-5.24-9.1,8.72-19.87,12.94-31.83,16.57h0Z"/>
        <path class="cls-116" d="M368.96,232.21c-14.58-8.78-6.15-33.79,10.86-32.12-1.77,11.77-5.44,21.57-10.86,32.12h0Z"/>
        <path class="cls-4" d="M389.96,363.05c.48-5.62,1.74-11.19,3.33-16.11,1.86-5.21,3.19-8.13,5.1-14.55,7.84,2.25,10.78,11.89,8.18,18.97-2.4,7.07-9,12.4-16.61,11.69h0Z"/>
        <path class="cls-164" d="M405.12,312.86c2.93-8.94,8.66-14.49,16.62-17.86.93-.57,1.84-1.66,2.51-3.59,4.35.73,5.69,6.61,4.52,10.24-2.69,9.86-14.34,15.33-23.65,11.21h0Z"/>
        <path class="cls-92" d="M401.06,266.24c.35-9.78-.97-18.34-.46-27.96.02-1.64.06-3.39.46-5.58,5.26.97,9.67,4.71,11.87,9.51,2.74,5.82,2.19,13.31-1.75,18.43-2.42,3.15-6.04,5.58-10.13,5.59h0Z"/>
        <path class="cls-122" d="M395.51,202.81c2.68-5.62,5.02-9.05,8.65-12.79,3.8-3.61,6.31-4.77,11-9.12,2.94,2.63,3.87,6.35,3.47,9.9-1.2,10.51-13.88,17.57-23.12,12.01h0Z"/>
        <path class="cls-20" d="M380.07,177c-6.85-12,4.43-29.91,18.49-27.07-1.99,12.47-7.01,21.29-18.49,27.07h0Z"/>
        <path class="cls-77" d="M421.2,150.22c-6.33-7.9-8.82-15.23-14.8-22.47-1.69-2.06-4.31-3.99-8-6.76,5.22-4.97,13.74-4.5,19.25-.15,8.95,6.86,10.78,20.82,3.56,29.37h0Z"/>
        <path class="cls-2" d="M381.07,103.57c-4-13.01-2.26-21.92-4.25-35.24,8.77-.48,15.05,8.31,15.27,16.28.35,7.91-3.55,15.81-11.01,18.95h0Z"/>
        <path class="cls-91" d="M344.68,72.14c-7.19-7.27-6.29-19.7,1.41-26.33,2.76-2.32,6.7-3.91,10.39-2.62-.46,2-.67,3.49-.8,4.87-.39,9.48-3.3,17.45-11,24.08h0Z"/>
        <path class="cls-9" d="M421.22,330.95c12.66-2.5,25.92,10.36,22.61,23.11-.58,1.9-1.55,3.71-3.2,5.04-2.32-2.77-4.2-4.49-6.55-6.6-6.44-6.04-10.74-12.29-12.86-21.55h0Z"/>
        <path class="cls-139" d="M421.22,225.14c10.55-3.95,22.47,5.07,23.15,15.94.27,3.76-.87,7.73-3.67,10.4-2.97-2.88-4.84-4.85-6.67-6.57-6.04-5.96-9.59-11.26-12.82-19.78h0Z"/>
        <path class="cls-125" d="M431.4,170.09c9.16-2.39,17.39,6.65,17.53,15.4.14,4.93-1.81,9.97-5.79,13.03-.72.58-1.53,1.11-2.44,1.57-1.1-1.84-1.71-3.37-2.3-4.81-1.51-3.5-2.62-6.56-3.61-10.09-1.2-4.45-2.23-10.42-3.4-15.1h0Z"/>
        <path class="cls-137" d="M409.81,96.38c7.53-7.41,20.59-7.39,28.5-.24,5.22,4.48,7.25,13.2,2.4,18.62-2.48-2.78-4.47-4.99-7.3-6.51-2.09-1.08-3.9-1.84-6.22-2.83-5.88-2.52-11.38-4.69-17.37-9.04h0Z"/>
        <path class="cls-55" d="M395.51,50.28c8.74-8.36,24.58-4.37,29.49,6.36,1.71,3.69,2.06,7.89.26,11.69-3.8-2.03-6.29-3.49-8.68-4.59-7.55-3.59-14.63-7.59-21.07-13.46h0Z"/>
        <path class="cls-59" d="M444.66,320.06c-.92-5.64-2.55-13.38-2.18-18.94.17-2.68.38-5,.93-7.8.28-1.54.55-3.16,1.25-5.17.98.25,1.88.59,2.7,1.01,9.01,4.27,11.76,16.83,6.29,24.94-2.09,3.08-5.09,5.53-9,5.97h0Z"/>
        <path class="cls-54" d="M474.5,369.14c-4.8-6.18-7.17-11.95-9.5-18.53-2.22-6.22-3.13-11.56-7.08-17.21,4.24-1.94,9.31-.56,12.9,2.15,10.14,7.85,11.82,23.91,3.68,33.6h0Z"/>
        <path class="cls-39" d="M444.66,267.58c6.45-5.65,15.84-5.63,23.13-1.32,7.49,4.23,12.01,14.92,6.74,22.56-9.98-9.8-19.08-12.41-29.87-21.24h0Z"/>
        <path class="cls-6" d="M454.34,216c7.96-1.38,15.62,2.43,20.54,8.63,5.03,6.01,6.92,17.51-.38,22.8-3.07-5.77-6.88-9.28-10.69-14.23-3.98-5.27-7.13-10.09-9.47-17.19h0Z"/>
        <path class="cls-57" d="M446.43,80.87c8.62-4.95,19.83.02,24.76,8.05,4.93,7.88,5.07,18.41-.97,25.84-4.17-5.84-7.06-12.41-10.85-18.35-3.53-5.66-7.87-10.66-12.94-15.54h0Z"/>
        <path class="cls-114" d="M447.08,142.71c8.19-3.62,17.51,1.9,21.46,9.23,3.92,7.27,3.5,16.87-2.27,23.05-7.98-10.31-11.91-21.42-19.19-32.28h0Z"/>
        <path class="cls-173" d="M523.27,366.26c-11.04-6.97-18.03-14.54-28.55-22.54,6.22-6.16,16.67-4.78,22.81.71,6.17,5.35,9.21,14.21,5.73,21.83h0Z"/>
        <path class="cls-51" d="M471.3,320.06c.3-9.73,9.22-17.26,19-15.89,3.47.47,7.95,3.06,7.86,7.11-1.97.33-3.12,1.04-4.03,1.76-6.2,6.12-13.62,8.64-22.83,7.02h0Z"/>
        <path class="cls-190" d="M492.44,264.24c7.83-1.27,15.19,3.42,19.03,10.06,3.93,6.57,3.92,16.51-2.47,21.65-7.62-11.08-13.19-18.53-16.56-31.71h0Z"/>
        <path class="cls-21" d="M498.15,249.48c-5.12-11.54-6.16-21.32-5.71-33.48,16.55,1.34,20.17,26.57,5.71,33.48h0Z"/>
        <path class="cls-128" d="M463.32,200.09c3.7-5.29,6.87-8.54,10.79-12.19,4.16-3.61,6.23-5.11,10.45-10.32,6.69,5.23,4.85,15.71-1.05,20.69-5.66,5.01-13.92,6.21-20.19,1.82h0Z"/>
        <path class="cls-80" d="M474.53,132.35c6.56-4.98,16.16-3.19,22,2.21,6.04,5.3,8.55,14.6,4.33,21.72-10.25-7.67-17.37-14.41-26.33-23.93h0Z"/>
        <path class="cls-71" d="M487.69,118.28c2.18-6.45,4.72-12.4,5.76-18.66.87-4.38.68-8.91,1.27-13.53,8.67,1.68,13.9,10.85,11.78,19.51-2.06,8.53-10.26,14.59-18.81,12.68h0Z"/>
        <path class="cls-45" d="M447.27,59.3c7.98-8.48,21.43-10.08,31.53-4.31,3.47,2.08,7.52,6.23,6.57,10.74-2.16-.72-3.77-.64-5.31-.55-11.45,1.23-22.54.94-32.78-5.88h0Z"/>
        <path class="cls-134" d="M509,203.81c-6.34-3.6-9.11-10.82-7.81-17.91,1.08-7.35,9.24-14.96,16.96-10.9-.82,1.92-1.46,3.33-1.82,4.68-.91,3.26-.71,5.74-1.4,8.92-1.14,5.29-2.58,9.71-5.93,15.22h0Z"/>
        <path class="cls-183" d="M529.27,217.14c-6.42-10.15,3.87-24.38,15.5-22.12,1.76.31,3.32,1.03,4.79,2.12-1.75,3.52-3.08,5.48-4.19,7.47-4.04,6.47-8.62,9.26-16.1,12.53h0Z"/>
        <path class="cls-53" d="M523.27,151.22c-3.65-5.29-5.36-9.44-6.63-14.73-.77-3.28-.71-6.12-1.2-9.58-.19-1.4-.55-2.89-.98-4.91,5.71-1.86,11.33,1.84,14.01,6.63,4.27,7.53,2.42,17.99-5.2,22.6h0Z"/>
        <path class="cls-15" d="M538.86,180.9c-7.49-4.75-8.23-15.72-2.41-22.17,3.54-4.17,10.23-5.93,14.81-2.45-1.81,3.48-2.74,5.64-3.18,7.51-.48,1.79-.76,3.1-1.4,4.63-1.9,4.46-3.98,7.9-7.82,12.48h0Z"/>
        <path class="cls-69" d="M539.47,293.14c-6.1-.65-10.32-5.96-10.5-11.89-.42-5.93,4.48-12.51,10.89-12.01,1.06,3.56,1.55,5.51,2.22,7.26.59,1.69.81,2.91.88,4.35-.09,4.35-1.3,7.29-3.49,12.29h0Z"/>
        <path class="cls-102" d="M492.44,34.67c.71-13.7,19.91-21.61,29.64-11.59-8.17,9.35-17.24,13.28-29.64,11.59h0Z"/>
        <path class="cls-87" d="M549.65,141.79c-6.79-5.76-6.94-16.38-1.53-23.14,3.41-4.3,9.54-7.05,14.89-4.31-.75,1.93-1.34,3.34-1.75,4.69-1.03,3.33-1.44,6.15-2.71,9.27-2.1,5.03-4.44,8.84-8.89,13.49h0Z"/>
        <path class="cls-94" d="M876.51,369.14c-3.28-8.21-3.49-15.11-1.49-23.02.58-2.22,1.28-4.46,1.49-8.53,2.06-.07,3.89.67,5.49,1.76,10.29,7.88,6.33,25.73-5.49,29.8h0Z"/>
        <path class="cls-121" d="M878.75,307.03c1.55-10.19,4.33-17.47,10.42-25.17.99-1.22,1.87-2.55,3.39-4.07,3.06,2.6,4.56,5.96,4.99,9.4,1.55,10.4-7.91,21.85-18.8,19.84h0Z"/>
        <path class="cls-192" d="M910.66,235.42c6.74-11.05,13.93-18.24,24-25.71,8.91,14.47-9.23,33.18-24,25.71h0Z"/>
        <path class="cls-7" d="M916.15,186.85c.28-2.34.67-6.54,1.05-8.71.96-5.88,3.29-10.46,7.21-15.07.96-1.13,1.97-2.33,3.53-3.65,3.83,3.24,5.63,8.36,5.04,13.27-.7,8-8.29,16.08-16.84,14.16h0Z"/>
        <path class="cls-12" d="M885.71,257.37c-12.3.93-20.82-15.08-13.39-24.85,1.09-1.49,2.51-2.58,4.2-3.39,2.18,3.37,3.3,5.48,4.56,7.43,4,6.73,4.92,12.4,4.63,20.8h0Z"/>
        <path class="cls-195" d="M893.55,213c-11.92.1-20.14-14.3-15.15-24.77.77-1.68,1.81-3.09,3.2-4.37,3.02,2.69,4.62,4.81,6.24,6.86,4.86,6.76,6.3,13.45,5.71,22.29h0Z"/>
        <path class="cls-113" d="M897.3,162.28c-3.6-11.6-2.71-23.81,5.69-33.14,7.84,6.51,8.69,18.76,2.91,26.94-2.13,2.87-4.83,5.35-8.6,6.2h0Z"/>
        <path class="cls-179" d="M876.51,139.42c-11.24-2.15-16.96-15.91-13.17-26.13,1.21-3.42,3.41-6.58,7-8.73,1.14,1.91,1.7,3.51,2.39,5.05,4.07,9.51,5.23,19.43,3.77,29.81h0Z"/>
        <path class="cls-152" d="M865.3,162.28c-.26,8.37-2.27,14.31-6.98,20.4-1.75,2.17-3.02,4.04-4.45,7.03-1.91-.61-3.35-1.86-4.46-3.37-7-10.7,3.66-25.73,15.89-24.06h0Z"/>
        <path class="cls-97" d="M860.55,275.48c-2.7,2.59-6.63,2.74-9.9,1.47-7.05-2.76-10.41-11.69-7.37-18.28.98-2.32,2.39-4.04,4.58-5.66,2.43,2.18,4.01,4.17,5.6,6.49,1.35,1.76,2.09,3.34,2.74,4.62,1.48,3.8,1.8,7.52,4.35,11.35h0Z"/>
        <path class="cls-27" d="M854.15,220c-6.56,4.04-14.84,2.58-20.66-2.13-5.92-4.67-9.21-14.07-4.19-20.73,5.41,4.43,8.45,6.18,13.09,9.92,4.51,3.82,7.9,7.26,11.77,12.94h0Z"/>
        <path class="cls-93" d="M1040.01,395.38c7.95-5.93,15.93-7.66,25.19-7.33,2.46.02,4.18-.01,7.11-.52.87,4-1.4,7.95-4.27,10.45-8.22,6.98-21.43,5.96-28.02-2.6h0Z"/>
        <path class="cls-30" d="M1010.47,374.52c2.56-11.34,7.97-18.56,19.81-20.94,2.31,5.63.88,12.25-3.17,16.66-3.98,4.41-10.83,7.02-16.64,4.29h0Z"/>
        <path class="cls-170" d="M1050.09,364.05c3.44-10.04,9.21-15.53,16.31-22.34.96-1.08,1.91-2.37,3.12-4.13,3.52,2.25,4.88,6.56,4.55,10.55-1.12,11.32-13.25,19.45-23.98,15.92h0Z"/>
        <path class="cls-184" d="M1037.14,329.2c3.42-12.27,6.83-21.14,12.95-32,14.47,9.97,4.19,34.96-12.95,32h0Z"/>
        <path class="cls-43" d="M1016.57,416.06c7.07.52,12.21,1.9,18.09,3.42,5.89,1.61,9.14,2.44,16.41,2.67-1.26,9.1-12,13.27-20,10.86-7.88-2.22-14.09-8.69-14.5-16.95h0Z"/>
        <path class="cls-25" d="M995.23,346.73c-1.05-11.91,2.63-18.85,11.43-26.67,10.9,8.85,2.14,27.84-11.43,26.67h0Z"/>
        <path class="cls-172" d="M956.38,374.52c.51-2.63,1.24-7.1,1.93-9.55,1.79-6.81,4.91-12.64,9.87-17.68,1.16-1.19,2.41-2.41,4.2-3.62,3.18,4.53,3.98,9.99,2.83,15.25-1.77,8.39-9.53,16.94-18.83,15.6h0Z"/>
        <path class="cls-112" d="M1017.57,298.22c-2.45-10.88-1.25-20.09,1.68-30.29.97-3.14,1.93-6.29,3.71-10.56,1.86,1.19,3.43,2.7,4.63,4.53,7.82,11.83,2.84,30.25-10.02,36.32h0Z"/>
        <path class="cls-103" d="M978.86,317.63c-2.45-10.88-1.25-20.09,1.68-30.29.97-3.14,1.93-6.29,3.71-10.56,1.86,1.19,3.43,2.7,4.63,4.53,7.82,11.83,2.84,30.25-10.02,36.32h0Z"/>
        <path class="cls-109" d="M956.38,324.44c-10.02-1.7-15.62-13.55-12.5-22.76,1-3.07,2.88-6.01,6.21-8.1,2.45,3.21,3.61,5.62,4.81,7.94,3.47,7.6,3.59,14.31,1.48,22.92h0Z"/>
        <path class="cls-141" d="M964.38,267.3c-10.78-6-8.87-23.96,2.66-28,1.72-.63,3.49-.79,5.34-.58.07,4.01-.2,6.42-.23,8.78-.47,7.84-2.91,12.93-7.77,19.8h0Z"/>
        <path class="cls-61" d="M910.66,374.52c3.01-6.94,6.55-13.23,10.46-19.41,4.03-6.13,8.09-12.15,13.54-17.53,8.91,15.8-5.76,39.03-24,36.94h0Z"/>
        <path class="cls-65" d="M922.66,293.58c-10.62-7.13-9.49-24.77-.59-33.03,3.13-2.98,8.4-5.34,12.59-3.18-2.26,3.26-2.68,5.88-3.4,9.25-.55,2.74-1.13,5.45-1.86,8.23-1.48,6.06-4.27,12.8-6.75,18.73h0Z"/>
        <path class="cls-155" d="M902.99,333.08c-2.83-8.51-5.14-12.77-1.82-21.67.44-1.28.91-2.66,1.82-4.38,4.56.88,8.33,4.29,9.75,8.65,2.64,7.03-1.51,16.89-9.75,17.4h0Z"/>
        <path class="cls-153" d="M993.45,414.55c-2.83-8.51-5.14-12.77-1.82-21.67.44-1.28.91-2.66,1.82-4.38,4.56.88,8.33,4.29,9.75,8.65,2.64,7.03-1.51,16.89-9.75,17.4h0Z"/>
        <path class="cls-23" d="M854.55,362.5c-6.44-2.5-10.21-8.85-10.62-15.52-.38-6.71,3.16-14.59,10.62-16.04,1.03,3.93,1.74,6.33,2.31,8.67,2.02,8.08,1.31,14.77-2.31,22.89h0Z"/>
        <path class="cls-11" d="M862.5,311.28c-9.3,4.25-20.63-.49-24.84-9.69-1.44-3.3-1.99-7.37-.01-10.73,1.86.89,3.29,1.48,4.64,2,9.29,3.22,16.31,8.72,20.22,18.43h0Z"/>
        <path class="cls-124" d="M834.06,239.25c-6.63,8.16-20.6,5.42-24.7-3.97-1.45-3.2-1.52-7.05.32-10.14,3.64,1.37,5.87,2.21,7.9,2.8,6.73,1.94,11.64,6.01,16.48,11.32h0Z"/>
        <path class="cls-33" d="M818.55,277.8c-7.9-2.16-13.11-5.67-16.43-12.64-.94-2.01-1.74-4.2-3.1-7.79,5.96-3.59,12.9-.85,16.93,3.69,3.95,4.56,5.29,11.08,2.61,16.73h0Z"/>
        <path class="cls-64" d="M829.3,326.66c-9.99,2.07-20.15-5.82-20.88-15.94-.29-3.69,1.29-8.49,5.24-9.65.83,1.87,1.73,2.98,2.63,3.84,7.2,5.53,11.9,12,13.01,21.76h0Z"/>
        <path class="cls-28" d="M821.06,364.05c-10.09-6.24-13.74-14.8-12.28-26.47,13.23-.8,21.07,16.78,12.28,26.47h0Z"/>
        <path class="cls-145" d="M792.36,358.14c-7.25.28-13.09-6.07-13.87-13.07-.86-6.06,2.25-12.81,8.13-15.1.83-.34,1.73-.6,2.69-.75.98,3.27,1.28,5.78,2.03,8.61,1.71,7.13,1.45,12.21,1.01,20.31h0Z"/>
        <path class="cls-107" d="M793.39,280.62c3.38,8.12,3.56,15.04.39,22.68-.95,2.23-2.1,4.45-3.95,7.98-6.53-2.51-9.04-10.42-7.97-16.69,1.05-6.3,5.21-11.97,11.52-13.96h0Z"/>
        <path class="cls-13" d="M847.56,148.93c-3.28-1.4-5.25-2.59-6.95-3.71-2.98-2.1-4.29-3.38-5.47-6.58-.58-1.52-1.47-3.33-3.59-6.28,2.04-2.98,5.36-3.97,8.51-3.58,9.33,1.2,14.11,13.18,7.5,20.16h0Z"/>
        <path class="cls-191" d="M826.29,177.58c-9.98-1.38-15.49-13.38-10.38-22.09,1.85-3.06,5.09-5.36,8.85-5,.25,1.95.48,3.36.82,4.58.85,2.93,2.04,5.03,2.41,7.93.59,4.92.14,8.9-1.71,14.58h0Z"/>
        <path class="cls-154" d="M803.76,209.71c-9.63-1.41-15.67-11.87-12.4-21.05,1.18-3.26,3.9-6.43,7.65-6.76.57,1.89,1.13,3.19,1.73,4.31,4.71,7.35,5.91,14.59,3.01,23.5h0Z"/>
        <path class="cls-129" d="M783.33,173.93c-5.01,3.16-5.78,5.12-7.82,8.8-3.46,6.39-6.75,12.4-12.44,17.35-7.44-9.66-3.68-25.66,8.49-29.56,4.36-1.24,9.32-.23,11.78,3.41h0Z"/>
        <path class="cls-118" d="M763.75,292.94c-9.93.89-16.84-1.43-25.12-5.64-1.3-.58-2.76-1.07-4.7-1.79,1.53-5.79,7.48-8.58,12.94-8.46,8.62.18,16.71,7,16.88,15.9h0Z"/>
        <path class="cls-35" d="M720.26,329.24c-9.93.89-16.84-1.43-25.12-5.64-1.3-.58-2.76-1.07-4.7-1.79,1.53-5.79,7.48-8.58,12.94-8.46,8.62.18,16.71,7,16.88,15.9h0Z"/>
        <path class="cls-174" d="M772.64,267.24c-11.38.66-19.1-3.85-23.87-14.23,10.25-8.15,26.14,1.67,23.87,14.23h0Z"/>
        <path class="cls-8" d="M797.09,156.28c-6.93,1.63-13.67-2.49-16.69-8.69-3.19-6.16-1.8-15.3,5.07-18.46,3.21,5.49,5.15,7.73,7.53,12.37,2.08,4.41,3.39,9.51,4.08,14.78h0Z"/>
        <path class="cls-10" d="M835.02,114.76c-4.25-8.38-5.83-15.39-5.32-24.2.3-2.76.43-5.58,1.4-9.69,1.94.44,3.67,1.19,5.23,2.34,10.29,7.25,10.09,25.46-1.32,31.55h0Z"/>
        <path class="cls-148" d="M808.53,136.57c-3.88-6.41-6.11-10.74-5.24-17.64.32-1.97.45-4.09.81-7.89,2.55-.46,5.05.16,7.21,1.5,8.84,5.75,7.42,20.69-2.79,24.02h0Z"/>
        <path class="cls-117" d="M792.36,247.42c-15.51,3.1-23.58-20.26-9.35-27.43,2.78,4.37,5.06,8.56,6.72,13.01,1.43,4.51,2.02,9.36,2.63,14.42h0Z"/>
        <path class="cls-76" d="M772.72,369.14c-7.56,4.36-17.37-.38-20.68-7.98-2-4.79-1.87-10.18,1.9-14.44,1.76,1.1,2.84,2.1,4.03,2.95,2.62,2.02,5.16,3.97,7.28,6.4,3.29,3.99,5.02,7.37,7.46,13.06h0Z"/>
        <path class="cls-181" d="M760.71,330.28c-12.31-1.62-20.2-8.65-23.79-20.44,12.35-5.25,26.87,7.49,23.79,20.44h0Z"/>
        <path class="cls-47" d="M757.59,217.14c1.48,9.31-6.85,17.82-16.22,17.42-5.92-.11-11.7-4.66-11.66-10.85,4.02-.37,6.54-.7,8.34-1.45,1.76-.66,2.85-1.27,4.45-1.79,4.73-1.57,8.95-2.77,15.09-3.33h0Z"/>
        <path class="cls-56" d="M719.29,277.97c-.53,8.28-6.92,14.68-14.78,16.83-7.91,2.34-18.5-1.45-20.36-10.26,13.58-1.19,21.49-5.77,35.14-6.57h0Z"/>
        <path class="cls-84" d="M733.55,341.3c1.48,9.31-6.85,17.82-16.22,17.42-5.92-.11-11.7-4.66-11.66-10.85,4.02-.37,6.54-.7,8.34-1.45,1.76-.66,2.85-1.27,4.45-1.79,4.73-1.57,8.95-2.77,15.09-3.33h0Z"/>
        <path class="cls-187" d="M725.87,264.24c-14.04-1-22.58-6.03-35.43-11.23,4.2-7.59,14.3-8.95,21.65-6.09,7.33,2.81,13.31,9.24,13.78,17.33h0Z"/>
        <path class="cls-66" d="M736.92,203.81c-10.52.84-20.1-7.86-21.14-18.34-.79-6.64,3.35-14.21,10.09-15.38.45,6.19,1.03,8.56,2.95,12.79,3.1,6.97,6.19,12.63,8.1,20.93h0Z"/>
        <path class="cls-22" d="M743.64,170.09c1.39-14.06,4.93-25.05,10.21-37.74,14.81,9.98,7.05,36.18-10.21,37.74h0Z"/>
        <path class="cls-83" d="M808.78,95.23c-11.15-10.33-15.93-20.59-24.23-33.14,8.62-3.19,17.85,2.15,22.45,9.24,4.59,7.06,6.03,16.34,1.78,23.9h0Z"/>
        <path class="cls-186" d="M781.84,108.38c-6.1,4.63-14.84.43-18.12-5.56-2.51-4.24-2.9-9.57-.93-14.1.76-1.51,1.64-2.97,3.05-4.34,2.73,2.08,4.53,4.09,6.44,6.39,4.75,5.18,5.88,11.47,9.55,17.61h0Z"/>
        <path class="cls-157" d="M749.56,114.76c-8.07,4.25-17.76,2.32-24.68-3.52-7.17-5.91-10.05-18-2.92-25.15,4.19,6.84,6.89,10.06,12.14,14.61,5.23,4.55,10.39,8.47,15.46,14.06h0Z"/>
        <path class="cls-72" d="M723.55,145.71c-11.96-3.63-22.73-7.85-31.83-16.57,8.75-7.96,23.67-4.51,29.62,5.24,2.05,3.38,3.23,7.3,2.21,11.33h0Z"/>
        <path class="cls-182" d="M705.15,232.21c-5.41-10.54-9.09-20.35-10.86-32.12,17.01-1.67,25.43,23.34,10.86,32.12h0Z"/>
        <path class="cls-63" d="M684.15,363.05c-7.62.71-14.21-4.62-16.61-11.69-2.6-7.08.33-16.72,8.18-18.97,1.91,6.42,3.25,9.33,5.1,14.55,1.6,4.93,2.85,10.48,3.33,16.11h0Z"/>
        <path class="cls-86" d="M669,312.86c-9.3,4.12-20.96-1.35-23.65-11.21-1.17-3.63.17-9.52,4.52-10.24.66,1.93,1.57,3.01,2.5,3.59,7.97,3.37,13.69,8.92,16.62,17.86h0Z"/>
        <path class="cls-193" d="M673.06,266.24c-4.08-.01-7.71-2.43-10.13-5.59-3.94-5.12-4.49-12.61-1.75-18.43,2.2-4.8,6.61-8.54,11.87-9.51.4,2.18.44,3.93.46,5.58.51,9.61-.82,18.18-.46,27.96h0Z"/>
        <path class="cls-171" d="M678.61,202.81c-9.24,5.56-21.91-1.5-23.12-12.01-.4-3.55.53-7.27,3.47-9.9,4.68,4.34,7.21,5.51,11,9.12,3.63,3.74,5.96,7.16,8.65,12.79h0Z"/>
        <path class="cls-32" d="M694.04,177c-11.49-5.78-16.5-14.59-18.49-27.07,14.06-2.84,25.34,15.07,18.49,27.07h0Z"/>
        <path class="cls-144" d="M652.92,150.22c-7.23-8.55-5.39-22.51,3.56-29.37,5.51-4.36,14.03-4.83,19.25.15-3.69,2.77-6.31,4.7-8,6.76-5.98,7.24-8.46,14.56-14.8,22.47h0Z"/>
        <path class="cls-185" d="M693.04,103.57c-7.47-3.14-11.36-11.04-11.02-18.95.22-7.98,6.5-16.77,15.27-16.28-1.99,13.31-.26,22.24-4.25,35.24h0Z"/>
        <path class="cls-85" d="M729.44,72.14c-7.7-6.62-10.61-14.6-11-24.08-.13-1.39-.34-2.88-.8-4.87,3.69-1.28,7.63.3,10.39,2.62,7.7,6.63,8.59,19.06,1.41,26.33h0Z"/>
        <path class="cls-70" d="M652.89,330.95c-2.11,9.25-6.42,15.52-12.86,21.55-2.35,2.12-4.23,3.83-6.55,6.6-1.66-1.34-2.62-3.14-3.2-5.04-3.31-12.75,9.95-25.61,22.61-23.11h0Z"/>
        <path class="cls-48" d="M652.89,225.14c-3.23,8.51-6.78,13.82-12.82,19.78-1.83,1.72-3.69,3.69-6.67,6.57-2.79-2.67-3.94-6.63-3.67-10.4.68-10.88,12.6-19.89,23.15-15.94h0Z"/>
        <path class="cls-105" d="M642.72,170.09c-1.17,4.69-2.19,10.63-3.4,15.1-.99,3.54-2.1,6.6-3.61,10.09-.59,1.44-1.2,2.97-2.3,4.81-.91-.46-1.72-.98-2.44-1.57-3.97-3.06-5.92-8.1-5.79-13.03.15-8.75,8.38-17.8,17.53-15.4h0Z"/>
        <path class="cls-143" d="M664.3,96.38c-5.98,4.35-11.49,6.53-17.37,9.04-2.33.99-4.13,1.75-6.22,2.83-2.83,1.52-4.82,3.72-7.3,6.51-4.85-5.42-2.83-14.14,2.4-18.62,7.91-7.15,20.97-7.16,28.5.24h0Z"/>
        <path class="cls-160" d="M678.61,50.28c-6.43,5.87-13.51,9.87-21.07,13.46-2.4,1.1-4.89,2.56-8.68,4.59-1.81-3.8-1.45-8,.26-11.69,4.91-10.73,20.76-14.72,29.49-6.36h0Z"/>
        <path class="cls-26" d="M629.46,320.06c-3.91-.44-6.91-2.89-9-5.97-5.47-8.11-2.72-20.67,6.29-24.94.82-.41,1.72-.75,2.7-1.01.7,2.01.97,3.63,1.25,5.17.56,2.8.76,5.12.93,7.8.37,5.53-1.26,13.33-2.18,18.94h0Z"/>
        <path class="cls-126" d="M599.62,369.14c-8.13-9.68-6.46-25.75,3.68-33.6,3.59-2.71,8.65-4.09,12.9-2.15-3.94,5.65-4.86,11-7.08,17.21-2.33,6.58-4.7,12.35-9.5,18.53h0Z"/>
        <path class="cls-120" d="M629.46,267.58c-10.8,8.83-19.89,11.43-29.87,21.24-5.27-7.64-.75-18.33,6.74-22.56,7.29-4.31,16.68-4.33,23.13,1.32h0Z"/>
        <path class="cls-167" d="M619.77,216c-2.33,7.1-5.49,11.93-9.47,17.19-3.81,4.95-7.62,8.46-10.69,14.23-7.3-5.3-5.41-16.79-.38-22.8,4.91-6.2,12.57-10,20.54-8.63h0Z"/>
        <path class="cls-188" d="M627.68,80.87c-5.07,4.87-9.42,9.89-12.94,15.54-3.79,5.94-6.68,12.51-10.85,18.35-6.04-7.43-5.9-17.96-.97-25.84,4.93-8.02,16.15-13,24.76-8.05h0Z"/>
        <path class="cls-142" d="M627.04,142.71c-7.28,10.86-11.21,21.97-19.19,32.29-5.78-6.18-6.19-15.78-2.27-23.05,3.95-7.34,13.27-12.86,21.46-9.23h0Z"/>
        <path class="cls-133" d="M550.85,366.26c-3.48-7.62-.44-16.48,5.73-21.83,6.15-5.49,16.59-6.87,22.81-.71-10.51,8-17.51,15.58-28.55,22.54h0Z"/>
        <path class="cls-75" d="M602.82,320.06c-9.2,1.63-16.63-.9-22.83-7.02-.91-.72-2.06-1.43-4.03-1.76-.1-4.05,4.38-6.64,7.86-7.11,9.78-1.38,18.7,6.16,19,15.89h0Z"/>
        <path class="cls-24" d="M581.68,264.24c-3.37,13.18-8.94,20.63-16.56,31.71-6.39-5.14-6.4-15.07-2.47-21.65,3.83-6.63,11.2-11.32,19.03-10.06h0Z"/>
        <path class="cls-159" d="M575.96,249.48c-14.46-6.92-10.83-32.14,5.71-33.48.45,12.17-.59,21.94-5.71,33.48h0Z"/>
        <path class="cls-168" d="M610.8,200.09c-6.27,4.39-14.53,3.19-20.19-1.82-5.9-4.98-7.74-15.47-1.05-20.7,4.22,5.21,6.29,6.72,10.45,10.32,3.92,3.66,7.08,6.9,10.79,12.19h0Z"/>
        <path class="cls-41" d="M599.59,132.35c-8.96,9.52-16.09,16.27-26.33,23.93-4.21-7.12-1.71-16.42,4.33-21.72,5.83-5.39,15.44-7.18,22-2.21h0Z"/>
        <path class="cls-81" d="M586.42,118.28c-8.55,1.91-16.75-4.15-18.81-12.68-2.12-8.65,3.11-17.83,11.78-19.51.58,4.62.39,9.15,1.27,13.53,1.05,6.26,3.58,12.21,5.76,18.66h0Z"/>
        <path class="cls-175" d="M626.84,59.3c-10.24,6.81-21.34,7.11-32.78,5.88-1.54-.08-3.15-.17-5.31.55-.95-4.51,3.1-8.66,6.57-10.74,10.1-5.77,23.55-4.17,31.53,4.31h0Z"/>
        <path class="cls-46" d="M565.12,203.81c-3.35-5.5-4.8-9.93-5.93-15.22-.69-3.18-.49-5.66-1.4-8.92-.36-1.35-1-2.75-1.82-4.68,7.73-4.05,15.88,3.56,16.96,10.9,1.3,7.08-1.46,14.31-7.81,17.91h0Z"/>
        <path class="cls-100" d="M553.28,251.55c-12.49-3.29-23.45-8.11-33.33-16.57,12.17-11.35,35.39-.09,33.33,16.57h0Z"/>
        <path class="cls-90" d="M545.03,112.87c-3.08-7.77-5.76-12.4-10.82-17.71-5.07-5.4-10.73-9.31-16.29-15.64,13.93-5.98,32.06,4.5,32.53,20,.12,5.01-1.45,10.1-5.41,13.34h0Z"/>
        <path class="cls-130" d="M567.37,74.81c-9.75-.8-16.31-4.87-21.87-12.21-.88-1.04-1.89-2.13-3.3-3.56,2.23-3.05,5.99-4.13,9.5-3.99,9.84.52,17.71,10.02,15.66,19.75h0Z"/>
        <path class="cls-42" d="M633.41,44.95c-1.1-.75-2.5-1.64-3.64-2.34-2.03-1.27-4.93-2.96-6.13-4.76-1.35-1.98-2.03-4.23-2.75-6.55-.4-1.33-.86-2.87-1.11-4.3,3.57-2.49,8.51-2.58,12.13-.17,6.21,3.62,7.9,13.82,1.51,18.12h0Z"/>
        <path class="cls-169" d="M591.52,34.68c-6.17,1.77-13.04,2.97-18.87,4.45-6.54,1.56-10.48,3.28-17.66,6.01-1.64-9.16,5.63-17.62,14.28-19.6,8.56-2.06,18.16,1.17,22.24,9.14h0Z"/>
        <path class="cls-136" d="M599.59,22.47c-4.06-3.72-6.4-5.46-8.72-9.16-1.17-2.11-1.72-4.93-2.31-7.65-.24-1.28-.6-2.59-.82-4.51,3.24-1.56,6.35-1.41,9.06-.32,8.68,3.29,11.18,16.57,2.79,21.63h0Z"/>
        <path class="cls-131" d="M559.47,18.7c-10.55,3.99-18.6,1.37-25.03-7.82,7.6-9.87,24.25-4.55,25.03,7.82h0Z"/>
        <path class="cls-60" d="M514.85,332.21c-.49-4.5,1.82-8.78,4.7-12.05,8.55-9.26,24.02-11.35,34.13-3.49-11.37,9.21-25.08,11.58-38.82,15.54h0Z"/>
        <path class="cls-115" d="M506.73,68.33c-2.77-13.16,9.42-28.04,23.16-25.92,2.09.43,4.12,1.34,5.55,3.03-3,2.31-4.63,4.34-6.74,6.91-6.08,7.26-12.34,12.82-21.98,15.98h0Z"/>
      </g>
    </g>
  </g>
</svg>