<?xml version="1.0" encoding="UTF-8"?>
<svg id="Calque_2" data-name="Calque 2" xmlns="http://www.w3.org/2000/svg" xmlns:xlink="http://www.w3.org/1999/xlink" viewBox="0 0 1920.62 689.15">
  <defs>
    <style>
      .cls-1 {
        fill: url(#Dégradé_sans_nom_47-6);
      }

      .cls-2 {
        fill: url(#Dégradé_sans_nom_8-2);
      }

      .cls-3 {
        fill: url(#Dégradé_sans_nom_81);
      }

      .cls-4 {
        fill: url(#Dégradé_sans_nom_47-3);
      }

      .cls-5 {
        fill: url(#Dégradé_sans_nom_81-2);
      }

      .cls-6 {
        fill: url(#Dégradé_sans_nom_47);
      }

      .cls-7 {
        fill: url(#Dégradé_sans_nom_47-5);
      }

      .cls-8 {
        fill: url(#Dégradé_sans_nom_47-2);
      }

      .cls-9 {
        fill: url(#Dégradé_sans_nom_47-4);
      }

      .cls-10 {
        fill: url(#Dégradé_sans_nom_8);
      }
    </style>
    <linearGradient id="Dégradé_sans_nom_47" data-name="Dégradé sans nom 47" x1="223.31" y1="388.1" x2="922.19" y2="388.1" gradientUnits="userSpaceOnUse">
      <stop offset="0" stop-color="#70623e" stop-opacity=".3"/>
      <stop offset="1" stop-color="#a89d8a"/>
    </linearGradient>
    <linearGradient id="Dégradé_sans_nom_47-2" data-name="Dégradé sans nom 47" x1=".3" y1="217.85" x2="944.48" y2="217.85" xlink:href="#Dégradé_sans_nom_47"/>
    <linearGradient id="Dégradé_sans_nom_8" data-name="Dégradé sans nom 8" x1="462.19" y1="-4" x2="462.19" y2="424.37" gradientUnits="userSpaceOnUse">
      <stop offset="0" stop-color="#c9a84c"/>
      <stop offset="1" stop-color="#70623e"/>
    </linearGradient>
    <linearGradient id="Dégradé_sans_nom_47-3" data-name="Dégradé sans nom 47" x1="465.79" y1="428.36" x2="465.79" y2="66.59" xlink:href="#Dégradé_sans_nom_47"/>
    <linearGradient id="Dégradé_sans_nom_81" data-name="Dégradé sans nom 81" x1="568.08" y1="732.28" x2="636.2" y2="305.66" gradientUnits="userSpaceOnUse">
      <stop offset="0" stop-color="#70623e" stop-opacity=".5"/>
      <stop offset="1" stop-color="#c9a84c"/>
    </linearGradient>
    <linearGradient id="Dégradé_sans_nom_47-4" data-name="Dégradé sans nom 47" x1="1697.31" y1="388.1" x2="998.43" y2="388.1" xlink:href="#Dégradé_sans_nom_47"/>
    <linearGradient id="Dégradé_sans_nom_47-5" data-name="Dégradé sans nom 47" x1="1920.32" y1="217.85" x2="976.15" y2="217.85" xlink:href="#Dégradé_sans_nom_47"/>
    <linearGradient id="Dégradé_sans_nom_8-2" data-name="Dégradé sans nom 8" x1="1458.44" y1="-4" x2="1458.44" y2="424.37" xlink:href="#Dégradé_sans_nom_8"/>
    <linearGradient id="Dégradé_sans_nom_47-6" data-name="Dégradé sans nom 47" x1="1454.83" y1="428.36" x2="1454.83" y2="66.59" xlink:href="#Dégradé_sans_nom_47"/>
    <linearGradient id="Dégradé_sans_nom_81-2" data-name="Dégradé sans nom 81" x1="1352.54" y1="732.28" x2="1284.42" y2="305.66" xlink:href="#Dégradé_sans_nom_81"/>
  </defs>
  <g id="Base">
    <g>
      <path class="cls-6" d="M223.31,530.65c7.27-4.38,14.83-8.3,22.66-11.6,7.83-3.31,15.92-5.99,24.16-8.05,8.25-2.07,16.64-3.53,25.07-4.6,8.43-1.09,16.89-1.83,25.33-2.71,8.44-.87,16.87-1.9,25.14-3.7,8.27-1.78,16.37-4.39,23.99-8.04,7.64-3.62,14.75-8.28,21.28-13.64,6.49-5.47,13.34-10.62,20.7-14.94,7.35-4.33,15.19-7.86,23.35-10.38,8.16-2.53,16.61-4.06,25.1-4.81,17.02-1.49,34.09-.16,50.97,1.62,16.9,1.83,33.72,4.2,50.56,6.34,8.42,1.07,16.85,2.15,25.26,3.06,8.41.87,16.87,1.25,25.32,1.04,8.44-.24,16.86-1.08,25.15-2.65,8.29-1.57,16.43-3.87,24.35-6.78,15.89-5.79,30.72-14.08,45.45-22.49,14.72-8.43,29.55-16.88,45.17-23.72,7.8-3.43,15.76-6.51,23.88-9.13,4.06-1.31,8.14-2.53,12.26-3.63,4.1-1.1,8.19-2.19,12.27-3.36,16.27-4.64,32.32-10.32,46.96-18.75,14.67-8.33,27.72-19.39,38.5-32.37,5.42-6.51,10.71-13.14,15.71-19.96,4.93-6.84,9.66-13.91,12.74-21.68.75-1.94,1.4-3.92,1.92-5.94.49-2.02.9-4.07,1.17-6.14.55-4.15.73-8.37.91-12.61.3-8.48.79-17.01,1.79-25.47l1.76.2c-.96,8.41-1.4,16.85-1.67,25.34-.16,4.24-.32,8.52-.87,12.79-.27,2.14-.68,4.26-1.19,6.37-.53,2.1-1.19,4.16-1.97,6.18-3.17,8.07-7.96,15.25-12.9,22.18-5.03,6.89-10.35,13.53-15.79,20.07-10.92,13.15-24.19,24.39-39.08,32.83-14.85,8.54-31.08,14.27-47.43,18.92-4.09,1.17-8.2,2.27-12.3,3.37-4.09,1.09-8.14,2.3-12.16,3.59-8.05,2.59-15.94,5.65-23.69,9.05-15.51,6.79-30.25,15.18-44.99,23.62-14.73,8.41-29.68,16.77-45.76,22.62-8.02,2.92-16.29,5.22-24.69,6.78-8.4,1.56-16.93,2.38-25.46,2.59-8.53.18-17.07-.23-25.54-1.14-8.46-.95-16.87-2.05-25.3-3.15-16.84-2.2-33.65-4.61-50.51-6.49-16.84-1.83-33.82-3.19-50.69-1.77-8.42.72-16.78,2.21-24.85,4.68-8.07,2.47-15.83,5.93-23.12,10.2-7.31,4.25-14.1,9.32-20.6,14.77-6.61,5.38-13.82,10.06-21.55,13.69-7.71,3.66-15.9,6.25-24.23,8.01-8.33,1.79-16.8,2.78-25.25,3.61-8.46.82-16.92,1.48-25.34,2.51-8.42,1.01-16.8,2.4-25.04,4.4-8.24,1.99-16.34,4.6-24.18,7.84-7.84,3.24-15.43,7.09-22.73,11.42Z"/>
      <path class="cls-8" d="M856.07,0c6.91.44,13.78,1.46,20.56,2.87,6.78,1.42,13.47,3.3,19.94,5.78,6.46,2.5,12.72,5.61,18.36,9.67,5.62,4.05,10.61,9.13,14.01,15.22,3.43,6.07,5.11,13.07,5.12,20.02.02,3.48-.34,6.96-.98,10.38-.64,3.41-1.39,6.8-2.24,10.16-1.7,6.73-3.84,13.34-6.32,19.82-2.46,6.49-5.26,12.83-7.9,19.22-2.62,6.39-5.08,12.88-6.24,19.66-1.18,6.77-.79,13.75,1.02,20.37,1.8,6.63,4.78,12.9,8.25,18.85,3.47,5.96,7.45,11.61,11.63,17.11,1.06,1.36,2.11,2.72,3.16,4.15,1,1.44,1.94,2.92,2.78,4.46,1.68,3.07,3.04,6.31,4.1,9.64,2.11,6.67,3.06,13.66,3.14,20.63.12,13.96-3.13,27.87-9.04,40.48-5.9,12.63-14.53,24.01-25.25,32.96-10.69,8.99-23.4,15.48-36.83,19.23-6.71,1.91-13.61,3.11-20.54,3.81-3.49.32-6.92.5-10.34.87-3.43.34-6.85.79-10.25,1.31-13.62,2.12-27.01,5.66-40.08,10.08-26.18,8.84-51.12,21-76.87,31.3-12.87,5.15-25.97,9.84-39.41,13.41-6.72,1.79-13.52,3.28-20.37,4.46-6.86,1.14-13.78,1.97-20.73,2.41-6.95.42-13.92.47-20.87.15-1.74-.1-3.47-.2-5.21-.33l-5.19-.44c-3.43-.31-6.87-.56-10.31-.71-13.75-.61-27.61.16-40.97,3.37-6.67,1.6-13.19,3.81-19.48,6.56-6.3,2.75-12.35,6.03-18.3,9.53-5.95,3.5-11.81,7.19-17.83,10.66-6.02,3.47-12.22,6.7-18.67,9.36-12.91,5.38-26.8,8.2-40.71,8.95-3.48.17-6.97.3-10.44.25-3.48.01-6.95-.09-10.43-.24-6.95-.33-13.9-1.03-20.76-2.3-6.87-1.25-13.63-3.1-20.17-5.55-6.55-2.41-12.85-5.39-19.09-8.41-6.23-3.03-12.43-6.06-18.76-8.81-6.32-2.76-12.74-5.27-19.27-7.48-6.53-2.21-13.16-4.12-19.85-5.8-6.71-1.65-13.4-3.33-20.21-4.06-13.65-1.58-27.47-.31-41.15,1.52-13.7,1.84-27.42,3.98-41.28,5.03-13.85,1.05-27.79,1.18-41.64.05-13.86-1.04-27.61-3.25-41.16-6.24-3.4-.7-6.76-1.59-10.13-2.4-3.37-.81-6.74-1.79-10.04-2.9-6.61-2.23-13.02-5.01-19.23-8.15-12.44-6.27-23.99-14.03-35.68-21.4-5.85-3.66-11.77-7.23-18-10.1-6.2-2.83-12.84-4.99-19.61-4.92l-.02-1.77c7.16-.07,14.03,2.18,20.37,5.06,6.36,2.93,12.33,6.52,18.21,10.19,11.73,7.38,23.23,15.09,35.55,21.28,6.15,3.1,12.48,5.84,18.99,8.03,3.26,1.09,6.55,2.05,9.91,2.84,3.36.8,6.7,1.69,10.08,2.38,13.48,2.96,27.14,5.15,40.9,6.17,13.75,1.11,27.59.96,41.34-.09,13.77-1.06,27.43-3.2,41.17-5.06,13.71-1.84,27.72-3.16,41.64-1.56,1.74.19,3.46.48,5.19.72l5.15.99c3.39.77,6.78,1.51,10.14,2.38,6.74,1.69,13.42,3.61,20.01,5.83,6.59,2.22,13.08,4.74,19.44,7.53,6.37,2.77,12.61,5.83,18.83,8.85,6.23,3.01,12.46,5.96,18.91,8.33,6.43,2.41,13.07,4.22,19.82,5.45,6.75,1.25,13.61,1.95,20.49,2.27,3.44.15,6.88.25,10.33.24,3.45.05,6.88-.07,10.32-.24,13.72-.74,27.35-3.51,40.04-8.79,6.35-2.61,12.46-5.79,18.43-9.23,5.98-3.44,11.83-7.13,17.82-10.65,5.98-3.52,12.12-6.85,18.52-9.64,6.39-2.8,13.04-5.05,19.83-6.67,13.6-3.27,27.66-4.04,41.54-3.42,3.48.15,6.94.4,10.41.72l5.16.44c1.72.13,3.44.22,5.15.32,6.88.32,13.77.27,20.64-.14,6.87-.43,13.72-1.25,20.51-2.38,6.79-1.17,13.53-2.63,20.19-4.41,13.33-3.53,26.36-8.19,39.18-13.32,25.66-10.26,50.63-22.45,77.01-31.24,13.16-4.41,26.66-7.94,40.41-10.03,3.44-.51,6.89-.97,10.35-1.29,3.46-.36,6.95-.54,10.35-.84,6.84-.67,13.64-1.83,20.26-3.69,13.24-3.65,25.76-10,36.31-18.81,10.57-8.77,19.11-19.95,24.97-32.38,5.87-12.42,9.13-26.14,9.05-39.89-.06-6.86-.98-13.74-3.02-20.29-1.03-3.27-2.35-6.44-3.98-9.45-.81-1.51-1.73-2.95-2.69-4.36-1-1.37-2.06-2.75-3.12-4.12-4.18-5.53-8.17-11.23-11.65-17.25-3.48-6.01-6.48-12.37-8.29-19.12-.89-3.38-1.48-6.84-1.64-10.34-.18-3.49.08-7,.66-10.44,1.2-6.9,3.71-13.44,6.35-19.83,2.67-6.4,5.48-12.72,7.95-19.18,2.49-6.45,4.67-13.01,6.39-19.7,1.66-6.69,3.34-13.47,3.31-20.37.02-6.88-1.6-13.78-4.95-19.8-3.33-6.04-8.25-11.11-13.82-15.16-5.58-4.07-11.81-7.21-18.24-9.74-6.44-2.51-13.12-4.42-19.88-5.88-6.77-1.44-13.63-2.5-20.53-2.98Z"/>
      <path class="cls-10" d="M589.37,0l93.98,1.42,93.97,1.51,23.49.41,5.87.11,2.98.09,2.98.16c3.96.27,7.92.73,11.84,1.39,15.69,2.62,30.85,8.47,44.27,17.06,13.43,8.58,25.15,19.86,34.21,33.02,9.08,13.14,15.5,28.14,18.71,43.83,1.61,7.84,2.42,15.85,2.45,23.86l-.09,23.51-.28,46.99-.15,23.5-.07,11.75c0,3.91-.12,8.02-.52,12.02-1.47,16.09-6.96,31.84-15.69,45.44-8.72,13.64-20.38,25.14-33.28,34.57-12.92,9.47-27.09,17-41.74,23.15-3.67,1.54-7.37,2.99-11.09,4.35-1.86.68-3.75,1.34-5.6,1.99l-5.51,1.93-22.14,7.9c-14.81,5.22-29.71,10.21-44.72,14.89-60.05,18.61-121.65,32.36-184.01,40.63-31.18,4.14-62.54,6.93-93.97,8.3-15.71.68-31.45,1.04-47.18.96-15.73-.08-31.46-.52-47.17-1.32-62.85-3.18-125.4-12.33-186.48-27.46l-22.79-5.76-5.68-1.44-5.69-1.38-11.39-2.75c-15.21-3.53-30.46-6.88-45.77-9.72-15.32-2.84-30.71-5.12-46.16-6.46-15.44-1.48-30.96-1.53-46.7-1.82l.11-7.08c15.58.14,31.43.03,47.21,1.39,15.77,1.26,31.42,3.5,46.92,6.27,15.5,2.78,30.88,6.06,46.21,9.52l11.47,2.69,5.73,1.35,5.71,1.41,22.81,5.62c30.29,7.44,60.95,13.36,91.82,17.88,30.87,4.43,61.95,7.51,93.1,9,15.58.76,31.17,1.17,46.77,1.22,15.6.07,31.19-.21,46.78-.86,31.17-1.28,62.29-3.96,93.23-7.99,61.89-8.05,123.07-21.55,182.75-39.87,14.93-4.56,29.77-9.41,44.55-14.5l22.17-7.74,5.59-1.92c1.85-.63,3.66-1.25,5.48-1.9,3.64-1.3,7.24-2.69,10.81-4.15,14.26-5.87,27.99-13.06,40.42-22.04,12.41-8.95,23.51-19.78,31.78-32.51,8.28-12.71,13.49-27.33,14.99-42.45.4-3.8.54-7.52.57-11.44l.15-11.75.31-23.49.63-46.99.35-23.48c.06-7.65-.63-15.31-2.08-22.83-2.9-15.04-8.89-29.49-17.47-42.22-8.56-12.75-19.73-23.75-32.61-32.18-12.87-8.44-27.46-14.27-42.65-16.98-3.8-.68-7.63-1.17-11.47-1.47l-2.89-.19-2.89-.12-5.87-.17-23.49-.7-93.94-2.95-93.94-3.04Z"/>
      <path class="cls-4" d="M792.02,84.89c2.92-1.93,6.02-3.59,9.16-5.13,3.15-1.54,6.37-2.92,9.65-4.16,6.56-2.46,13.33-4.4,20.22-5.7,6.89-1.34,13.9-2,20.92-2.12,7.02-.06,14.05.48,20.98,1.63,3.46.61,6.92,1.25,10.3,2.23,3.39.95,6.71,2.14,9.94,3.55,6.45,2.84,12.49,6.66,17.72,11.41,5.24,4.73,9.66,10.39,12.98,16.64,3.33,6.24,5.56,13.05,6.72,20.03,1.17,6.98,1.24,14.11.46,21.13-.81,7.02-2.48,13.92-4.83,20.57-2.35,6.65-5.38,13.05-8.89,19.16-.88,1.53-1.79,3.03-2.73,4.52-.91,1.49-1.81,2.95-2.6,4.49-1.61,3.06-2.94,6.25-3.97,9.55-2.07,6.59-2.88,13.54-2.73,20.46.14,6.93,1.18,13.83,2.64,20.64,2.91,13.64,7.6,26.88,10.58,40.67,1.45,6.89,2.47,13.99,1.92,21.16-.5,7.13-2.93,14.31-7.4,20.01-4.4,5.76-10.34,10.06-16.57,13.44-6.23,3.39-12.84,6.03-19.59,8.14-13.54,4.15-27.63,6.04-41.67,6.86-14.06.81-28.13.54-42.14.07-14.02-.47-28-1.2-41.96-1.27-6.97-.02-13.94.14-20.86.75-6.9.61-13.78,1.66-20.36,3.61-3.3.97-6.44,2.25-9.59,3.72-1.59.68-3.1,1.52-4.66,2.27-1.52.82-3.04,1.63-4.53,2.51-2.97,1.75-5.84,3.66-8.61,5.71-2.75,2.08-5.41,4.28-7.97,6.61-5.11,4.67-9.85,9.8-14.89,14.75-5.01,4.96-10.42,9.65-16.36,13.58-11.89,7.93-25.45,12.82-39.11,16.22l-2.57.64-2.58.57c-1.73.36-3.42.79-5.19,1.1-3.52.66-7.07,1.05-10.62,1.26-7.11.41-14.21.05-21.23-.7-14.05-1.52-27.82-4.5-41.5-7.62-13.67-3.14-27.26-6.5-40.94-9.35-13.67-2.85-27.45-5.2-41.33-6.25-6.94-.52-13.89-.7-20.81-.39-6.93.3-13.84,1.07-20.68,2.24-13.71,2.31-27.08,6.36-40.4,10.63-13.32,4.25-26.7,8.78-40.63,11.37-6.96,1.29-14.03,2.12-21.13,2.25-3.55.02-7.11-.04-10.65-.35-3.54-.27-7.09-.7-10.59-1.4-7.01-1.36-13.87-3.76-20.16-7.2-6.31-3.42-11.97-7.82-17.32-12.4-5.35-4.58-10.49-9.32-15.91-13.66-5.41-4.35-11.09-8.33-17.12-11.7-12.05-6.81-25.37-11.18-38.97-13.98-13.67-2.8-27.5-4.88-41.4-6.02-3.48-.26-6.95-.57-10.43-.69l-5.22-.23-5.23-.1-2.61-.04-2.61.03-5.23.06c-3.48.16-6.96.22-10.44.5-6.95.43-13.88,1.22-20.75,2.32-6.87,1.1-13.69,2.52-20.4,4.34-6.71,1.82-13.31,4.03-19.72,6.69-3.19,1.35-6.34,2.8-9.41,4.4-3.04,1.6-6.11,3.35-8.79,5.3l-1.62-2.1c2.98-2.17,6.03-3.89,9.18-5.56,3.14-1.64,6.36-3.13,9.61-4.51,6.53-2.72,13.24-4.98,20.04-6.83,6.81-1.86,13.72-3.31,20.68-4.43,6.96-1.13,13.97-1.93,21-2.38,3.51-.3,7.03-.36,10.55-.53l5.28-.07,2.64-.03,2.64.04,5.28.09,5.27.23c3.52.12,7.02.42,10.53.68,14.03,1.13,27.96,3.2,41.75,6,13.82,2.82,27.45,7.26,39.85,14.23,6.2,3.45,12.05,7.53,17.56,11.95,5.52,4.42,10.7,9.17,16,13.69,5.29,4.51,10.77,8.75,16.81,12,6.01,3.28,12.54,5.53,19.28,6.85,3.37.68,6.79,1.1,10.23,1.36,3.44.3,6.89.36,10.34.34,6.91-.12,13.8-.93,20.61-2.19,13.65-2.54,26.91-7.01,40.25-11.27,13.34-4.28,26.88-8.38,40.82-10.73,6.96-1.19,14.01-1.97,21.07-2.28,7.07-.31,14.15-.13,21.18.4,14.07,1.07,27.98,3.45,41.73,6.32,13.75,2.86,27.37,6.23,41,9.37,13.63,3.11,27.31,6.07,41.13,7.57,6.9.73,13.84,1.08,20.73.69,3.44-.19,6.86-.57,10.23-1.21,1.68-.29,3.39-.72,5.09-1.08l2.55-.56,2.53-.63c13.46-3.34,26.67-8.13,38.16-15.78,5.75-3.8,10.98-8.33,15.92-13.21,4.96-4.87,9.74-10.04,14.97-14.82,2.62-2.38,5.36-4.65,8.2-6.8,2.86-2.11,5.83-4.09,8.89-5.89,1.53-.9,3.1-1.74,4.66-2.58,1.6-.77,3.16-1.63,4.79-2.33,3.19-1.49,6.56-2.86,9.99-3.86,6.86-2.03,13.92-3.09,20.96-3.71,7.05-.62,14.1-.77,21.13-.75,14.07.05,28.07.88,42.05,1.41,13.98.54,27.96.87,41.89.13,13.9-.75,27.8-2.55,41.1-6.56,6.63-2.03,13.1-4.58,19.19-7.87,6.06-3.24,11.74-7.34,15.9-12.73,4.22-5.34,6.53-11.99,7.04-18.8.56-6.83-.38-13.76-1.79-20.56-2.87-13.62-7.51-26.91-10.38-40.71-1.44-6.89-2.48-13.91-2.58-21-.12-7.07.74-14.22,2.91-21,1.08-3.39,2.46-6.67,4.13-9.81.82-1.57,1.76-3.09,2.68-4.59.93-1.47,1.84-2.95,2.72-4.46,3.5-6.02,6.51-12.32,8.86-18.87,2.35-6.54,4.03-13.33,4.85-20.23.8-6.9.76-13.91-.36-20.76-1.1-6.85-3.26-13.53-6.5-19.67-3.23-6.13-7.5-11.73-12.62-16.43-5.1-4.72-11.02-8.53-17.37-11.39-3.17-1.43-6.45-2.62-9.8-3.6-3.34-1-6.77-1.66-10.21-2.29-6.88-1.2-13.87-1.79-20.86-1.79-6.99.06-13.98.66-20.86,1.94-6.89,1.24-13.65,3.11-20.23,5.52-3.28,1.21-6.51,2.57-9.67,4.08-3.16,1.51-6.26,3.15-9.2,5.05Z"/>
      <path class="cls-3" d="M901.52,348.5c-7.29,14.65-12.65,30.21-16.01,46.18-3.45,15.97-4.9,32.26-7.35,48.48-1.26,8.1-2.88,16.22-5.58,24.05-2.67,7.83-6.57,15.31-11.69,21.88-5.09,6.59-11.43,12.15-18.1,16.96-1.67,1.21-3.37,2.38-5.09,3.54-1.75,1.1-3.47,2.26-5.29,3.26-3.57,2.1-7.33,3.93-11.23,5.42-3.9,1.49-7.95,2.62-12.07,3.31-4.12.7-8.3.97-12.44,1-8.28.05-16.42-.62-24.53-.52-8.11.03-16.19.77-24.17,2.15-7.98,1.39-15.85,3.41-23.59,5.9-.96.31-1.95.61-2.89.93-.93.32-1.85.69-2.76,1.07-1.83.79-3.63,1.68-5.42,2.62-3.57,1.89-7.08,3.96-10.56,6.07-6.96,4.24-13.83,8.68-20.77,13.03-13.87,8.7-27.99,17.13-42.86,24.18-7.43,3.51-15.03,6.71-22.85,9.31-3.91,1.3-7.86,2.49-11.87,3.48-4.01.97-8.07,1.78-12.16,2.37-8.18,1.2-16.52,1.44-24.76.57-8.23-.95-16.36-3-23.93-6.39-7.59-3.32-14.63-7.84-20.94-13.16-1.61-1.33-3.1-2.61-4.74-3.8-1.62-1.18-3.33-2.26-5.07-3.25-3.51-1.96-7.25-3.49-11.13-4.57-7.77-2.15-15.98-2.42-24.01-1.44-8.04,1-15.93,3.17-23.55,6-15.25,5.71-29.53,13.86-43.09,22.91-13.57,9.09-26.45,19.19-38.87,29.82-12.41,10.64-24.35,21.84-35.9,33.41-11.55,11.58-22.78,23.49-33.44,35.89,10.54-12.51,21.66-24.53,33.1-36.23,11.48-11.67,23.34-22.96,35.69-33.71,12.36-10.74,25.2-20.95,38.75-30.18,6.78-4.6,13.73-8.96,20.92-12.92,7.19-3.96,14.6-7.53,22.3-10.44,7.69-2.9,15.68-5.14,23.88-6.19,8.18-1.04,16.63-.81,24.67,1.38,4.01,1.09,7.9,2.66,11.54,4.68,1.81,1.02,3.58,2.13,5.27,3.35,1.68,1.2,3.3,2.59,4.86,3.85,6.24,5.17,13.14,9.53,20.57,12.71,7.4,3.25,15.33,5.18,23.35,6.04,8.04.78,16.17.49,24.17-.75,16.03-2.45,31.44-8.14,46.11-15.12,14.7-7.01,28.71-15.42,42.52-24.13,6.92-4.35,13.78-8.81,20.77-13.1,3.5-2.14,7.04-4.24,10.7-6.18,1.83-.97,3.7-1.89,5.62-2.73.97-.41,1.95-.8,2.95-1.16.99-.34,1.96-.64,2.94-.96,7.83-2.55,15.83-4.64,23.96-6.09,2.03-.38,4.08-.66,6.12-.95,2.05-.23,4.1-.51,6.17-.65,4.12-.37,8.25-.52,12.37-.53,8.25-.07,16.45.64,24.53.62,4.04-.02,8.06-.26,12-.91,3.95-.64,7.82-1.7,11.56-3.12,3.75-1.41,7.38-3.16,10.87-5.19,1.77-.96,3.45-2.09,5.17-3.15,1.68-1.12,3.35-2.27,5-3.44,3.28-2.4,6.49-4.84,9.45-7.58,2.99-2.7,5.72-5.67,8.24-8.8,5.02-6.28,8.88-13.45,11.59-21.07,2.73-7.61,4.44-15.59,5.79-23.63,1.35-8.04,2.37-16.16,3.59-24.26,1.19-8.1,2.65-16.18,4.52-24.17,1.87-7.98,4.19-15.87,7.03-23.55,2.83-7.69,6.23-15.16,10.07-22.38Z"/>
      <path class="cls-9" d="M1697.31,530.65c-7.3-4.33-14.89-8.18-22.73-11.42-7.84-3.24-15.94-5.85-24.18-7.84-8.24-2-16.62-3.39-25.04-4.4-8.42-1.03-16.88-1.69-25.34-2.51-8.45-.84-16.91-1.83-25.25-3.61-8.33-1.76-16.52-4.35-24.23-8.01-7.73-3.62-14.94-8.31-21.55-13.69-6.51-5.45-13.29-10.51-20.6-14.77-7.29-4.26-15.05-7.73-23.12-10.2-8.07-2.48-16.43-3.97-24.85-4.68-16.87-1.42-33.85-.06-50.69,1.77-16.86,1.88-33.67,4.3-50.51,6.49-8.43,1.09-16.83,2.2-25.3,3.15-8.47.91-17.01,1.32-25.54,1.14-8.53-.21-17.06-1.03-25.46-2.59-8.4-1.56-16.66-3.86-24.69-6.78-16.08-5.85-31.03-14.21-45.76-22.62-14.73-8.43-29.48-16.83-44.99-23.62-7.74-3.4-15.64-6.46-23.69-9.05-4.02-1.3-8.07-2.51-12.16-3.59-4.1-1.09-8.21-2.2-12.3-3.37-16.35-4.65-32.58-10.38-47.43-18.92-14.88-8.44-28.15-19.68-39.08-32.83-5.44-6.54-10.76-13.18-15.79-20.07-4.94-6.93-9.73-14.11-12.9-22.18-.77-2.02-1.44-4.08-1.97-6.18-.5-2.1-.92-4.23-1.19-6.37-.55-4.27-.71-8.55-.87-12.79-.27-8.49-.71-16.93-1.67-25.34l1.76-.2c1,8.46,1.48,16.99,1.79,25.47.18,4.24.36,8.46.91,12.61.27,2.08.68,4.12,1.17,6.14.52,2.02,1.16,4,1.92,5.94,3.08,7.77,7.82,14.83,12.74,21.68,5,6.81,10.29,13.45,15.71,19.96,10.77,12.97,23.83,24.04,38.5,32.37,14.64,8.43,30.69,14.11,46.96,18.75,4.07,1.17,8.16,2.26,12.27,3.36,4.12,1.1,8.2,2.32,12.26,3.63,8.12,2.62,16.07,5.71,23.88,9.13,15.62,6.85,30.45,15.29,45.17,23.72,14.73,8.41,29.56,16.71,45.45,22.49,7.92,2.92,16.06,5.21,24.35,6.78,8.29,1.57,16.71,2.41,25.15,2.65,8.44.21,16.9-.17,25.32-1.04,8.42-.91,16.85-1.99,25.26-3.06,16.84-2.14,33.66-4.51,50.56-6.34,16.88-1.78,33.95-3.1,50.97-1.62,8.49.75,16.94,2.28,25.1,4.81,8.16,2.52,16,6.05,23.35,10.38,7.36,4.31,14.21,9.46,20.7,14.94,6.53,5.36,13.65,10.02,21.28,13.64,7.62,3.65,15.72,6.26,23.99,8.04,8.27,1.81,16.7,2.83,25.14,3.7,8.44.88,16.9,1.61,25.33,2.71,8.43,1.08,16.82,2.53,25.07,4.6,8.25,2.06,16.34,4.74,24.16,8.05,7.83,3.3,15.39,7.22,22.66,11.6Z"/>
      <path class="cls-7" d="M1064.55,0c-6.91.48-13.77,1.54-20.53,2.98-6.76,1.45-13.44,3.37-19.88,5.88-6.43,2.53-12.65,5.66-18.24,9.74-5.57,4.06-10.48,9.12-13.82,15.16-3.35,6.02-4.98,12.93-4.95,19.8-.03,6.9,1.65,13.67,3.31,20.37,1.73,6.69,3.91,13.26,6.39,19.7,2.47,6.46,5.28,12.78,7.95,19.18,2.64,6.39,5.15,12.94,6.35,19.83.58,3.44.84,6.95.66,10.44-.16,3.5-.75,6.96-1.64,10.34-1.82,6.75-4.81,13.11-8.29,19.12-3.48,6.02-7.47,11.72-11.65,17.25-1.06,1.38-2.12,2.75-3.12,4.12-.96,1.41-1.89,2.85-2.69,4.36-1.63,3-2.95,6.18-3.98,9.45-2.05,6.55-2.96,13.43-3.02,20.29-.08,13.75,3.18,27.47,9.05,39.89,5.86,12.43,14.4,23.61,24.97,32.38,10.55,8.81,23.07,15.16,36.31,18.81,6.61,1.86,13.42,3.02,20.26,3.69,3.41.3,6.9.48,10.35.84,3.46.33,6.91.78,10.35,1.29,13.75,2.1,27.25,5.62,40.41,10.03,26.38,8.79,51.35,20.97,77.01,31.24,12.83,5.13,25.85,9.79,39.18,13.32,6.66,1.78,13.4,3.24,20.19,4.41,6.79,1.13,13.64,1.95,20.51,2.38,6.87.41,13.77.46,20.64.14,1.72-.1,3.44-.2,5.15-.32l5.16-.44c3.46-.32,6.93-.57,10.41-.72,13.88-.62,27.94.15,41.54,3.42,6.79,1.63,13.44,3.87,19.83,6.67,6.4,2.79,12.54,6.12,18.52,9.64,5.99,3.52,11.84,7.21,17.82,10.65,5.97,3.44,12.08,6.62,18.43,9.23,12.69,5.28,26.31,8.05,40.04,8.79,3.43.17,6.87.29,10.32.24,3.45.01,6.89-.09,10.33-.24,6.88-.33,13.73-1.02,20.49-2.27,6.75-1.23,13.39-3.04,19.82-5.45,6.45-2.37,12.68-5.32,18.91-8.33,6.22-3.02,12.46-6.08,18.83-8.85,6.37-2.79,12.86-5.31,19.44-7.53,6.59-2.22,13.27-4.14,20.01-5.83,3.36-.87,6.76-1.61,10.14-2.38l5.15-.99c1.73-.24,3.46-.52,5.19-.72,13.93-1.6,27.93-.28,41.64,1.56,13.74,1.86,27.4,4,41.17,5.06,13.76,1.05,27.59,1.2,41.34.09,13.76-1.01,27.42-3.21,40.9-6.17,3.38-.69,6.72-1.58,10.08-2.38,3.36-.8,6.64-1.76,9.91-2.84,6.51-2.19,12.84-4.92,18.99-8.03,12.32-6.19,23.82-13.9,35.55-21.28,5.88-3.67,11.85-7.26,18.21-10.19,6.33-2.88,13.21-5.13,20.37-5.06l-.02,1.77c-6.77-.06-13.4,2.09-19.61,4.92-6.22,2.87-12.14,6.44-18,10.1-11.68,7.37-23.24,15.13-35.68,21.4-6.21,3.14-12.62,5.92-19.23,8.15-3.3,1.11-6.67,2.09-10.04,2.9-3.38.81-6.73,1.7-10.13,2.4-13.55,2.99-27.3,5.21-41.16,6.24-13.85,1.13-27.8,1-41.64-.05-13.85-1.06-27.58-3.19-41.28-5.03-13.68-1.83-27.5-3.1-41.15-1.52-6.81.72-13.5,2.41-20.21,4.06-6.69,1.69-13.32,3.6-19.85,5.8-6.53,2.2-12.95,4.71-19.27,7.48-6.32,2.75-12.52,5.79-18.76,8.81-6.24,3.01-12.54,6-19.09,8.41-6.54,2.45-13.31,4.3-20.17,5.55-6.86,1.27-13.81,1.97-20.76,2.3-3.48.15-6.95.25-10.43.24-3.47.05-6.96-.08-10.44-.25-13.91-.75-27.8-3.58-40.71-8.95-6.46-2.66-12.66-5.89-18.67-9.36-6.02-3.47-11.88-7.16-17.83-10.66-5.95-3.5-12-6.79-18.3-9.53-6.29-2.76-12.81-4.96-19.48-6.56-13.36-3.21-27.23-3.99-40.97-3.37-3.44.15-6.88.39-10.31.71l-5.19.44c-1.74.13-3.47.23-5.21.33-6.95.32-13.92.27-20.87-.15-6.95-.44-13.86-1.26-20.73-2.41-6.85-1.18-13.66-2.66-20.37-4.46-13.44-3.57-26.54-8.26-39.41-13.41-25.75-10.3-50.68-22.46-76.87-31.3-13.07-4.43-26.45-7.96-40.08-10.08-3.41-.52-6.82-.98-10.25-1.31-3.43-.37-6.86-.55-10.34-.87-6.93-.7-13.83-1.9-20.54-3.81-13.43-3.75-26.14-10.24-36.83-19.23-10.72-8.95-19.35-20.33-25.25-32.96-5.91-12.61-9.17-26.52-9.04-40.48.08-6.97,1.03-13.96,3.14-20.63,1.06-3.33,2.42-6.57,4.1-9.64.83-1.54,1.78-3.02,2.78-4.46,1.04-1.42,2.1-2.78,3.16-4.15,4.18-5.49,8.16-11.15,11.63-17.11,3.47-5.95,6.44-12.22,8.25-18.85,1.81-6.62,2.2-13.61,1.02-20.37-1.15-6.78-3.62-13.27-6.24-19.66-2.64-6.39-5.44-12.73-7.9-19.22-2.48-6.48-4.62-13.09-6.32-19.82-.85-3.36-1.6-6.75-2.24-10.16-.64-3.42-.99-6.9-.98-10.38.01-6.96,1.7-13.95,5.12-20.02,3.41-6.09,8.39-11.17,14.01-15.22,5.64-4.06,11.9-7.17,18.36-9.67,6.47-2.48,13.16-4.36,19.94-5.78,6.78-1.4,13.65-2.42,20.56-2.87Z"/>
      <path class="cls-2" d="M1331.25,0l-93.94,3.04-93.94,2.95-23.49.7-5.87.17-2.89.12-2.89.19c-3.85.3-7.68.79-11.47,1.47-15.19,2.71-29.78,8.54-42.65,16.98-12.87,8.43-24.04,19.43-32.61,32.18-8.58,12.73-14.57,27.18-17.47,42.22-1.46,7.52-2.15,15.18-2.08,22.83l.35,23.48.63,46.99.31,23.49.15,11.75c.03,3.92.17,7.64.57,11.44,1.49,15.12,6.71,29.74,14.99,42.45,8.27,12.74,19.36,23.57,31.78,32.51,12.43,8.98,26.16,16.17,40.42,22.04,3.57,1.47,7.17,2.85,10.81,4.15,1.82.65,3.64,1.28,5.48,1.9l5.59,1.92,22.17,7.74c14.77,5.1,29.61,9.95,44.55,14.5,59.69,18.33,120.86,31.82,182.75,39.87,30.94,4.03,62.06,6.72,93.23,7.99,15.58.64,31.18.93,46.78.86,15.6-.05,31.19-.46,46.77-1.22,31.16-1.49,62.23-4.56,93.1-9,30.86-4.51,61.52-10.43,91.82-17.88l22.81-5.62,5.71-1.41,5.73-1.35,11.47-2.69c15.33-3.46,30.71-6.74,46.21-9.52,15.5-2.78,31.15-5.01,46.92-6.27,15.77-1.36,31.63-1.25,47.21-1.39l.11,7.08c-15.73.29-31.25.34-46.7,1.82-15.45,1.34-30.84,3.62-46.16,6.46-15.32,2.84-30.56,6.19-45.77,9.72l-11.39,2.75-5.69,1.38-5.68,1.44-22.79,5.76c-61.08,15.12-123.64,24.28-186.48,27.46-15.71.8-31.44,1.24-47.17,1.32-15.73.08-31.46-.28-47.18-.96-31.43-1.37-62.79-4.15-93.97-8.3-62.36-8.27-123.96-22.03-184.01-40.63-15-4.68-29.91-9.67-44.72-14.89l-22.14-7.9-5.51-1.93c-1.86-.64-3.74-1.31-5.6-1.99-3.73-1.36-7.43-2.81-11.09-4.35-14.65-6.15-28.82-13.68-41.74-23.15-12.9-9.44-24.55-20.93-33.28-34.57-8.74-13.6-14.23-29.36-15.69-45.44-.4-3.99-.52-8.1-.52-12.02l-.07-11.75-.15-23.5-.28-46.99-.09-23.51c.02-8.01.84-16.02,2.45-23.86,3.21-15.69,9.63-30.69,18.71-43.83,9.06-13.16,20.78-24.44,34.21-33.02,13.42-8.59,28.58-14.44,44.27-17.06,3.92-.66,7.87-1.12,11.84-1.39l2.98-.16,2.98-.09,5.87-.11,23.49-.41,93.97-1.51,93.98-1.42Z"/>
      <path class="cls-1" d="M1128.6,84.89c-2.94-1.91-6.04-3.54-9.2-5.05-3.16-1.51-6.39-2.87-9.67-4.08-6.57-2.4-13.34-4.28-20.23-5.52-6.88-1.28-13.87-1.88-20.86-1.94-6.99,0-13.98.59-20.86,1.79-3.43.64-6.87,1.3-10.21,2.29-3.35.97-6.63,2.17-9.8,3.6-6.34,2.86-12.27,6.67-17.37,11.39-5.12,4.69-9.39,10.29-12.62,16.43-3.24,6.14-5.4,12.82-6.5,19.67-1.12,6.85-1.16,13.86-.36,20.76.82,6.9,2.5,13.69,4.85,20.23,2.35,6.55,5.36,12.85,8.86,18.87.88,1.5,1.79,2.99,2.72,4.46.92,1.5,1.87,3.01,2.68,4.59,1.67,3.13,3.06,6.42,4.13,9.81,2.17,6.78,3.03,13.92,2.91,21-.11,7.09-1.14,14.11-2.58,21-2.88,13.8-7.51,27.09-10.38,40.71-1.4,6.79-2.35,13.73-1.79,20.56.52,6.81,2.82,13.46,7.04,18.8,4.16,5.39,9.83,9.49,15.9,12.73,6.09,3.28,12.57,5.83,19.19,7.87,13.3,4.01,27.2,5.81,41.1,6.56,13.93.74,27.91.41,41.89-.13,13.98-.53,27.98-1.36,42.05-1.41,7.03-.02,14.08.13,21.13.75,7.04.62,14.09,1.69,20.96,3.71,3.43,1,6.79,2.37,9.99,3.86,1.63.7,3.19,1.56,4.79,2.33,1.56.84,3.13,1.68,4.66,2.58,3.07,1.8,6.03,3.78,8.89,5.89,2.84,2.14,5.58,4.41,8.2,6.8,5.24,4.78,10.02,9.95,14.97,14.82,4.94,4.89,10.18,9.41,15.92,13.21,11.48,7.66,24.69,12.44,38.16,15.78l2.53.63,2.55.56c1.69.35,3.41.78,5.09,1.08,3.37.64,6.79,1.01,10.23,1.21,6.88.39,13.83.04,20.73-.69,13.82-1.49,27.5-4.45,41.13-7.57,13.63-3.14,27.25-6.51,41-9.37,13.75-2.86,27.65-5.25,41.73-6.32,7.03-.53,14.11-.72,21.18-.4,7.07.31,14.11,1.09,21.07,2.28,13.95,2.35,27.48,6.45,40.82,10.73,13.35,4.26,26.61,8.74,40.25,11.27,6.81,1.27,13.7,2.07,20.61,2.19,3.45.02,6.91-.04,10.34-.34,3.44-.26,6.86-.68,10.23-1.36,6.74-1.32,13.26-3.57,19.28-6.85,6.03-3.26,11.52-7.49,16.81-12,5.3-4.52,10.48-9.27,16-13.69,5.51-4.42,11.35-8.5,17.56-11.95,12.4-6.97,26.04-11.41,39.85-14.23,13.78-2.8,27.72-4.87,41.75-6,3.51-.26,7.01-.56,10.53-.68l5.27-.23,5.28-.09,2.64-.04,2.64.03,5.28.07c3.52.17,7.04.23,10.55.53,7.03.45,14.04,1.25,21,2.38,6.96,1.12,13.87,2.57,20.68,4.43,6.81,1.86,13.51,4.12,20.04,6.83,3.25,1.38,6.47,2.87,9.61,4.51,3.15,1.67,6.19,3.39,9.18,5.56l-1.62,2.1c-2.69-1.95-5.75-3.7-8.79-5.3-3.07-1.6-6.22-3.05-9.41-4.4-6.41-2.65-13.01-4.87-19.72-6.69-6.71-1.82-13.53-3.24-20.4-4.34-6.87-1.1-13.8-1.88-20.75-2.32-3.47-.29-6.96-.35-10.44-.5l-5.23-.06-2.61-.03-2.61.04-5.23.1-5.22.23c-3.48.12-6.96.43-10.43.69-13.9,1.14-27.72,3.22-41.4,6.02-13.6,2.8-26.92,7.17-38.97,13.98-6.03,3.38-11.72,7.35-17.12,11.7-5.42,4.35-10.55,9.08-15.91,13.66-5.35,4.58-11.01,8.98-17.32,12.4-6.29,3.44-13.15,5.83-20.16,7.2-3.5.7-7.05,1.14-10.59,1.4-3.54.3-7.1.37-10.65.35-7.11-.13-14.18-.96-21.13-2.25-13.93-2.6-27.31-7.12-40.63-11.37-13.32-4.27-26.69-8.32-40.4-10.63-6.84-1.17-13.75-1.94-20.68-2.24-6.93-.31-13.88-.13-20.81.39-13.88,1.05-27.65,3.4-41.33,6.25-13.68,2.85-27.27,6.2-40.94,9.35-13.67,3.12-27.44,6.1-41.5,7.62-7.02.74-14.12,1.11-21.23.7-3.55-.2-7.11-.59-10.62-1.26-1.77-.31-3.46-.74-5.19-1.1l-2.58-.57-2.57-.64c-13.66-3.4-27.22-8.29-39.11-16.22-5.94-3.93-11.35-8.62-16.36-13.58-5.03-4.95-9.77-10.08-14.89-14.75-2.56-2.33-5.22-4.53-7.97-6.61-2.77-2.05-5.64-3.96-8.61-5.71-1.48-.88-3.01-1.69-4.53-2.51-1.56-.75-3.07-1.58-4.66-2.27-3.15-1.47-6.29-2.75-9.59-3.72-6.58-1.95-13.45-2.99-20.36-3.61-6.91-.61-13.88-.77-20.86-.75-13.95.07-27.94.8-41.96,1.27-14.01.47-28.08.74-42.14-.07-14.04-.82-28.13-2.71-41.67-6.86-6.75-2.11-13.36-4.75-19.59-8.14-6.23-3.37-12.17-7.68-16.57-13.44-4.47-5.7-6.91-12.88-7.4-20.01-.55-7.17.47-14.27,1.92-21.16,2.98-13.8,7.67-27.04,10.58-40.67,1.46-6.81,2.5-13.71,2.64-20.64.15-6.92-.66-13.87-2.73-20.46-1.03-3.29-2.36-6.49-3.97-9.55-.79-1.54-1.69-3-2.6-4.49-.94-1.49-1.85-3-2.73-4.52-3.51-6.11-6.54-12.51-8.89-19.16-2.35-6.65-4.03-13.55-4.83-20.57-.78-7.02-.71-14.15.46-21.13,1.15-6.97,3.39-13.78,6.72-20.03,3.31-6.25,7.73-11.91,12.98-16.64,5.23-4.76,11.27-8.57,17.72-11.41,3.23-1.42,6.55-2.6,9.94-3.55,3.39-.98,6.85-1.61,10.3-2.23,6.93-1.15,13.96-1.69,20.98-1.63,7.02.12,14.03.78,20.92,2.12,6.89,1.3,13.66,3.23,20.22,5.7,3.28,1.24,6.5,2.63,9.65,4.16,3.15,1.54,6.24,3.2,9.16,5.13Z"/>
      <path class="cls-5" d="M1019.1,348.5c3.83,7.23,7.24,14.69,10.07,22.38,2.84,7.69,5.16,15.57,7.03,23.55,1.87,7.99,3.33,16.06,4.52,24.17,1.22,8.1,2.24,16.22,3.59,24.26,1.35,8.03,3.05,16.01,5.79,23.63,2.7,7.61,6.56,14.79,11.59,21.07,2.52,3.13,5.25,6.1,8.24,8.8,2.96,2.73,6.17,5.18,9.45,7.58,1.65,1.18,3.32,2.32,5,3.44,1.72,1.07,3.4,2.19,5.17,3.15,3.49,2.03,7.12,3.78,10.87,5.19,3.75,1.42,7.61,2.48,11.56,3.12,3.95.65,7.96.9,12,.91,8.08.02,16.28-.69,24.53-.62,4.12.01,8.26.16,12.37.53,2.06.14,4.11.42,6.17.65,2.04.3,4.09.58,6.12.95,8.13,1.45,16.13,3.54,23.96,6.09.98.32,1.95.62,2.94.96,1.01.35,1.98.74,2.95,1.16,1.92.84,3.79,1.76,5.62,2.73,3.66,1.94,7.19,4.05,10.7,6.18,7,4.29,13.86,8.75,20.77,13.1,13.82,8.71,27.82,17.12,42.52,24.13,14.67,6.98,30.08,12.67,46.11,15.12,8,1.23,16.13,1.53,24.17.75,8.02-.87,15.95-2.8,23.35-6.04,7.43-3.18,14.33-7.54,20.57-12.71,1.55-1.26,3.18-2.65,4.86-3.85,1.69-1.22,3.45-2.32,5.27-3.35,3.64-2.01,7.53-3.59,11.54-4.68,8.04-2.19,16.49-2.42,24.67-1.38,8.2,1.05,16.19,3.3,23.88,6.19,7.7,2.9,15.12,6.48,22.3,10.44,7.19,3.96,14.14,8.32,20.92,12.92,13.55,9.23,26.39,19.44,38.75,30.18,12.35,10.75,24.22,22.04,35.69,33.71,11.44,11.7,22.56,23.72,33.1,36.23-10.66-12.41-21.9-24.31-33.44-35.89-11.55-11.57-23.49-22.77-35.9-33.41-12.41-10.63-25.3-20.73-38.87-29.82-13.57-9.05-27.84-17.2-43.09-22.91-7.62-2.83-15.5-5-23.55-6-8.02-.98-16.24-.71-24.01,1.44-3.88,1.07-7.62,2.61-11.13,4.57-1.74,1-3.44,2.07-5.07,3.25-1.64,1.19-3.13,2.46-4.74,3.8-6.31,5.31-13.35,9.84-20.94,13.16-7.57,3.39-15.7,5.44-23.93,6.39-8.24.87-16.58.62-24.76-.57-4.09-.59-8.15-1.4-12.16-2.37-4.01-.99-7.96-2.17-11.87-3.48-7.82-2.61-15.42-5.8-22.85-9.31-14.87-7.05-28.99-15.48-42.86-24.18-6.94-4.34-13.82-8.78-20.77-13.03-3.48-2.11-6.99-4.18-10.56-6.07-1.79-.94-3.59-1.82-5.42-2.62-.92-.39-1.84-.75-2.76-1.07-.94-.32-1.93-.62-2.89-.93-7.73-2.48-15.61-4.51-23.59-5.9-7.98-1.38-16.06-2.12-24.17-2.15-8.11-.1-16.25.57-24.53.52-4.14-.04-8.31-.3-12.44-1-4.12-.69-8.18-1.82-12.07-3.31-3.9-1.48-7.66-3.32-11.23-5.42-1.82-1-3.54-2.16-5.29-3.26-1.72-1.15-3.42-2.33-5.09-3.54-6.68-4.81-13.01-10.36-18.1-16.96-5.12-6.57-9.02-14.05-11.69-21.88-2.7-7.83-4.32-15.95-5.58-24.05-2.45-16.22-3.9-32.51-7.35-48.48-3.35-15.97-8.71-31.53-16.01-46.18Z"/>
    </g>
  </g>
</svg>