<?xml version="1.0" encoding="UTF-8"?>
<svg id="Mode_Isolation" data-name="Mode Isolation" xmlns="http://www.w3.org/2000/svg" viewBox="0 0 39.82 28.76">
  <defs>
    <style>
      .cls-1 {
        opacity: .9;
      }

      .cls-2 {
        fill: #b22334;
      }

      .cls-3 {
        fill: #fff;
      }

      .cls-4 {
        fill: #00247d;
      }

      .cls-5 {
        fill: #eee;
      }

      .cls-6 {
        fill: #cf1b2b;
      }

      .cls-7 {
        fill: #3c3b6e;
      }
    </style>
  </defs>
  <g class="cls-1">
    <g>
      <path class="cls-2" d="M36.44,4.42l-3.06,2.21h6.45v-2.21h-3.39ZM19.92,4.42v2.21h7.99l3.06-2.21h-11.05ZM11.47,24.33h2.91v-2.04l-2.91,2.04ZM16.59,22.12v2.21h6.64v-2.21h-6.64ZM25.44,22.3v2.04h2.91l-2.91-2.04ZM11.47,24.33h2.91v-2.04l-2.91,2.04ZM16.59,22.12v2.21h6.64v-2.21h-6.64ZM25.44,22.3v2.04h2.91l-2.91-2.04ZM11.47,24.33h2.91v-2.04l-2.91,2.04ZM16.59,22.12v2.21h6.64v-2.21h-6.64ZM25.44,22.3v2.04h2.91l-2.91-2.04ZM11.47,24.33h2.91v-2.04l-2.91,2.04ZM25.44,22.3v2.04h2.91l-2.91-2.04ZM5.79,26.55l-2.73,1.97-.02.02c.06.02.14.03.2.05.06.02.11.03.18.05.08.02.17.03.25.05.08.02.17.02.25.04.17.02.34.04.51.04h30.97c.23,0,.46-.02.67-.06.22-.03.44-.08.65-.15.14-.04.27-.09.41-.14.09-.04.18-.08.26-.13.09-.04.17-.09.25-.14.16-.1.32-.21.47-.32.16-.13.3-.26.45-.41.05-.06.1-.1.14-.15.04-.05.09-.11.13-.16.03-.05.07-.09.11-.14.07-.1.14-.22.22-.33.02-.03.05-.06.06-.1H5.79ZM25.44,22.3v2.04h2.91l-2.91-2.04ZM14.38,22.3l-2.91,2.04h2.91v-2.04ZM25.44,22.3v2.04h2.91l-2.91-2.04ZM11.47,24.33h2.91v-2.04l-2.91,2.04ZM25.44,22.3v2.04h2.91l-2.91-2.04ZM16.59,22.12v2.21h6.64v-2.21h-6.64ZM11.47,24.33h2.91v-2.04l-2.91,2.04ZM25.44,22.3v2.04h2.91l-2.91-2.04ZM16.59,22.12v2.21h6.64v-2.21h-6.64ZM11.47,24.33h2.91v-2.04l-2.91,2.04ZM30.97,22.12h-14.38v2.21h17.54l-3.16-2.21ZM11.47,24.33h2.91v-2.04l-2.91,2.04ZM0,17.7v2.21h9.52l3.06-2.21H0ZM12.7,22.12l-3.16,2.21h1.93l2.91-2.04v2.04h2.21v-2.21h-3.89ZM12.7,22.12l-3.16,2.21h1.93l2.91-2.04v2.04h2.21v-2.21h-3.89ZM16.59,22.12v2.21h6.64v-2.21h-6.64ZM18.05,17.7l-1.46,1.05-1.61,1.16h24.84v-2.21h-21.77ZM16.59,24.33h6.64v-2.21h-6.64v2.21ZM16.59,22.12v2.21h6.64v-2.21h-6.64ZM12.7,22.12l-3.16,2.21h1.93l2.91-2.04v2.04h2.21v-2.21h-3.89ZM12.7,22.12l-3.16,2.21h1.93l2.91-2.04v2.04h2.21v-2.21h-3.89ZM30.31,8.84l-3.07,2.21h12.58v-2.21h-9.51ZM19.92,8.84v2.21h1.86l3.06-2.21h-4.92ZM24.18,13.27l-3.07,2.21h18.71v-2.21h-15.64ZM0,22.12v2.21h3.4l3.06-2.21H0ZM11.92,22.12l-3.06,2.21h30.96v-2.21H11.92ZM35.4,0h-15.48v2.2h14.12l2.74-1.98c-.43-.14-.89-.22-1.37-.22Z"/>
      <path class="cls-5" d="M39.8,4.04c-.02-.13-.03-.25-.06-.38-.02-.11-.04-.22-.06-.32-.03-.11-.06-.22-.1-.32-.08-.22-.18-.46-.29-.67l-2.85,2.06h3.39c0-.13,0-.25-.02-.38ZM19.92,2.2v2.21h11.05l3.07-2.21h-14.12ZM33.38,6.63l-3.07,2.21h9.51v-2.21h-6.45ZM19.92,6.63v2.21h4.92l3.07-2.21h-7.99ZM19.92,11.06v1.34l1.86-1.34h-1.86ZM27.24,11.06l-3.06,2.21h15.64v-2.21h-12.58ZM0,15.48v2.21h12.58l3.07-2.21H0ZM21.11,15.48l-3.06,2.21h21.77v-2.21h-18.71ZM0,19.91v2.21h6.46l3.07-2.21H0ZM14.99,19.91l-.61.44-2.46,1.77h27.91v-2.21H14.99ZM0,24.33c0,.26.03.5.08.75.02.1.04.2.06.3.03.11.06.22.1.33.08.24.18.46.3.68l2.85-2.06H0ZM8.86,24.33l-3.07,2.21h33.42c.08-.14.14-.27.21-.41.06-.14.11-.28.16-.42.02-.05.04-.1.06-.15,0-.02,0-.05.02-.07.02-.08.05-.17.06-.25.02-.06.02-.1.03-.16.02-.12.04-.24.06-.36.02-.13.02-.26.02-.39H8.86ZM31.67,19.91h-3.86l3.16,2.21h3.86l-3.16-2.21Z"/>
      <path class="cls-7" d="M19.92,0v12.4l-4.27,3.08H0V4.42C0,1.97,1.98,0,4.43,0h15.49Z"/>
      <path class="cls-3" d="M17.7,11.86h-.85l-.26-.81-.26.81h-.85l.69.5-.26.8.68-.5.69.5-.26-.8.69-.5ZM13.28,11.86h-.85l-.26-.81-.26.81h-.85l.69.5-.26.8.69-.5.68.5-.26-.8.69-.5ZM8.85,11.86h-.85l-.26-.81-.26.81h-.85l.69.5-.26.8.69-.5.68.5-.26-.8.68-.5ZM4.43,11.86h-.85l-.26-.81-.26.81h-.85l.69.5-.26.8.69-.5.68.5-.26-.8.68-.5ZM17.7,7.44h-.85l-.26-.81-.26.81h-.85l.69.5-.26.8.68-.5.69.5-.26-.8.69-.5ZM13.28,7.44h-.85l-.26-.81-.26.81h-.85l.69.5-.26.8.69-.5.68.5-.26-.8.69-.5ZM8.85,7.44h-.85l-.26-.81-.26.81h-.85l.69.5-.26.8.69-.5.68.5-.26-.8.68-.5ZM4.43,7.44h-.85l-.26-.81-.26.81h-.85l.69.5-.26.8.69-.5.68.5-.26-.8.68-.5ZM17.7,3.01h-.85l-.26-.81-.26.81h-.85l.69.5-.26.81.68-.5.69.5-.26-.81.69-.5ZM13.28,3.01h-.85l-.26-.81-.26.81h-.85l.69.5-.26.81.69-.5.68.5-.26-.81.69-.5ZM8.85,3.01h-.85l-.26-.81-.26.81h-.85l.69.5-.26.81.69-.5.68.5-.26-.81.68-.5ZM15.49,9.65h-.85l-.26-.81-.26.81h-.85l.69.5-.26.8.68-.5.69.5-.26-.8.69-.5ZM11.06,9.65h-.85l-.26-.81-.26.81h-.85l.69.5-.26.8.69-.5.68.5-.26-.8.69-.5ZM6.64,9.65h-.85l-.26-.81-.26.81h-.85l.69.5-.26.8.69-.5.68.5-.26-.8.68-.5ZM15.49,5.22h-.85l-.26-.81-.26.81h-.85l.69.5-.26.8.68-.5.69.5-.26-.8.69-.5ZM11.06,5.22h-.85l-.26-.81-.26.81h-.85l.69.5-.26.8.69-.5.68.5-.26-.8.69-.5ZM6.64,5.22h-.85l-.26-.81-.26.81h-.85l.69.5-.26.8.69-.5.68.5-.26-.8.68-.5ZM4.43,3.01h-.85l-.26-.81-.26.81h-.85l.69.5-.26.81.69-.5.68.5-.26-.81.68-.5Z"/>
    </g>
    <g>
      <path class="cls-4" d="M11.47,24.33l-3.16,2.21-3.15,2.2h9.22v-6.45l-2.91,2.04ZM31.52,26.55l-3.16-2.21-2.91-2.04v6.45h9.22l-3.15-2.2ZM33.59,19.91l3.16,2.21,3.07,2.15v-4.36h-6.23ZM36.76,6.63l-3.16,2.21h6.22v-4.35l-3.06,2.14Z"/>
      <path class="cls-6" d="M38,24.33l-3.16-2.21-3.16-2.21h-3.86l3.16,2.21,3.16,2.21,3.16,2.21,1.25.87h0s.1-.1.14-.15c.04-.05.09-.11.13-.16.03-.05.07-.09.11-.14.07-.1.14-.22.22-.33.02-.03.05-.06.06-.1h0c.08-.14.14-.27.21-.41.06-.14.11-.28.16-.42.02-.05.04-.1.06-.15,0-.02,0-.05.02-.07l-1.65-1.16ZM11.92,22.12l-3.06,2.21-3.07,2.21-2.73,1.97c.06.02.12.04.18.06.06.02.11.03.18.05h0s2.96-2.09,2.96-2.09l3.16-2.21,3.16-2.21,1.68-1.17v-.6l-2.46,1.77Z"/>
      <path class="cls-5" d="M39.82,17.7h-16.59v11.06h2.21v-6.45l2.91,2.04,3.16,2.21,3.15,2.2h.73c.23,0,.46-.02.67-.05.22-.03.44-.08.65-.15.14-.04.27-.09.41-.14.09-.04.18-.08.26-.13.09-.04.17-.09.25-.14.16-.1.32-.21.47-.32.16-.12.31-.26.46-.4h0s-1.25-.88-1.25-.88l-3.16-2.21-3.16-2.21-3.16-2.21h3.86l3.16,2.21,3.16,2.21,1.65,1.16c.02-.08.05-.17.06-.25.02-.06.02-.1.03-.16.02-.12.04-.24.06-.36.02-.13.02-.26.02-.39v-.06l-3.07-2.15-3.16-2.21h6.23v-2.21ZM14.99,19.91l-.61.44v.6l-1.68,1.17-3.16,2.21-3.16,2.21-2.96,2.08c.08.02.17.04.25.06.08.02.17.02.25.04.17.02.34.03.51.03h.74l3.15-2.2,3.16-2.21,2.91-2.04v6.45h2.21v-10l-1.61,1.16ZM39.82,4.49v-.07c0-.13,0-.25-.02-.38-.02-.13-.03-.25-.06-.38-.02-.11-.04-.22-.06-.32-.08-.34-.21-.68-.38-1h-.02s-2.85,2.07-2.85,2.07l-3.06,2.21-3.07,2.21-3.07,2.21h12.58v-2.21h-6.22l3.16-2.21,3.06-2.14Z"/>
      <polygon class="cls-6" points="39.82 11.06 39.82 17.7 23.23 17.7 23.23 28.75 16.59 28.75 16.59 18.75 18.05 17.7 21.11 15.48 24.18 13.27 27.24 11.06 39.82 11.06"/>
    </g>
  </g>
</svg>