<?xml version="1.0" encoding="UTF-8"?>
<svg id="Base" xmlns="http://www.w3.org/2000/svg" viewBox="0 0 42.14 64">
  <defs>
    <style>
      .cls-1 {
        fill: #c9a84c;
      }
    </style>
  </defs>
  <polygon class="cls-1" points="25.29 6.32 25.29 10.89 16.86 10.89 16.86 0 17.56 .53 21.07 3.16 23.88 5.27 25.29 6.32"/>
  <polygon class="cls-1" points="35.12 14.83 33.71 15.89 25.29 22.21 23.88 23.26 18.26 23.26 16.86 22.21 8.43 15.89 7.03 14.83 35.12 14.83"/>
  <polygon class="cls-1" points="8.43 36.96 8.43 56.98 0 56.98 0 30.64 1.4 31.69 7.03 35.91 8.43 36.96"/>
  <polygon class="cls-1" points="42.14 14.83 42.14 56.98 33.71 50.66 30.9 48.55 25.29 44.33 24.58 43.81 21.07 41.17 19.67 40.12 17.56 38.54 16.86 38.01 14.05 35.91 10.54 33.27 0 25.37 0 14.83 8.43 21.16 11.24 23.26 16.86 27.48 17.56 28 21.07 30.64 22.47 31.69 24.58 33.27 25.29 33.8 28.1 35.91 31.61 38.54 33.71 40.12 33.71 23.26 30.9 23.26 33.71 21.16 42.14 14.83"/>
  <polygon class="cls-1" points="25.29 49.6 25.29 56.98 21.07 64 16.86 56.98 16.86 43.28 17.56 43.81 21.07 46.44 23.88 48.55 25.29 49.6"/>
</svg>